<?xml version="1.0" encoding="UTF-8"?>
<!--Generator: Apple Native CoreSVG 175.5-->
<!DOCTYPE svg
PUBLIC "-//W3C//DTD SVG 1.1//EN"
       "http://www.w3.org/Graphics/SVG/1.1/DTD/svg11.dtd">
<svg version="1.1" xmlns="http://www.w3.org/2000/svg" xmlns:xlink="http://www.w3.org/1999/xlink" width="3300" height="2200">
 <!--glyph: "uni100CFE.medium", point size: 100.0, font version: "18.0d10e1", template writer version: "90"-->
 <g id="Notes">
  <rect height="2200" id="artboard" style="fill:white;opacity:1" width="3300" x="0" y="0"/>
  <line style="fill:none;stroke:black;opacity:1;stroke-width:0.5;" x1="263" x2="3036" y1="292" y2="292"/>
  <text style="stroke:none;fill:black;font-family:sans-serif;font-size:13;font-weight:bold;" transform="matrix(1 0 0 1 263 322)">Weight/Scale Variations</text>
  <text style="stroke:none;fill:black;font-family:sans-serif;font-size:13;text-anchor:middle;" transform="matrix(1 0 0 1 559.711 322)">Ultralight</text>
  <text style="stroke:none;fill:black;font-family:sans-serif;font-size:13;text-anchor:middle;" transform="matrix(1 0 0 1 856.422 322)">Thin</text>
  <text style="stroke:none;fill:black;font-family:sans-serif;font-size:13;text-anchor:middle;" transform="matrix(1 0 0 1 1153.13 322)">Light</text>
  <text style="stroke:none;fill:black;font-family:sans-serif;font-size:13;text-anchor:middle;" transform="matrix(1 0 0 1 1449.84 322)">Regular</text>
  <text style="stroke:none;fill:black;font-family:sans-serif;font-size:13;text-anchor:middle;" transform="matrix(1 0 0 1 1746.56 322)">Medium</text>
  <text style="stroke:none;fill:black;font-family:sans-serif;font-size:13;text-anchor:middle;" transform="matrix(1 0 0 1 2043.27 322)">Semibold</text>
  <text style="stroke:none;fill:black;font-family:sans-serif;font-size:13;text-anchor:middle;" transform="matrix(1 0 0 1 2339.98 322)">Bold</text>
  <text style="stroke:none;fill:black;font-family:sans-serif;font-size:13;text-anchor:middle;" transform="matrix(1 0 0 1 2636.69 322)">Heavy</text>
  <text style="stroke:none;fill:black;font-family:sans-serif;font-size:13;text-anchor:middle;" transform="matrix(1 0 0 1 2933.4 322)">Black</text>
  <line style="fill:none;stroke:black;opacity:1;stroke-width:0.5;" x1="263" x2="3036" y1="1903" y2="1903"/>
  <g transform="matrix(1 0 0 1 263 1933)">
   <path d="M9.24805 0.830078C13.5547 0.830078 17.1387-2.74414 17.1387-7.05078C17.1387-11.3574 13.5449-14.9316 9.23828-14.9316C4.94141-14.9316 1.36719-11.3574 1.36719-7.05078C1.36719-2.74414 4.95117 0.830078 9.24805 0.830078ZM9.24805-0.654297C5.70312-0.654297 2.87109-3.49609 2.87109-7.05078C2.87109-10.6055 5.69336-13.4473 9.23828-13.4473C12.793-13.4473 15.6445-10.6055 15.6445-7.05078C15.6445-3.49609 12.8027-0.654297 9.24805-0.654297ZM5.6543-7.05078C5.6543-6.62109 5.95703-6.32812 6.40625-6.32812L8.50586-6.32812L8.50586-4.20898C8.50586-3.76953 8.79883-3.4668 9.22852-3.4668C9.67773-3.4668 9.9707-3.76953 9.9707-4.20898L9.9707-6.32812L12.0898-6.32812C12.5293-6.32812 12.832-6.62109 12.832-7.05078C12.832-7.49023 12.5293-7.79297 12.0898-7.79297L9.9707-7.79297L9.9707-9.90234C9.9707-10.3516 9.67773-10.6543 9.22852-10.6543C8.79883-10.6543 8.50586-10.3516 8.50586-9.90234L8.50586-7.79297L6.40625-7.79297C5.95703-7.79297 5.6543-7.49023 5.6543-7.05078Z"/>
  </g>
  <g transform="matrix(1 0 0 1 281.867 1933)">
   <path d="M11.709 2.91016C17.1582 2.91016 21.6699-1.61133 21.6699-7.05078C21.6699-12.5 17.1484-17.0117 11.6992-17.0117C6.25977-17.0117 1.74805-12.5 1.74805-7.05078C1.74805-1.61133 6.26953 2.91016 11.709 2.91016ZM11.709 1.25C7.09961 1.25 3.41797-2.44141 3.41797-7.05078C3.41797-11.6602 7.08984-15.3516 11.6992-15.3516C16.3086-15.3516 20.0098-11.6602 20.0098-7.05078C20.0098-2.44141 16.3184 1.25 11.709 1.25ZM7.17773-7.05078C7.17773-6.57227 7.50977-6.25 8.00781-6.25L10.8789-6.25L10.8789-3.36914C10.8789-2.88086 11.2109-2.53906 11.6895-2.53906C12.1777-2.53906 12.5195-2.87109 12.5195-3.36914L12.5195-6.25L15.4004-6.25C15.8887-6.25 16.2305-6.57227 16.2305-7.05078C16.2305-7.53906 15.8887-7.88086 15.4004-7.88086L12.5195-7.88086L12.5195-10.752C12.5195-11.25 12.1777-11.5918 11.6895-11.5918C11.2109-11.5918 10.8789-11.25 10.8789-10.752L10.8789-7.88086L8.00781-7.88086C7.50977-7.88086 7.17773-7.53906 7.17773-7.05078Z"/>
  </g>
  <g transform="matrix(1 0 0 1 305.646 1933)">
   <path d="M14.9707 5.66406C21.9336 5.66406 27.6953-0.0976562 27.6953-7.05078C27.6953-14.0137 21.9238-19.7754 14.9609-19.7754C8.00781-19.7754 2.25586-14.0137 2.25586-7.05078C2.25586-0.0976562 8.01758 5.66406 14.9707 5.66406ZM14.9707 3.84766C8.93555 3.84766 4.08203-1.01562 4.08203-7.05078C4.08203-13.0957 8.92578-17.9492 14.9609-17.9492C21.0059-17.9492 25.8691-13.0957 25.8691-7.05078C25.8691-1.01562 21.0156 3.84766 14.9707 3.84766ZM9.19922-7.05078C9.19922-6.5332 9.57031-6.17188 10.1172-6.17188L14.0625-6.17188L14.0625-2.2168C14.0625-1.67969 14.4336-1.29883 14.9512-1.29883C15.4883-1.29883 15.8594-1.66992 15.8594-2.2168L15.8594-6.17188L19.8145-6.17188C20.3516-6.17188 20.7324-6.5332 20.7324-7.05078C20.7324-7.59766 20.3613-7.96875 19.8145-7.96875L15.8594-7.96875L15.8594-11.9141C15.8594-12.4609 15.4883-12.8418 14.9512-12.8418C14.4336-12.8418 14.0625-12.4609 14.0625-11.9141L14.0625-7.96875L10.1172-7.96875C9.57031-7.96875 9.19922-7.59766 9.19922-7.05078Z"/>
  </g>
  <text style="stroke:none;fill:black;font-family:sans-serif;font-size:13;font-weight:bold;" transform="matrix(1 0 0 1 263 1953)">Design Variations</text>
  <text style="stroke:none;fill:black;font-family:sans-serif;font-size:13;" transform="matrix(1 0 0 1 263 1971)">Symbols are supported in up to nine weights and three scales.</text>
  <text style="stroke:none;fill:black;font-family:sans-serif;font-size:13;" transform="matrix(1 0 0 1 263 1989)">For optimal layout with text and other symbols, vertically align</text>
  <text style="stroke:none;fill:black;font-family:sans-serif;font-size:13;" transform="matrix(1 0 0 1 263 2007)">symbols with the adjacent text.</text>
  <line style="fill:none;stroke:#00AEEF;stroke-width:0.5;opacity:1.0;" x1="776" x2="776" y1="1919" y2="1933"/>
  <g transform="matrix(1 0 0 1 776 1933)">
   <path d="M3.31055 0.15625C3.82812 0.15625 4.08203-0.0390625 4.26758-0.585938L5.52734-4.0332L11.2891-4.0332L12.5488-0.585938C12.7344-0.0390625 12.9883 0.15625 13.4961 0.15625C14.0137 0.15625 14.3457-0.15625 14.3457-0.644531C14.3457-0.810547 14.3164-0.966797 14.2383-1.17188L9.6582-13.3691C9.43359-13.9648 9.0332-14.2676 8.4082-14.2676C7.80273-14.2676 7.39258-13.9746 7.17773-13.3789L2.59766-1.16211C2.51953-0.957031 2.49023-0.800781 2.49023-0.634766C2.49023-0.146484 2.80273 0.15625 3.31055 0.15625ZM6.00586-5.51758L8.37891-12.0898L8.42773-12.0898L10.8008-5.51758Z"/>
  </g>
  <line style="fill:none;stroke:#00AEEF;stroke-width:0.5;opacity:1.0;" x1="793.197" x2="793.197" y1="1919" y2="1933"/>
  <text style="stroke:none;fill:black;font-family:sans-serif;font-size:13;font-weight:bold;" transform="matrix(1 0 0 1 776 1953)">Margins</text>
  <text style="stroke:none;fill:black;font-family:sans-serif;font-size:13;" transform="matrix(1 0 0 1 776 1971)">Leading and trailing margins on the left and right side of each symbol</text>
  <text style="stroke:none;fill:black;font-family:sans-serif;font-size:13;" transform="matrix(1 0 0 1 776 1989)">can be adjusted by modifying the x-location of the margin guidelines.</text>
  <text style="stroke:none;fill:black;font-family:sans-serif;font-size:13;" transform="matrix(1 0 0 1 776 2007)">Modifications are automatically applied proportionally to all</text>
  <text style="stroke:none;fill:black;font-family:sans-serif;font-size:13;" transform="matrix(1 0 0 1 776 2025)">scales and weights.</text>
  <g transform="matrix(1 0 0 1 1289 1933)">
   <path d="M2.8418 1.86523L4.54102 3.57422C5.40039 4.44336 6.38672 4.38477 7.31445 3.35938L18.0078-8.42773L17.041-9.4043L6.42578 2.27539C6.07422 2.67578 5.74219 2.77344 5.27344 2.30469L4.10156 1.14258C3.63281 0.683594 3.74023 0.341797 4.14062-0.0195312L15.6152-10.8203L14.6387-11.7871L3.04688-0.898438C2.06055 0.0195312 1.98242 0.996094 2.8418 1.86523ZM9.25781-16.3281C8.83789-15.918 8.80859-15.3418 9.04297-14.9512C9.27734-14.5898 9.73633-14.3555 10.3809-14.5215C11.8457-14.8633 13.3691-14.9219 14.7949-13.9844L14.209-12.5293C13.8672-11.6992 14.043-11.1133 14.5801-10.5664L16.875-8.25195C17.3633-7.76367 17.7734-7.74414 18.3398-7.8418L19.4043-8.03711L20.0684-7.36328L20.0293-6.80664C19.9902-6.30859 20.1172-5.92773 20.6055-5.44922L21.3672-4.70703C21.8457-4.22852 22.4609-4.19922 22.9297-4.66797L25.8398-7.58789C26.3086-8.05664 26.2891-8.65234 25.8105-9.13086L25.0391-9.89258C24.5605-10.3711 24.1895-10.5273 23.7109-10.4883L23.1348-10.4395L22.4902-11.0742L22.7344-12.1973C22.8613-12.7637 22.7051-13.2031 22.1191-13.7891L19.9219-15.9766C16.582-19.2969 12.1484-19.2188 9.25781-16.3281ZM10.752-15.957C13.1836-17.7344 16.4746-17.4316 18.7012-15.2051L21.1328-12.793C21.3672-12.5586 21.4062-12.373 21.3379-12.0312L21.0156-10.5469L22.5195-9.0625L23.5059-9.12109C23.7598-9.13086 23.8379-9.11133 24.0332-8.91602L24.6094-8.33984L22.168-5.89844L21.5918-6.47461C21.3965-6.66992 21.3672-6.74805 21.377-7.01172L21.4453-7.98828L19.9512-9.47266L18.4277-9.21875C18.1055-9.15039 17.959-9.17969 17.7148-9.41406L15.7129-11.416C15.459-11.6504 15.4297-11.8164 15.5859-12.1875L16.4648-14.2773C14.9023-15.7324 12.8711-16.3574 10.8398-15.7617C10.6836-15.7227 10.625-15.8496 10.752-15.957Z"/>
  </g>
  <text style="stroke:none;fill:black;font-family:sans-serif;font-size:13;font-weight:bold;" transform="matrix(1 0 0 1 1289 1953)">Exporting</text>
  <text style="stroke:none;fill:black;font-family:sans-serif;font-size:13;" transform="matrix(1 0 0 1 1289 1971)">Symbols should be outlined when exporting to ensure the</text>
  <text style="stroke:none;fill:black;font-family:sans-serif;font-size:13;" transform="matrix(1 0 0 1 1289 1989)">design is preserved when submitting to Xcode.</text>
  <text id="template-version" style="stroke:none;fill:black;font-family:sans-serif;font-size:13;text-anchor:end;" transform="matrix(1 0 0 1 3036 1933)">Template v.2.0</text>
  <text style="stroke:none;fill:black;font-family:sans-serif;font-size:13;text-anchor:end;" transform="matrix(1 0 0 1 3036 1951)">Requires Xcode 12 or greater</text>
  <text id="descriptive-name" style="stroke:none;fill:black;font-family:sans-serif;font-size:13;text-anchor:end;" transform="matrix(1 0 0 1 3036 1969)">Generated from figure.stand</text>
  <text style="stroke:none;fill:black;font-family:sans-serif;font-size:13;text-anchor:end;" transform="matrix(1 0 0 1 3036 1987)">Typeset at 100 points</text>
  <text style="stroke:none;fill:black;font-family:sans-serif;font-size:13;" transform="matrix(1 0 0 1 263 726)">Small</text>
  <text style="stroke:none;fill:black;font-family:sans-serif;font-size:13;" transform="matrix(1 0 0 1 263 1156)">Medium</text>
  <text style="stroke:none;fill:black;font-family:sans-serif;font-size:13;" transform="matrix(1 0 0 1 263 1586)">Large</text>
 </g>
 <g id="Guides">
  <g id="H-reference" style="fill:#27AAE1;stroke:none;" transform="matrix(1 0 0 1 339 696)">
   <path d="M0.993654 0L3.63775 0L29.3281-67.1323L30.0303-67.1323L30.0303-70.459L28.1226-70.459ZM11.6885-24.4799L46.9815-24.4799L46.2315-26.7285L12.4385-26.7285ZM55.1196 0L57.7637 0L30.6382-70.459L29.4326-70.459L29.4326-67.1323Z"/>
  </g>
  <line id="Baseline-S" style="fill:none;stroke:#27AAE1;opacity:1;stroke-width:0.5;" x1="263" x2="3036" y1="696" y2="696"/>
  <line id="Capline-S" style="fill:none;stroke:#27AAE1;opacity:1;stroke-width:0.5;" x1="263" x2="3036" y1="625.541" y2="625.541"/>
  <g id="H-reference" style="fill:#27AAE1;stroke:none;" transform="matrix(1 0 0 1 339 1126)">
   <path d="M0.993654 0L3.63775 0L29.3281-67.1323L30.0303-67.1323L30.0303-70.459L28.1226-70.459ZM11.6885-24.4799L46.9815-24.4799L46.2315-26.7285L12.4385-26.7285ZM55.1196 0L57.7637 0L30.6382-70.459L29.4326-70.459L29.4326-67.1323Z"/>
  </g>
  <line id="Baseline-M" style="fill:none;stroke:#27AAE1;opacity:1;stroke-width:0.5;" x1="263" x2="3036" y1="1126" y2="1126"/>
  <line id="Capline-M" style="fill:none;stroke:#27AAE1;opacity:1;stroke-width:0.5;" x1="263" x2="3036" y1="1055.54" y2="1055.54"/>
  <g id="H-reference" style="fill:#27AAE1;stroke:none;" transform="matrix(1 0 0 1 339 1556)">
   <path d="M0.993654 0L3.63775 0L29.3281-67.1323L30.0303-67.1323L30.0303-70.459L28.1226-70.459ZM11.6885-24.4799L46.9815-24.4799L46.2315-26.7285L12.4385-26.7285ZM55.1196 0L57.7637 0L30.6382-70.459L29.4326-70.459L29.4326-67.1323Z"/>
  </g>
  <line id="Baseline-L" style="fill:none;stroke:#27AAE1;opacity:1;stroke-width:0.5;" x1="263" x2="3036" y1="1556" y2="1556"/>
  <line id="Capline-L" style="fill:none;stroke:#27AAE1;opacity:1;stroke-width:0.5;" x1="263" x2="3036" y1="1485.54" y2="1485.54"/>
  <line id="left-margin" style="fill:none;stroke:#00AEEF;stroke-width:0.5;opacity:1.0;" x1="1414.38" x2="1414.38" y1="1030.79" y2="1150.12"/>
  <line id="right-margin" style="fill:none;stroke:#00AEEF;stroke-width:0.5;opacity:1.0;" x1="1485.31" x2="1485.31" y1="1030.79" y2="1150.12"/>
 </g>
 <g id="Symbols">
  <g id="Black-L" transform="matrix(1 0 0 1 2883.5 1556)">
   <path d="M16.084-19.6063C16.084-15.8127 19.1187-12.7207 22.8904-12.7207C26.684-12.7207 29.7772-15.8127 29.7772-19.6063L29.7772-45.1766C29.7772-46.1445 30.5622-46.9308 31.5093-46.9308C32.4772-46.9308 33.2634-46.1445 33.2634-45.1766L33.2634 32.8673C33.2634 37.0398 36.5394 40.295 40.6911 40.295C44.8053 40.295 48.1397 36.9814 48.1397 32.8673L48.1397-14.8532C48.1397-15.8211 48.9467-16.6281 49.8938-16.6281C50.8605-16.6281 51.6675-15.8211 51.6675-14.8532L51.6675 32.8673C51.6675 36.9814 55.0019 40.295 59.0952 40.295C63.2678 40.295 66.5438 37.0398 66.5438 32.8673L66.5438-45.1766C66.5438-46.1445 67.33-46.9308 68.2771-46.9308C69.245-46.9308 70.0312-46.1445 70.0312-45.1766L70.0312-19.6063C70.0312-15.8127 73.1231-12.7207 76.896-12.7207C80.6885-12.7207 83.7232-15.8127 83.7232-19.6063L83.7232-48.1838C83.7232-63.4455 71.8472-73.5787 55.2255-73.5787L44.5817-73.5787C27.96-73.5787 16.084-63.4455 16.084-48.1838ZM49.8938-80.2325C58.4394-80.2325 65.3815-87.1953 65.3815-95.7214C65.3815-104.267 58.4394-111.209 49.8938-111.209C41.3677-111.209 34.4049-104.267 34.4049-95.7214C34.4049-87.1953 41.3677-80.2325 49.8938-80.2325Z"/>
  </g>
  <g id="Heavy-L" transform="matrix(1 0 0 1 2587.86 1556)">
   <path d="M16.084-19.9714C16.084-16.3421 18.9863-13.4007 22.5799-13.4007C26.2092-13.4007 29.1562-16.3421 29.1562-19.9714L29.1562-45.1926C29.1562-46.1979 29.9649-47.0123 30.9401-47.0123C31.9455-47.0123 32.7598-46.1979 32.7598-45.1926L32.7598 31.6644C32.7598 35.6545 35.9034 38.7679 39.8633 38.7679C43.8087 38.7679 46.9969 35.6098 46.9969 31.6644L46.9969-15.2817C46.9969-16.287 47.8414-17.1316 48.8166-17.1316C49.8163-17.1316 50.6608-16.287 50.6608-15.2817L50.6608 31.6644C50.6608 35.6098 53.8491 38.7679 57.7643 38.7679C61.7543 38.7679 64.898 35.6545 64.898 31.6644L64.898-45.1926C64.898-46.1979 65.7123-47.0123 66.6875-47.0123C67.6928-47.0123 68.5072-46.1979 68.5072-45.1926L68.5072-19.9714C68.5072-16.3421 71.4485-13.4007 75.0477-13.4007C78.6714-13.4007 81.5738-16.3421 81.5738-19.9714L81.5738-48.1545C81.5738-63.0797 70.118-72.9714 53.9536-72.9714L43.7042-72.9714C27.5398-72.9714 16.084-63.0797 16.084-48.1545ZM48.8166-79.763C57.1301-79.763 63.8576-86.5207 63.8576-94.8096C63.8576-103.123 57.1301-109.851 48.8166-109.851C40.5277-109.851 33.77-103.123 33.77-94.8096C33.77-86.5207 40.5277-79.763 48.8166-79.763Z"/>
  </g>
  <g id="Bold-L" transform="matrix(1 0 0 1 2292.53 1556)">
   <path d="M16.084-20.4173C16.084-16.9878 18.8249-14.231 22.2031-14.231C25.6326-14.231 28.4027-16.9878 28.4027-20.4173L28.4027-45.1783C28.4027-46.2148 29.2272-47.0526 30.2258-47.0526C31.2623-47.0526 32.1001-46.2148 32.1001-45.1783L32.1001 30.1663C32.1001 33.9334 35.0823 36.8776 38.8114 36.8776C42.5493 36.8776 45.5606 33.9042 45.5606 30.1663L45.5606-15.8119C45.5606-16.8485 46.4364-17.7242 47.435-17.7242C48.4583-17.7242 49.334-16.8485 49.334-15.8119L49.334 30.1663C49.334 33.9042 52.3454 36.8776 56.0453 36.8776C59.8124 36.8776 62.7946 33.9334 62.7946 30.1663L62.7946-45.1783C62.7946-46.2148 63.6323-47.0526 64.6309-47.0526C65.6675-47.0526 66.5052-46.2148 66.5052-45.1783L66.5052-20.4173C66.5052-16.9878 69.2621-14.231 72.6535-14.231C76.0698-14.231 78.8107-16.9878 78.8107-20.4173L78.8107-48.0789C78.8107-62.5742 67.8624-72.1663 52.3113-72.1663L42.5834-72.1663C27.0322-72.1663 16.084-62.5742 16.084-48.0789ZM47.435-79.112C55.4566-79.112 61.9227-85.6161 61.9227-93.613C61.9227-101.635 55.4566-108.101 47.435-108.101C39.4381-108.101 32.934-101.635 32.934-93.613C32.934-85.6161 39.4381-79.112 47.435-79.112Z"/>
  </g>
  <g id="Semibold-L" transform="matrix(1 0 0 1 1996.77 1556)">
   <path d="M16.084-20.7247C16.084-17.433 18.7136-14.8033 21.9434-14.8033C25.235-14.8033 27.8832-17.433 27.8832-20.7247L27.8832-45.1684C27.8832-46.2265 28.7186-47.0803 29.7333-47.0803C30.7914-47.0803 31.6453-46.2265 31.6453-45.1684L31.6453 29.1335C31.6453 32.7469 34.5162 35.5744 38.0862 35.5744C41.6811 35.5744 44.5705 32.7284 44.5705 29.1335L44.5705-16.1774C44.5705-17.2355 45.4677-18.1327 46.4825-18.1327C47.5221-18.1327 48.4193-17.2355 48.4193-16.1774L48.4193 29.1335C48.4193 32.7284 51.3087 35.5744 54.8602 35.5744C58.4736 35.5744 61.3445 32.7469 61.3445 29.1335L61.3445-45.1684C61.3445-46.2265 62.1984-47.0803 63.2131-47.0803C64.2712-47.0803 65.1251-46.2265 65.1251-45.1684L65.1251-20.7247C65.1251-17.433 67.7548-14.8033 71.003-14.8033C74.2762-14.8033 76.9058-17.433 76.9058-20.7247L76.9058-48.0267C76.9058-62.2257 66.3075-71.6112 51.1791-71.6112L41.8107-71.6112C26.6823-71.6112 16.084-62.2257 16.084-48.0267ZM46.4825-78.6632C54.3029-78.6632 60.5888-84.9925 60.5888-92.7881C60.5888-100.608 54.3029-106.894 46.4825-106.894C38.6869-106.894 32.3576-100.608 32.3576-92.7881C32.3576-84.9925 38.6869-78.6632 46.4825-78.6632Z"/>
  </g>
  <g id="Medium-L" transform="matrix(1 0 0 1 1700.78 1556)">
   <path d="M16.084-20.9577C16.084-17.7706 18.6292-15.2373 21.7465-15.2373C24.9336-15.2373 27.4893-17.7706 27.4893-20.9577L27.4893-45.1609C27.4893-46.2353 28.333-47.1014 29.3599-47.1014C30.4343-47.1014 31.3004-46.2353 31.3004-45.1609L31.3004 28.3504C31.3004 31.8473 34.0869 34.5863 37.5364 34.5863C41.0227 34.5863 43.8197 31.8368 43.8197 28.3504L43.8197-16.4546C43.8197-17.529 44.7333-18.4425 45.7602-18.4425C46.8122-18.4425 47.7257-17.529 47.7257-16.4546L47.7257 28.3504C47.7257 31.8368 50.5227 34.5863 53.9616 34.5863C57.4585 34.5863 60.245 31.8473 60.245 28.3504L60.245-45.1609C60.245-46.2353 61.1111-47.1014 62.1381-47.1014C63.2125-47.1014 64.0786-46.2353 64.0786-45.1609L64.0786-20.9577C64.0786-17.7706 66.6119-15.2373 69.7516-15.2373C72.9162-15.2373 75.4615-17.7706 75.4615-20.9577L75.4615-47.9872C75.4615-61.9615 65.1284-71.1903 50.3206-71.1903L41.2248-71.1903C26.417-71.1903 16.084-61.9615 16.084-47.9872ZM45.7602-78.323C53.4281-78.323 59.5774-84.5197 59.5774-92.1626C59.5774-99.8304 53.4281-105.98 45.7602-105.98C38.1174-105.98 31.9206-99.8304 31.9206-92.1626C31.9206-84.5197 38.1174-78.323 45.7602-78.323Z"/>
  </g>
  <g id="Regular-L" transform="matrix(1 0 0 1 1405.01 1556)">
   <path d="M16.084-21.2617C16.084-18.2109 18.5191-15.8034 21.4896-15.8034C24.5404-15.8034 26.9756-18.2109 26.9756-21.2617L26.9756-45.1512C26.9756-46.2468 27.83-47.1289 28.8729-47.1289C29.9686-47.1289 30.8506-46.2468 30.8506-45.1512L30.8506 27.329C30.8506 30.6738 33.5271 33.2975 36.8192 33.2975C40.1641 33.2975 42.8405 30.6738 42.8405 27.329L42.8405-16.8161C42.8405-17.9117 43.7753-18.8466 44.8182-18.8466C45.8862-18.8466 46.8211-17.9117 46.8211-16.8161L46.8211 27.329C46.8211 30.6738 49.4975 33.2975 52.7896 33.2975C56.1345 33.2975 58.8109 30.6738 58.8109 27.329L58.8109-45.1512C58.8109-46.2468 59.693-47.1289 60.7359-47.1289C61.8315-47.1289 62.7136-46.2468 62.7136-45.1512L62.7136-21.2617C62.7136-18.2109 65.1211-15.8034 68.1192-15.8034C71.1424-15.8034 73.5776-18.2109 73.5776-21.2617L73.5776-47.9356C73.5776-61.6168 63.5906-70.6413 49.2009-70.6413L40.4606-70.6413C26.071-70.6413 16.084-61.6168 16.084-47.9356ZM44.8182-77.8791C52.2871-77.8791 58.2581-83.903 58.2581-91.3467C58.2581-98.8156 52.2871-104.787 44.8182-104.787C37.3745-104.787 31.3506-98.8156 31.3506-91.3467C31.3506-83.903 37.3745-77.8791 44.8182-77.8791Z"/>
  </g>
  <g id="Light-L" transform="matrix(1 0 0 1 1109.58 1556)">
   <path d="M16.084-21.5289C16.084-18.5926 18.4237-16.2996 21.2796-16.2996C24.216-16.2996 26.5557-18.5926 26.5557-21.5289L26.5557-44.9221C26.5557-45.9415 27.3338-46.7663 28.3194-46.7663C29.3388-46.7663 30.1636-45.9415 30.1636-44.9221L30.1636 26.2411C30.1636 29.4524 32.7446 31.9997 35.9222 31.9997C39.1335 31.9997 41.7144 29.4524 41.7144 26.2411L41.7144-17.1787C41.7144-18.198 42.5729-19.0565 43.5586-19.0565C44.5312-19.0565 45.3897-18.198 45.3897-17.1787L45.3897 26.2411C45.3897 29.4524 47.9707 31.9997 51.1483 31.9997C54.3595 31.9997 56.9405 29.4524 56.9405 26.2411L56.9405-44.9221C56.9405-45.9415 57.7653-46.7663 58.751-46.7663C59.7703-46.7663 60.5951-45.9415 60.5951-44.9221L60.5951-21.5289C60.5951-18.5926 62.8881-16.2996 65.7908-16.2996C68.6804-16.2996 71.0201-18.5926 71.0201-21.5289L71.0201-47.6303C71.0201-60.9298 61.3003-69.7443 47.6359-69.7443L39.4682-69.7443C25.8038-69.7443 16.084-60.9298 16.084-47.6303ZM43.5586-76.9821C50.7984-76.9821 56.6168-82.8342 56.6168-90.0871C56.6168-97.3269 50.7984-103.145 43.5586-103.145C36.3057-103.145 30.4536-97.3269 30.4536-90.0871C30.4536-82.8342 36.3057-76.9821 43.5586-76.9821Z"/>
  </g>
  <g id="Thin-L" transform="matrix(1 0 0 1 814.561 1556)">
   <path d="M16.084-21.8823C16.084-19.0974 18.2975-16.9559 21.002-16.9559C23.7869-16.9559 26.0004-19.0974 26.0004-21.8823L26.0004-44.6192C26.0004-45.5376 26.6775-46.2867 27.5874-46.2867C28.5058-46.2867 29.2549-45.5376 29.2549-44.6192L29.2549 24.8023C29.2549 27.8369 31.7097 30.2833 34.7358 30.2833C37.7704 30.2833 40.2252 27.8369 40.2252 24.8023L40.2252-17.6583C40.2252-18.5767 40.9827-19.3342 41.8926-19.3342C42.739-19.3342 43.4965-18.5767 43.4965-17.6583L43.4965 24.8023C43.4965 27.8369 45.9513 30.2833 48.9775 30.2833C52.0121 30.2833 54.4668 27.8369 54.4668 24.8023L54.4668-44.6192C54.4668-45.5376 55.2159-46.2867 56.1258-46.2867C57.0442-46.2867 57.7933-45.5376 57.7933-44.6192L57.7933-21.8823C57.7933-19.0974 59.9348-16.9559 62.7113-16.9559C65.4242-16.9559 67.6377-19.0974 67.6377-21.8823L67.6377-47.2264C67.6377-60.0211 58.2713-68.5579 45.5661-68.5579L38.1556-68.5579C25.4504-68.5579 16.084-60.0211 16.084-47.2264ZM41.8926-75.7957C48.8296-75.7957 54.446-81.4206 54.446-88.4211C54.446-95.358 48.8296-100.975 41.8926-100.975C34.8922-100.975 29.2673-95.358 29.2673-88.4211C29.2673-81.4206 34.8922-75.7957 41.8926-75.7957Z"/>
  </g>
  <g id="Ultralight-L" transform="matrix(1 0 0 1 518.716 1556)">
   <path d="M16.084-22.0633C16.084-19.356 18.2329-17.292 20.8598-17.292C23.5671-17.292 25.716-19.356 25.716-22.0633L25.716-44.4641C25.716-45.3307 26.3413-46.041 27.2125-46.041C28.0791-46.041 28.7894-45.3307 28.7894-44.4641L28.7894 24.0654C28.7894 27.0095 31.1796 29.4041 34.1282 29.4041C37.0722 29.4041 39.4624 27.0095 39.4624 24.0654L39.4624-17.9039C39.4624-18.7706 40.1682-19.4764 41.0393-19.4764C41.8211-19.4764 42.5269-18.7706 42.5269-17.9039L42.5269 24.0654C42.5269 27.0095 44.917 29.4041 47.8656 29.4041C50.8097 29.4041 53.1998 27.0095 53.1998 24.0654L53.1998-44.4641C53.1998-45.3307 53.9101-46.041 54.7813-46.041C55.6479-46.041 56.3582-45.3307 56.3582-44.4641L56.3582-22.0633C56.3582-19.356 58.4222-17.292 61.134-17.292C63.7564-17.292 65.9053-19.356 65.9053-22.0633L65.9053-47.0195C65.9053-59.5556 56.7199-67.9503 44.5059-67.9503L37.4833-67.9503C25.2694-67.9503 16.084-59.5556 16.084-47.0195ZM41.0393-75.1881C47.8211-75.1881 53.3341-80.6966 53.3341-87.5678C53.3341-94.3496 47.8211-99.8626 41.0393-99.8626C34.1681-99.8626 28.6596-94.3496 28.6596-87.5678C28.6596-80.6966 34.1681-75.1881 41.0393-75.1881Z"/>
  </g>
  <g id="Black-M" transform="matrix(1 0 0 1 2893.99 1126)">
   <path d="M12.4609-22.848C12.4609-19.7832 14.9129-17.2739 17.9725-17.2739C21.0374-17.2739 23.5464-19.7832 23.5464-22.848L23.5464-42.8913C23.5464-43.5986 24.1239-44.1758 24.8257-44.1758C25.533-44.1758 26.1103-43.5986 26.1103-42.8913L26.1103 18.4143C26.1103 21.7857 28.7491 24.4191 32.1151 24.4191C35.4294 24.4191 38.1254 21.7286 38.1254 18.4143L38.1254-19.124C38.1254-19.8313 38.7081-20.414 39.4099-20.414C40.1175-20.414 40.7002-19.8313 40.7002-19.124L40.7002 18.4143C40.7002 21.7286 43.3961 24.4191 46.705 24.4191C50.0765 24.4191 52.7153 21.7857 52.7153 18.4143L52.7153-42.8913C52.7153-43.5986 53.2925-44.1758 53.9943-44.1758C54.7017-44.1758 55.2789-43.5986 55.2789-42.8913L55.2789-22.848C55.2789-19.7832 57.7882-17.2739 60.8476-17.2739C63.9127-17.2739 66.3646-19.7832 66.3646-22.848L66.3646-45.2495C66.3646-57.3109 56.8388-65.3407 43.6666-65.3407L35.159-65.3407C21.9867-65.3407 12.4609-57.3109 12.4609-45.2495ZM39.4099-70.3771C46.1991-70.3771 51.7411-75.9246 51.7411-82.708C51.7411-89.4972 46.1991-95.0392 39.4099-95.0392C32.6265-95.0392 27.079-89.4972 27.079-82.708C27.079-75.9246 32.6265-70.3771 39.4099-70.3771Z"/>
  </g>
  <g id="Heavy-M" transform="matrix(1 0 0 1 2598.21 1126)">
   <path d="M12.4609-23.1803C12.4609-20.2655 14.7923-17.8928 17.6884-17.8928C20.6031-17.8928 22.9781-20.2655 22.9781-23.1803L22.9781-42.9279C22.9781-43.6789 23.5858-44.2889 24.3204-44.2889C25.0714-44.2889 25.6813-43.6789 25.6813-42.9279L25.6813 17.3388C25.6813 20.5441 28.1996 23.046 31.3885 23.046C34.5502 23.046 37.1121 20.5005 37.1121 17.3388L37.1121-19.5094C37.1121-20.2604 37.7385-20.8868 38.4731-20.8868C39.2218-20.8868 39.8482-20.2604 39.8482-19.5094L39.8482 17.3388C39.8482 20.5005 42.4101 23.046 45.5554 23.046C48.7607 23.046 51.279 20.5441 51.279 17.3388L51.279-42.9279C51.279-43.6789 51.8889-44.2889 52.6235-44.2889C53.3745-44.2889 53.9845-43.6789 53.9845-42.9279L53.9845-23.1803C53.9845-20.2655 56.3572-17.8928 59.2555-17.8928C62.168-17.8928 64.4994-20.2655 64.4994-23.1803L64.4994-45.2491C64.4994-57.0167 55.3597-64.8297 42.5676-64.8297L34.3927-64.8297C21.6006-64.8297 12.4609-57.0167 12.4609-45.2491ZM38.4731-70.0009C45.0564-70.0009 50.4028-75.3637 50.4028-81.9329C50.4028-88.5163 45.0564-93.8626 38.4731-93.8626C31.9039-93.8626 26.5411-88.5163 26.5411-81.9329C26.5411-75.3637 31.9039-70.0009 38.4731-70.0009Z"/>
  </g>
  <g id="Bold-M" transform="matrix(1 0 0 1 2302.54 1126)">
   <path d="M12.4609-23.5519C12.4609-20.8051 14.6574-18.5852 17.3705-18.5852C20.1174-18.5852 22.3424-20.8051 22.3424-23.5519L22.3424-42.969C22.3424-43.7688 22.9839-44.4154 23.7551-44.4154C24.5549-44.4154 25.2015-43.7688 25.2015-42.969L25.2015 16.1357C25.2015 19.1552 27.5849 21.5099 30.5758 21.5099C33.5667 21.5099 35.9787 19.1266 35.9787 16.1357L35.9787-19.9406C35.9787-20.7404 36.6539-21.4157 37.4251-21.4157C38.2198-21.4157 38.8951-20.7404 38.8951-19.9406L38.8951 16.1357C38.8951 19.1266 41.307 21.5099 44.2693 21.5099C47.2888 21.5099 49.6722 19.1552 49.6722 16.1357L49.6722-42.969C49.6722-43.7688 50.3188-44.4154 51.09-44.4154C51.8899-44.4154 52.5365-43.7688 52.5365-42.969L52.5365-23.5519C52.5365-20.8051 54.7564-18.5852 57.4746-18.5852C60.2163-18.5852 62.4128-20.8051 62.4128-23.5519L62.4128-45.2485C62.4128-56.6876 53.7051-64.2582 41.3382-64.2582L33.5355-64.2582C21.1686-64.2582 12.4609-56.6876 12.4609-45.2485ZM37.4251-69.5801C43.7782-69.5801 48.9057-74.7363 48.9057-81.0658C48.9057-87.4189 43.7782-92.5464 37.4251-92.5464C31.0955-92.5464 25.9394-87.4189 25.9394-81.0658C25.9394-74.7363 31.0955-69.5801 37.4251-69.5801Z"/>
  </g>
  <g id="Semibold-M" transform="matrix(1 0 0 1 2006.55 1126)">
   <path d="M12.4609-23.8081C12.4609-21.177 14.5644-19.0625 17.1514-19.0625C19.7825-19.0625 21.9041-21.177 21.9041-23.8081L21.9041-42.9973C21.9041-43.8308 22.5689-44.5027 23.3654-44.5027C24.1989-44.5027 24.8708-43.8308 24.8708-42.9973L24.8708 15.3063C24.8708 18.1977 27.1612 20.451 30.0155 20.451C32.8887 20.451 35.1973 18.1795 35.1973 15.3063L35.1973-20.2378C35.1973-21.0714 35.9062-21.7803 36.7027-21.7803C37.5291-21.7803 38.238-21.0714 38.238-20.2378L38.238 15.3063C38.238 18.1795 40.5465 20.451 43.3827 20.451C46.2741 20.451 48.5645 18.1977 48.5645 15.3063L48.5645-42.9973C48.5645-43.8308 49.2364-44.5027 50.0328-44.5027C50.8664-44.5027 51.5382-43.8308 51.5382-42.9973L51.5382-23.8081C51.5382-21.177 53.6528-19.0625 56.2468-19.0625C58.8709-19.0625 60.9743-21.177 60.9743-23.8081L60.9743-45.2481C60.9743-56.4608 52.5644-63.8642 40.4907-63.8642L32.9446-63.8642C20.8708-63.8642 12.4609-56.4608 12.4609-45.2481ZM36.7027-69.29C42.897-69.29 47.8736-74.3037 47.8736-80.4681C47.8736-86.6624 42.897-91.6391 36.7027-91.6391C30.5383-91.6391 25.5246-86.6624 25.5246-80.4681C25.5246-74.3037 30.5383-69.29 36.7027-69.29Z"/>
  </g>
  <g id="Medium-M" transform="matrix(1 0 0 1 1710.38 1126)">
   <path d="M12.4609-24.0024C12.4609-21.4591 14.4939-19.4244 16.9852-19.4244C19.5286-19.4244 21.5718-21.4591 21.5718-24.0024L21.5718-43.0187C21.5718-43.8778 22.2542-44.5688 23.0699-44.5688C23.9289-44.5688 24.62-43.8778 24.62-43.0187L24.62 14.6774C24.62 17.4716 26.8398 19.6481 29.5907 19.6481C32.3746 19.6481 34.6048 17.4614 34.6048 14.6774L34.6048-20.4632C34.6048-21.3223 35.3392-22.0567 36.1549-22.0567C37.0053-22.0567 37.7398-21.3223 37.7398-20.4632L37.7398 14.6774C37.7398 17.4614 39.9699 19.6481 42.7105 19.6481C45.5047 19.6481 47.7246 17.4716 47.7246 14.6774L47.7246-43.0187C47.7246-43.8778 48.4156-44.5688 49.2313-44.5688C50.0903-44.5688 50.7813-43.8778 50.7813-43.0187L50.7813-24.0024C50.7813-21.4591 52.816-19.4244 55.3159-19.4244C57.8507-19.4244 59.8836-21.4591 59.8836-24.0024L59.8836-45.2479C59.8836-56.2888 51.6995-63.5654 39.848-63.5654L32.4965-63.5654C20.645-63.5654 12.4609-56.2888 12.4609-45.2479ZM36.1549-69.07C42.2288-69.07 47.0911-73.9757 47.0911-80.0148C47.0911-86.0888 42.2288-90.951 36.1549-90.951C30.1157-90.951 25.2101-86.0888 25.2101-80.0148C25.2101-73.9757 30.1157-69.07 36.1549-69.07Z"/>
  </g>
  <g id="Regular-M" transform="matrix(1 0 0 1 1414.38 1126)">
   <path d="M12.4609-24.2558C12.4609-21.8269 14.4019-19.8965 16.7685-19.8965C19.1974-19.8965 21.1384-21.8269 21.1384-24.2558L21.1384-43.0467C21.1384-43.9391 21.8438-44.6551 22.6844-44.6551C23.5768-44.6551 24.2928-43.9391 24.2928-43.0467L24.2928 13.8571C24.2928 16.5246 26.4207 18.6008 29.0365 18.6008C31.7041 18.6008 33.832 16.5246 33.832 13.8571L33.832-20.7572C33.832-21.6496 34.5997-22.4173 35.4404-22.4173C36.3222-22.4173 37.0899-21.6496 37.0899-20.7572L37.0899 13.8571C37.0899 16.5246 39.2178 18.6008 41.8336 18.6008C44.5012 18.6008 46.6291 16.5246 46.6291 13.8571L46.6291-43.0467C46.6291-43.9391 47.3451-44.6551 48.1857-44.6551C49.0781-44.6551 49.7941-43.9391 49.7941-43.0467L49.7941-24.2558C49.7941-21.8269 51.7245-19.8965 54.1016-19.8965C56.52-19.8965 58.461-21.8269 58.461-24.2558L58.461-45.2475C58.461-56.0644 50.5714-63.1757 39.0098-63.1757L31.9121-63.1757C20.3505-63.1757 12.4609-56.0644 12.4609-45.2475ZM35.4404-68.7831C41.3573-68.7831 46.0703-73.5479 46.0703-79.4237C46.0703-85.3406 41.3573-90.0536 35.4404-90.0536C29.5646-90.0536 24.7998-85.3406 24.7998-79.4237C24.7998-73.5479 29.5646-68.7831 35.4404-68.7831Z"/>
  </g>
  <g id="Light-M" transform="matrix(1 0 0 1 1118.82 1126)">
   <path d="M12.4609-24.4954C12.4609-22.1692 14.3164-20.3414 16.5803-20.3414C18.9065-20.3414 20.7619-22.1692 20.7619-24.4954L20.7619-42.8414C20.7619-43.6653 21.399-44.33 22.1882-44.33C23.0122-44.33 23.6768-43.6653 23.6768-42.8414L23.6768 12.8818C23.6768 15.4295 25.7192 17.4372 28.2323 17.4372C30.7801 17.4372 32.8224 15.4295 32.8224 12.8818L32.8224-21.0823C32.8224-21.9062 33.5217-22.6056 34.311-22.6056C35.1073-22.6056 35.8066-21.9062 35.8066-21.0823L35.8066 12.8818C35.8066 15.4295 37.849 17.4372 40.3621 17.4372C42.9099 17.4372 44.9522 15.4295 44.9522 12.8818L44.9522-42.8414C44.9522-43.6653 45.6169-44.33 46.4062-44.33C47.2301-44.33 47.8948-43.6653 47.8948-42.8414L47.8948-24.4954C47.8948-22.1692 49.7225-20.3414 52.0141-20.3414C54.3127-20.3414 56.1681-22.1692 56.1681-24.4954L56.1681-44.9737C56.1681-55.4484 48.5181-62.3715 37.6067-62.3715L31.0223-62.3715C20.111-62.3715 12.4609-55.4484 12.4609-44.9737ZM34.311-67.9789C40.0226-67.9789 44.5988-72.5897 44.5988-78.2943C44.5988-84.0059 40.0226-88.5821 34.311-88.5821C28.6064-88.5821 23.9956-84.0059 23.9956-78.2943C23.9956-72.5897 28.6064-67.9789 34.311-67.9789Z"/>
  </g>
  <g id="Thin-M" transform="matrix(1 0 0 1 823.624 1126)">
   <path d="M12.4609-24.8122C12.4609-22.6218 14.2032-20.9298 16.3314-20.9298C18.5218-20.9298 20.2641-22.6218 20.2641-24.8122L20.2641-42.5698C20.2641-43.3032 20.8106-43.9 21.5319-43.9C22.2653-43.9 22.8621-43.3032 22.8621-42.5698L22.8621 11.5918C22.8621 13.9812 24.7913 15.8984 27.1687 15.8984C29.558 15.8984 31.4872 13.9812 31.4872 11.5918L31.4872-21.5123C31.4872-22.2457 32.096-22.8545 32.8174-22.8545C33.5005-22.8545 34.1093-22.2457 34.1093-21.5123L34.1093 11.5918C34.1093 13.9812 36.0385 15.8984 38.4159 15.8984C40.8052 15.8984 42.7344 13.9812 42.7344 11.5918L42.7344-42.5698C42.7344-43.3032 43.3312-43.9 44.0526-43.9C44.786-43.9 45.3828-43.3032 45.3828-42.5698L45.3828-24.8122C45.3828-22.6218 47.0748-20.9298 49.2532-20.9298C51.3933-20.9298 53.1356-22.6218 53.1356-24.8122L53.1356-44.6116C53.1356-54.6337 45.8024-61.3078 35.751-61.3078L29.8455-61.3078C19.7941-61.3078 12.4609-54.6337 12.4609-44.6116ZM32.8174-66.9153C38.2575-66.9153 42.6526-71.3224 42.6526-76.8007C42.6526-82.2408 38.2575-86.6359 32.8174-86.6359C27.3391-86.6359 22.932-82.2408 22.932-76.8007C22.932-71.3224 27.3391-66.9153 32.8174-66.9153Z"/>
  </g>
  <g id="Ultralight-M" transform="matrix(1 0 0 1 527.689 1126)">
   <path d="M12.4609-24.9745C12.4609-22.8536 14.1453-21.2311 16.2038-21.2311C18.3247-21.2311 20.0091-22.8536 20.0091-24.9745L20.0091-42.4307C20.0091-43.1178 20.5092-43.6798 21.1958-43.6798C21.8828-43.6798 22.4448-43.1178 22.4448-42.4307L22.4448 10.9311C22.4448 13.2393 24.3161 15.1102 26.6239 15.1102C28.9321 15.1102 30.8033 13.2393 30.8033 10.9311L30.8033-21.7325C30.8033-22.4196 31.3658-22.982 32.0524-22.982C32.6775-22.982 33.24-22.4196 33.24-21.7325L33.24 10.9311C33.24 13.2393 35.1112 15.1102 37.419 15.1102C39.7272 15.1102 41.5985 13.2393 41.5985 10.9311L41.5985-42.4307C41.5985-43.1178 42.1605-43.6798 42.8471-43.6798C43.5341-43.6798 44.0961-43.1178 44.0961-42.4307L44.0961-24.9745C44.0961-22.8536 45.7186-21.2311 47.839-21.2311C49.898-21.2311 51.5824-22.8536 51.5824-24.9745L51.5824-44.4262C51.5824-54.2164 44.4114-60.763 34.8005-60.763L29.2428-60.763C19.6319-60.763 12.4609-54.2164 12.4609-44.4262ZM32.0524-66.3705C37.3533-66.3705 41.6557-70.6733 41.6557-76.0357C41.6557-81.3366 37.3533-85.639 32.0524-85.639C26.69-85.639 22.3872-81.3366 22.3872-76.0357C22.3872-70.6733 26.69-66.3705 32.0524-66.3705Z"/>
  </g>
  <g id="Black-S" transform="matrix(1 0 0 1 2902.3 696)">
   <path d="M9.76562-25.4395C9.76562-22.998 11.7188-20.9961 14.1602-20.9961C16.6016-20.9961 18.6035-22.998 18.6035-25.4395L18.6035-41.2109C18.6035-41.748 19.043-42.1875 19.5801-42.1875C20.1172-42.1875 20.5566-41.748 20.5566-41.2109L20.5566 7.08008C20.5566 9.76562 22.6562 11.8652 25.3418 11.8652C27.9785 11.8652 30.127 9.7168 30.127 7.08008L30.127-22.5098C30.127-23.0469 30.5664-23.4863 31.1035-23.4863C31.6406-23.4863 32.0801-23.0469 32.0801-22.5098L32.0801 7.08008C32.0801 9.7168 34.2285 11.8652 36.8652 11.8652C39.5508 11.8652 41.6504 9.76562 41.6504 7.08008L41.6504-41.2109C41.6504-41.748 42.0898-42.1875 42.627-42.1875C43.1641-42.1875 43.6035-41.748 43.6035-41.2109L43.6035-25.4395C43.6035-22.998 45.6055-20.9961 48.0469-20.9961C50.4883-20.9961 52.4414-22.998 52.4414-25.4395L52.4414-43.0664C52.4414-52.5879 44.873-58.9355 34.4727-58.9355L27.7344-58.9355C17.334-58.9355 9.76562-52.5879 9.76562-43.0664ZM31.1035-62.8418C36.4746-62.8418 40.8691-67.2363 40.8691-72.6074C40.8691-77.9785 36.4746-82.373 31.1035-82.373C25.7324-82.373 21.3379-77.9785 21.3379-72.6074C21.3379-67.2363 25.7324-62.8418 31.1035-62.8418Z"/>
  </g>
  <g id="Heavy-S" transform="matrix(1 0 0 1 2606.24 696)">
   <path d="M9.76562-25.693C9.76562-23.3668 11.6266-21.4686 13.9412-21.4686C16.2674-21.4686 18.1656-23.3668 18.1656-25.693L18.1656-41.2686C18.1656-41.8518 18.6396-42.3258 19.2113-42.3258C19.7945-42.3258 20.2685-41.8518 20.2685-41.2686L20.2685 6.28489C20.2685 8.84367 22.2759 10.8396 24.8232 10.8396C27.3447 10.8396 29.3894 8.80636 29.3894 6.28489L29.3894-22.7979C29.3894-23.3811 29.8749-23.8666 30.4466-23.8666C31.0298-23.8666 31.5154-23.3811 31.5154-22.7979L31.5154 6.28489C31.5154 8.80636 33.5601 10.8396 36.07 10.8396C38.6288 10.8396 40.6362 8.84367 40.6362 6.28489L40.6362-41.2686C40.6362-41.8518 41.1103-42.3258 41.6819-42.3258C42.2652-42.3258 42.7392-41.8518 42.7392-41.2686L42.7392-25.693C42.7392-23.3668 44.6374-21.4686 46.9521-21.4686C49.2782-21.4686 51.1391-23.3668 51.1391-25.693L51.1391-43.101C51.1391-52.415 43.8704-58.6013 33.712-58.6013L27.1927-58.6013C17.0343-58.6013 9.76562-52.415 9.76562-43.101ZM30.4466-62.6228C35.6679-62.6228 39.9126-66.8791 39.9126-72.0888C39.9126-77.3101 35.6679-81.5548 30.4466-81.5548C25.2369-81.5548 20.9806-77.3101 20.9806-72.0888C20.9806-66.8791 25.2369-62.6228 30.4466-62.6228Z"/>
  </g>
  <g id="Bold-S" transform="matrix(1 0 0 1 2310.25 696)">
   <path d="M9.76562-25.9766C9.76562-23.7793 11.5234-21.9971 13.6963-21.9971C15.8936-21.9971 17.6758-23.7793 17.6758-25.9766L17.6758-41.333C17.6758-41.9678 18.1885-42.4805 18.7988-42.4805C19.4336-42.4805 19.9463-41.9678 19.9463-41.333L19.9463 5.39551C19.9463 7.8125 21.8506 9.69238 24.2432 9.69238C26.6357 9.69238 28.5645 7.78809 28.5645 5.39551L28.5645-23.1201C28.5645-23.7549 29.1016-24.292 29.7119-24.292C30.3467-24.292 30.8838-23.7549 30.8838-23.1201L30.8838 5.39551C30.8838 7.78809 32.8125 9.69238 35.1807 9.69238C37.5977 9.69238 39.502 7.8125 39.502 5.39551L39.502-41.333C39.502-41.9678 40.0146-42.4805 40.625-42.4805C41.2598-42.4805 41.7725-41.9678 41.7725-41.333L41.7725-25.9766C41.7725-23.7793 43.5547-21.9971 45.7275-21.9971C47.9248-21.9971 49.6826-23.7793 49.6826-25.9766L49.6826-43.1396C49.6826-52.2217 42.749-58.2275 32.8613-58.2275L26.5869-58.2275C16.6992-58.2275 9.76562-52.2217 9.76562-43.1396ZM29.7119-62.3779C34.7656-62.3779 38.8428-66.4795 38.8428-71.5088C38.8428-76.5625 34.7656-80.6396 29.7119-80.6396C24.6826-80.6396 20.5811-76.5625 20.5811-71.5088C20.5811-66.4795 24.6826-62.3779 29.7119-62.3779Z"/>
  </g>
  <g id="Semibold-S" transform="matrix(1 0 0 1 2014.04 696)">
   <path d="M9.76562-26.1721C9.76562-24.0637 11.4523-22.3614 13.5274-22.3614C15.6358-22.3614 17.3381-24.0637 17.3381-26.1721L17.3381-41.3774C17.3381-42.0478 17.8774-42.5871 18.5145-42.5871C19.1848-42.5871 19.7241-42.0478 19.7241-41.3774L19.7241 4.78232C19.7241 7.10156 21.5573 8.90146 23.8433 8.90146C26.147 8.90146 27.9957 7.08604 27.9957 4.78232L27.9957-23.3423C27.9957-24.0126 28.5684-24.5853 29.2054-24.5853C29.8757-24.5853 30.4483-24.0126 30.4483-23.3423L30.4483 4.78232C30.4483 7.08604 32.2971 8.90146 34.5675 8.90146C36.8867 8.90146 38.7199 7.10156 38.7199 4.78232L38.7199-41.3774C38.7199-42.0478 39.2593-42.5871 39.8963-42.5871C40.5666-42.5871 41.106-42.0478 41.106-41.3774L41.106-26.1721C41.106-24.0637 42.8082-22.3614 44.8833-22.3614C46.9917-22.3614 48.6784-24.0637 48.6784-26.1721L48.6784-43.1663C48.6784-52.0884 41.9759-57.9698 32.2748-57.9698L26.1692-57.9698C16.4682-57.9698 9.76562-52.0884 9.76562-43.1663ZM29.2054-62.2091C34.1436-62.2091 38.1052-66.204 38.1052-71.1089C38.1052-76.0471 34.1436-80.0087 29.2054-80.0087C24.3005-80.0087 20.3056-76.0471 20.3056-71.1089C20.3056-66.204 24.3005-62.2091 29.2054-62.2091Z"/>
  </g>
  <g id="Medium-S" transform="matrix(1 0 0 1 1717.71 696)">
   <path d="M9.76562-26.3203C9.76562-24.2793 11.3984-22.6377 13.3994-22.6377C15.4404-22.6377 17.082-24.2793 17.082-26.3203L17.082-41.4111C17.082-42.1084 17.6416-42.668 18.2988-42.668C18.9961-42.668 19.5557-42.1084 19.5557-41.4111L19.5557 4.31738C19.5557 6.5625 21.335 8.30176 23.54 8.30176C25.7764 8.30176 27.5645 6.55371 27.5645 4.31738L27.5645-23.5107C27.5645-24.208 28.1641-24.8076 28.8213-24.8076C29.5186-24.8076 30.1182-24.208 30.1182-23.5107L30.1182 4.31738C30.1182 6.55371 31.9062 8.30176 34.1025 8.30176C36.3477 8.30176 38.127 6.5625 38.127 4.31738L38.127-41.4111C38.127-42.1084 38.6865-42.668 39.3438-42.668C40.041-42.668 40.6006-42.1084 40.6006-41.4111L40.6006-26.3203C40.6006-24.2793 42.2422-22.6377 44.2432-22.6377C46.2842-22.6377 47.917-24.2793 47.917-26.3203L47.917-43.1865C47.917-51.9873 41.3896-57.7744 31.8301-57.7744L25.8525-57.7744C16.293-57.7744 9.76562-51.9873 9.76562-43.1865ZM28.8213-62.0811C33.6719-62.0811 37.5459-65.9951 37.5459-70.8057C37.5459-75.6562 33.6719-79.5303 28.8213-79.5303C24.0107-79.5303 20.0967-75.6562 20.0967-70.8057C20.0967-65.9951 24.0107-62.0811 28.8213-62.0811Z"/>
  </g>
  <g id="Regular-S" transform="matrix(1 0 0 1 1421.5 696)">
   <path d="M9.76562-26.5137C9.76562-24.5605 11.3281-22.998 13.2324-22.998C15.1855-22.998 16.748-24.5605 16.748-26.5137L16.748-41.4551C16.748-42.1875 17.334-42.7734 18.0176-42.7734C18.75-42.7734 19.3359-42.1875 19.3359-41.4551L19.3359 3.71094C19.3359 5.85938 21.0449 7.51953 23.1445 7.51953C25.293 7.51953 27.002 5.85938 27.002 3.71094L27.002-23.7305C27.002-24.4629 27.6367-25.0977 28.3203-25.0977C29.0527-25.0977 29.6875-24.4629 29.6875-23.7305L29.6875 3.71094C29.6875 5.85938 31.3965 7.51953 33.4961 7.51953C35.6445 7.51953 37.3535 5.85938 37.3535 3.71094L37.3535-41.4551C37.3535-42.1875 37.9395-42.7734 38.623-42.7734C39.3555-42.7734 39.9414-42.1875 39.9414-41.4551L39.9414-26.5137C39.9414-24.5605 41.5039-22.998 43.4082-22.998C45.3613-22.998 46.9238-24.5605 46.9238-26.5137L46.9238-43.2129C46.9238-51.8555 40.625-57.5195 31.25-57.5195L25.4395-57.5195C16.0645-57.5195 9.76562-51.8555 9.76562-43.2129ZM28.3203-61.9141C33.0566-61.9141 36.8164-65.7227 36.8164-70.4102C36.8164-75.1465 33.0566-78.9062 28.3203-78.9062C23.6328-78.9062 19.8242-75.1465 19.8242-70.4102C19.8242-65.7227 23.6328-61.9141 28.3203-61.9141Z"/>
  </g>
  <g id="Light-S" transform="matrix(1 0 0 1 1125.8 696)">
   <path d="M9.76562-26.7256C9.76562-24.8633 11.2524-23.3916 13.0659-23.3916C14.9282-23.3916 16.415-24.8633 16.415-26.7256L16.415-41.2734C16.415-41.9453 16.9404-42.4858 17.5786-42.4858C18.2505-42.4858 18.791-41.9453 18.791-41.2734L18.791 2.84815C18.791 4.89063 20.4243 6.49024 22.4331 6.49024C24.4756 6.49024 26.1089 4.89063 26.1089 2.84815L26.1089-24.0181C26.1089-24.6899 26.6831-25.2642 27.3213-25.2642C27.978-25.2642 28.5523-24.6899 28.5523-24.0181L28.5523 2.84815C28.5523 4.89063 30.1856 6.49024 32.1943 6.49024C34.2368 6.49024 35.8701 4.89063 35.8701 2.84815L35.8701-41.2734C35.8701-41.9453 36.4107-42.4858 37.0488-42.4858C37.7207-42.4858 38.2612-41.9453 38.2612-41.2734L38.2612-26.7256C38.2612-24.8633 39.7329-23.3916 41.5615-23.3916C43.4087-23.3916 44.8955-24.8633 44.8955-26.7256L44.8955-42.9707C44.8955-51.3106 38.8086-56.8081 30.0088-56.8081L24.6523-56.8081C15.8525-56.8081 9.76562-51.3106 9.76562-42.9707ZM27.3213-61.2026C31.876-61.2026 35.5147-64.875 35.5147-69.4111C35.5147-73.9658 31.876-77.6045 27.3213-77.6045C22.7852-77.6045 19.1128-73.9658 19.1128-69.4111C19.1128-64.875 22.7852-61.2026 27.3213-61.2026Z"/>
  </g>
  <g id="Thin-S" transform="matrix(1 0 0 1 830.433 696)">
   <path d="M9.76562-27.0059C9.76562-25.2637 11.1523-23.9121 12.8457-23.9121C14.5879-23.9121 15.9746-25.2637 15.9746-27.0059L15.9746-41.0332C15.9746-41.625 16.4199-42.1055 16.9981-42.1055C17.5899-42.1055 18.0703-41.625 18.0703-41.0332L18.0703 1.70705C18.0703 3.60939 19.6035 5.12893 21.4922 5.12893C23.3945 5.12893 24.9278 3.60939 24.9278 1.70705L24.9278-24.3984C24.9278-24.9902 25.4219-25.4844 26-25.4844C26.5567-25.4844 27.0508-24.9902 27.0508-24.3984L27.0508 1.70705C27.0508 3.60939 28.584 5.12893 30.4727 5.12893C32.375 5.12893 33.9082 3.60939 33.9082 1.70705L33.9082-41.0332C33.9082-41.625 34.3887-42.1055 34.9668-42.1055C35.5586-42.1055 36.0391-41.625 36.0391-41.0332L36.0391-27.0059C36.0391-25.2637 37.3907-23.9121 39.1192-23.9121C40.8262-23.9121 42.2129-25.2637 42.2129-27.0059L42.2129-42.6504C42.2129-50.5899 36.4063-55.8672 28.3672-55.8672L23.6113-55.8672C15.5723-55.8672 9.76562-50.5899 9.76562-42.6504ZM26-60.2617C30.3145-60.2617 33.793-63.7539 33.793-68.0899C33.793-72.4043 30.3145-75.8828 26-75.8828C21.6641-75.8828 18.1719-72.4043 18.1719-68.0899C18.1719-63.7539 21.6641-60.2617 26-60.2617Z"/>
  </g>
  <g id="Ultralight-S" transform="matrix(1 0 0 1 534.409 696)">
   <path d="M9.76562-27.1494C9.76562-25.4687 11.1011-24.1787 12.7329-24.1787C14.4136-24.1787 15.749-25.4687 15.749-27.1494L15.749-40.9102C15.749-41.4609 16.1533-41.9107 16.7007-41.9107C17.2515-41.9107 17.7012-41.4609 17.7012-40.9102L17.7012 1.12258C17.7012 2.95315 19.1831 4.43166 21.0103 4.43166C22.8408 4.43166 24.3228 2.95315 24.3228 1.12258L24.3228-24.5933C24.3228-25.144 24.7759-25.5972 25.3233-25.5972C25.8286-25.5972 26.2818-25.144 26.2818-24.5933L26.2818 1.12258C26.2818 2.95315 27.7637 4.43166 29.5909 4.43166C31.4214 4.43166 32.9034 2.95315 32.9034 1.12258L32.9034-40.9102C32.9034-41.4609 33.3531-41.9107 33.9004-41.9107C34.4512-41.9107 34.9009-41.4609 34.9009-40.9102L34.9009-27.1494C34.9009-25.4687 36.191-24.1787 37.8682-24.1787C39.5035-24.1787 40.8389-25.4687 40.8389-27.1494L40.8389-42.4863C40.8389-50.2207 35.1758-55.3853 27.5264-55.3853L23.0781-55.3853C15.4287-55.3853 9.76562-50.2207 9.76562-42.4863ZM25.3233-59.7798C29.5147-59.7798 32.9112-63.1797 32.9112-67.4131C32.9112-71.6045 29.5147-75.001 25.3233-75.001C21.0899-75.001 17.69-71.6045 17.69-67.4131C17.69-63.1797 21.0899-59.7798 25.3233-59.7798Z"/>
  </g>
 </g>
</svg>
