<?xml version="1.0" encoding="UTF-8"?>
<!--Generator: Apple Native CoreSVG 175.5-->
<!DOCTYPE svg
PUBLIC "-//W3C//DTD SVG 1.1//EN"
       "http://www.w3.org/Graphics/SVG/1.1/DTD/svg11.dtd">
<svg version="1.1" xmlns="http://www.w3.org/2000/svg" xmlns:xlink="http://www.w3.org/1999/xlink" width="3300" height="2200">
 <!--glyph: "uni1002B4.medium", point size: 100.0, font version: "18.0d10e1", template writer version: "90"-->
 <g id="Notes">
  <rect height="2200" id="artboard" style="fill:white;opacity:1" width="3300" x="0" y="0"/>
  <line style="fill:none;stroke:black;opacity:1;stroke-width:0.5;" x1="263" x2="3036" y1="292" y2="292"/>
  <text style="stroke:none;fill:black;font-family:sans-serif;font-size:13;font-weight:bold;" transform="matrix(1 0 0 1 263 322)">Weight/Scale Variations</text>
  <text style="stroke:none;fill:black;font-family:sans-serif;font-size:13;text-anchor:middle;" transform="matrix(1 0 0 1 559.711 322)">Ultralight</text>
  <text style="stroke:none;fill:black;font-family:sans-serif;font-size:13;text-anchor:middle;" transform="matrix(1 0 0 1 856.422 322)">Thin</text>
  <text style="stroke:none;fill:black;font-family:sans-serif;font-size:13;text-anchor:middle;" transform="matrix(1 0 0 1 1153.13 322)">Light</text>
  <text style="stroke:none;fill:black;font-family:sans-serif;font-size:13;text-anchor:middle;" transform="matrix(1 0 0 1 1449.84 322)">Regular</text>
  <text style="stroke:none;fill:black;font-family:sans-serif;font-size:13;text-anchor:middle;" transform="matrix(1 0 0 1 1746.56 322)">Medium</text>
  <text style="stroke:none;fill:black;font-family:sans-serif;font-size:13;text-anchor:middle;" transform="matrix(1 0 0 1 2043.27 322)">Semibold</text>
  <text style="stroke:none;fill:black;font-family:sans-serif;font-size:13;text-anchor:middle;" transform="matrix(1 0 0 1 2339.98 322)">Bold</text>
  <text style="stroke:none;fill:black;font-family:sans-serif;font-size:13;text-anchor:middle;" transform="matrix(1 0 0 1 2636.69 322)">Heavy</text>
  <text style="stroke:none;fill:black;font-family:sans-serif;font-size:13;text-anchor:middle;" transform="matrix(1 0 0 1 2933.4 322)">Black</text>
  <line style="fill:none;stroke:black;opacity:1;stroke-width:0.5;" x1="263" x2="3036" y1="1903" y2="1903"/>
  <g transform="matrix(1 0 0 1 263 1933)">
   <path d="M9.24805 0.830078C13.5547 0.830078 17.1387-2.74414 17.1387-7.05078C17.1387-11.3574 13.5449-14.9316 9.23828-14.9316C4.94141-14.9316 1.36719-11.3574 1.36719-7.05078C1.36719-2.74414 4.95117 0.830078 9.24805 0.830078ZM9.24805-0.654297C5.70312-0.654297 2.87109-3.49609 2.87109-7.05078C2.87109-10.6055 5.69336-13.4473 9.23828-13.4473C12.793-13.4473 15.6445-10.6055 15.6445-7.05078C15.6445-3.49609 12.8027-0.654297 9.24805-0.654297ZM5.6543-7.05078C5.6543-6.62109 5.95703-6.32812 6.40625-6.32812L8.50586-6.32812L8.50586-4.20898C8.50586-3.76953 8.79883-3.4668 9.22852-3.4668C9.67773-3.4668 9.9707-3.76953 9.9707-4.20898L9.9707-6.32812L12.0898-6.32812C12.5293-6.32812 12.832-6.62109 12.832-7.05078C12.832-7.49023 12.5293-7.79297 12.0898-7.79297L9.9707-7.79297L9.9707-9.90234C9.9707-10.3516 9.67773-10.6543 9.22852-10.6543C8.79883-10.6543 8.50586-10.3516 8.50586-9.90234L8.50586-7.79297L6.40625-7.79297C5.95703-7.79297 5.6543-7.49023 5.6543-7.05078Z"/>
  </g>
  <g transform="matrix(1 0 0 1 281.867 1933)">
   <path d="M11.709 2.91016C17.1582 2.91016 21.6699-1.61133 21.6699-7.05078C21.6699-12.5 17.1484-17.0117 11.6992-17.0117C6.25977-17.0117 1.74805-12.5 1.74805-7.05078C1.74805-1.61133 6.26953 2.91016 11.709 2.91016ZM11.709 1.25C7.09961 1.25 3.41797-2.44141 3.41797-7.05078C3.41797-11.6602 7.08984-15.3516 11.6992-15.3516C16.3086-15.3516 20.0098-11.6602 20.0098-7.05078C20.0098-2.44141 16.3184 1.25 11.709 1.25ZM7.17773-7.05078C7.17773-6.57227 7.50977-6.25 8.00781-6.25L10.8789-6.25L10.8789-3.36914C10.8789-2.88086 11.2109-2.53906 11.6895-2.53906C12.1777-2.53906 12.5195-2.87109 12.5195-3.36914L12.5195-6.25L15.4004-6.25C15.8887-6.25 16.2305-6.57227 16.2305-7.05078C16.2305-7.53906 15.8887-7.88086 15.4004-7.88086L12.5195-7.88086L12.5195-10.752C12.5195-11.25 12.1777-11.5918 11.6895-11.5918C11.2109-11.5918 10.8789-11.25 10.8789-10.752L10.8789-7.88086L8.00781-7.88086C7.50977-7.88086 7.17773-7.53906 7.17773-7.05078Z"/>
  </g>
  <g transform="matrix(1 0 0 1 305.646 1933)">
   <path d="M14.9707 5.66406C21.9336 5.66406 27.6953-0.0976562 27.6953-7.05078C27.6953-14.0137 21.9238-19.7754 14.9609-19.7754C8.00781-19.7754 2.25586-14.0137 2.25586-7.05078C2.25586-0.0976562 8.01758 5.66406 14.9707 5.66406ZM14.9707 3.84766C8.93555 3.84766 4.08203-1.01562 4.08203-7.05078C4.08203-13.0957 8.92578-17.9492 14.9609-17.9492C21.0059-17.9492 25.8691-13.0957 25.8691-7.05078C25.8691-1.01562 21.0156 3.84766 14.9707 3.84766ZM9.19922-7.05078C9.19922-6.5332 9.57031-6.17188 10.1172-6.17188L14.0625-6.17188L14.0625-2.2168C14.0625-1.67969 14.4336-1.29883 14.9512-1.29883C15.4883-1.29883 15.8594-1.66992 15.8594-2.2168L15.8594-6.17188L19.8145-6.17188C20.3516-6.17188 20.7324-6.5332 20.7324-7.05078C20.7324-7.59766 20.3613-7.96875 19.8145-7.96875L15.8594-7.96875L15.8594-11.9141C15.8594-12.4609 15.4883-12.8418 14.9512-12.8418C14.4336-12.8418 14.0625-12.4609 14.0625-11.9141L14.0625-7.96875L10.1172-7.96875C9.57031-7.96875 9.19922-7.59766 9.19922-7.05078Z"/>
  </g>
  <text style="stroke:none;fill:black;font-family:sans-serif;font-size:13;font-weight:bold;" transform="matrix(1 0 0 1 263 1953)">Design Variations</text>
  <text style="stroke:none;fill:black;font-family:sans-serif;font-size:13;" transform="matrix(1 0 0 1 263 1971)">Symbols are supported in up to nine weights and three scales.</text>
  <text style="stroke:none;fill:black;font-family:sans-serif;font-size:13;" transform="matrix(1 0 0 1 263 1989)">For optimal layout with text and other symbols, vertically align</text>
  <text style="stroke:none;fill:black;font-family:sans-serif;font-size:13;" transform="matrix(1 0 0 1 263 2007)">symbols with the adjacent text.</text>
  <line style="fill:none;stroke:#00AEEF;stroke-width:0.5;opacity:1.0;" x1="776" x2="776" y1="1919" y2="1933"/>
  <g transform="matrix(1 0 0 1 776 1933)">
   <path d="M3.31055 0.15625C3.82812 0.15625 4.08203-0.0390625 4.26758-0.585938L5.52734-4.0332L11.2891-4.0332L12.5488-0.585938C12.7344-0.0390625 12.9883 0.15625 13.4961 0.15625C14.0137 0.15625 14.3457-0.15625 14.3457-0.644531C14.3457-0.810547 14.3164-0.966797 14.2383-1.17188L9.6582-13.3691C9.43359-13.9648 9.0332-14.2676 8.4082-14.2676C7.80273-14.2676 7.39258-13.9746 7.17773-13.3789L2.59766-1.16211C2.51953-0.957031 2.49023-0.800781 2.49023-0.634766C2.49023-0.146484 2.80273 0.15625 3.31055 0.15625ZM6.00586-5.51758L8.37891-12.0898L8.42773-12.0898L10.8008-5.51758Z"/>
  </g>
  <line style="fill:none;stroke:#00AEEF;stroke-width:0.5;opacity:1.0;" x1="793.197" x2="793.197" y1="1919" y2="1933"/>
  <text style="stroke:none;fill:black;font-family:sans-serif;font-size:13;font-weight:bold;" transform="matrix(1 0 0 1 776 1953)">Margins</text>
  <text style="stroke:none;fill:black;font-family:sans-serif;font-size:13;" transform="matrix(1 0 0 1 776 1971)">Leading and trailing margins on the left and right side of each symbol</text>
  <text style="stroke:none;fill:black;font-family:sans-serif;font-size:13;" transform="matrix(1 0 0 1 776 1989)">can be adjusted by modifying the x-location of the margin guidelines.</text>
  <text style="stroke:none;fill:black;font-family:sans-serif;font-size:13;" transform="matrix(1 0 0 1 776 2007)">Modifications are automatically applied proportionally to all</text>
  <text style="stroke:none;fill:black;font-family:sans-serif;font-size:13;" transform="matrix(1 0 0 1 776 2025)">scales and weights.</text>
  <g transform="matrix(1 0 0 1 1289 1933)">
   <path d="M2.8418 1.86523L4.54102 3.57422C5.40039 4.44336 6.38672 4.38477 7.31445 3.35938L18.0078-8.42773L17.041-9.4043L6.42578 2.27539C6.07422 2.67578 5.74219 2.77344 5.27344 2.30469L4.10156 1.14258C3.63281 0.683594 3.74023 0.341797 4.14062-0.0195312L15.6152-10.8203L14.6387-11.7871L3.04688-0.898438C2.06055 0.0195312 1.98242 0.996094 2.8418 1.86523ZM9.25781-16.3281C8.83789-15.918 8.80859-15.3418 9.04297-14.9512C9.27734-14.5898 9.73633-14.3555 10.3809-14.5215C11.8457-14.8633 13.3691-14.9219 14.7949-13.9844L14.209-12.5293C13.8672-11.6992 14.043-11.1133 14.5801-10.5664L16.875-8.25195C17.3633-7.76367 17.7734-7.74414 18.3398-7.8418L19.4043-8.03711L20.0684-7.36328L20.0293-6.80664C19.9902-6.30859 20.1172-5.92773 20.6055-5.44922L21.3672-4.70703C21.8457-4.22852 22.4609-4.19922 22.9297-4.66797L25.8398-7.58789C26.3086-8.05664 26.2891-8.65234 25.8105-9.13086L25.0391-9.89258C24.5605-10.3711 24.1895-10.5273 23.7109-10.4883L23.1348-10.4395L22.4902-11.0742L22.7344-12.1973C22.8613-12.7637 22.7051-13.2031 22.1191-13.7891L19.9219-15.9766C16.582-19.2969 12.1484-19.2188 9.25781-16.3281ZM10.752-15.957C13.1836-17.7344 16.4746-17.4316 18.7012-15.2051L21.1328-12.793C21.3672-12.5586 21.4062-12.373 21.3379-12.0312L21.0156-10.5469L22.5195-9.0625L23.5059-9.12109C23.7598-9.13086 23.8379-9.11133 24.0332-8.91602L24.6094-8.33984L22.168-5.89844L21.5918-6.47461C21.3965-6.66992 21.3672-6.74805 21.377-7.01172L21.4453-7.98828L19.9512-9.47266L18.4277-9.21875C18.1055-9.15039 17.959-9.17969 17.7148-9.41406L15.7129-11.416C15.459-11.6504 15.4297-11.8164 15.5859-12.1875L16.4648-14.2773C14.9023-15.7324 12.8711-16.3574 10.8398-15.7617C10.6836-15.7227 10.625-15.8496 10.752-15.957Z"/>
  </g>
  <text style="stroke:none;fill:black;font-family:sans-serif;font-size:13;font-weight:bold;" transform="matrix(1 0 0 1 1289 1953)">Exporting</text>
  <text style="stroke:none;fill:black;font-family:sans-serif;font-size:13;" transform="matrix(1 0 0 1 1289 1971)">Symbols should be outlined when exporting to ensure the</text>
  <text style="stroke:none;fill:black;font-family:sans-serif;font-size:13;" transform="matrix(1 0 0 1 1289 1989)">design is preserved when submitting to Xcode.</text>
  <text id="template-version" style="stroke:none;fill:black;font-family:sans-serif;font-size:13;text-anchor:end;" transform="matrix(1 0 0 1 3036 1933)">Template v.2.0</text>
  <text style="stroke:none;fill:black;font-family:sans-serif;font-size:13;text-anchor:end;" transform="matrix(1 0 0 1 3036 1951)">Requires Xcode 12 or greater</text>
  <text id="descriptive-name" style="stroke:none;fill:black;font-family:sans-serif;font-size:13;text-anchor:end;" transform="matrix(1 0 0 1 3036 1969)">Generated from heart</text>
  <text style="stroke:none;fill:black;font-family:sans-serif;font-size:13;text-anchor:end;" transform="matrix(1 0 0 1 3036 1987)">Typeset at 100 points</text>
  <text style="stroke:none;fill:black;font-family:sans-serif;font-size:13;" transform="matrix(1 0 0 1 263 726)">Small</text>
  <text style="stroke:none;fill:black;font-family:sans-serif;font-size:13;" transform="matrix(1 0 0 1 263 1156)">Medium</text>
  <text style="stroke:none;fill:black;font-family:sans-serif;font-size:13;" transform="matrix(1 0 0 1 263 1586)">Large</text>
 </g>
 <g id="Guides">
  <g id="H-reference" style="fill:#27AAE1;stroke:none;" transform="matrix(1 0 0 1 339 696)">
   <path d="M0.993654 0L3.63775 0L29.3281-67.1323L30.0303-67.1323L30.0303-70.459L28.1226-70.459ZM11.6885-24.4799L46.9815-24.4799L46.2315-26.7285L12.4385-26.7285ZM55.1196 0L57.7637 0L30.6382-70.459L29.4326-70.459L29.4326-67.1323Z"/>
  </g>
  <line id="Baseline-S" style="fill:none;stroke:#27AAE1;opacity:1;stroke-width:0.5;" x1="263" x2="3036" y1="696" y2="696"/>
  <line id="Capline-S" style="fill:none;stroke:#27AAE1;opacity:1;stroke-width:0.5;" x1="263" x2="3036" y1="625.541" y2="625.541"/>
  <g id="H-reference" style="fill:#27AAE1;stroke:none;" transform="matrix(1 0 0 1 339 1126)">
   <path d="M0.993654 0L3.63775 0L29.3281-67.1323L30.0303-67.1323L30.0303-70.459L28.1226-70.459ZM11.6885-24.4799L46.9815-24.4799L46.2315-26.7285L12.4385-26.7285ZM55.1196 0L57.7637 0L30.6382-70.459L29.4326-70.459L29.4326-67.1323Z"/>
  </g>
  <line id="Baseline-M" style="fill:none;stroke:#27AAE1;opacity:1;stroke-width:0.5;" x1="263" x2="3036" y1="1126" y2="1126"/>
  <line id="Capline-M" style="fill:none;stroke:#27AAE1;opacity:1;stroke-width:0.5;" x1="263" x2="3036" y1="1055.54" y2="1055.54"/>
  <g id="H-reference" style="fill:#27AAE1;stroke:none;" transform="matrix(1 0 0 1 339 1556)">
   <path d="M0.993654 0L3.63775 0L29.3281-67.1323L30.0303-67.1323L30.0303-70.459L28.1226-70.459ZM11.6885-24.4799L46.9815-24.4799L46.2315-26.7285L12.4385-26.7285ZM55.1196 0L57.7637 0L30.6382-70.459L29.4326-70.459L29.4326-67.1323Z"/>
  </g>
  <line id="Baseline-L" style="fill:none;stroke:#27AAE1;opacity:1;stroke-width:0.5;" x1="263" x2="3036" y1="1556" y2="1556"/>
  <line id="Capline-L" style="fill:none;stroke:#27AAE1;opacity:1;stroke-width:0.5;" x1="263" x2="3036" y1="1485.54" y2="1485.54"/>
  <line id="left-margin" style="fill:none;stroke:#00AEEF;stroke-width:0.5;opacity:1.0;" x1="1388.91" x2="1388.91" y1="1030.79" y2="1150.12"/>
  <line id="right-margin" style="fill:none;stroke:#00AEEF;stroke-width:0.5;opacity:1.0;" x1="1510.78" x2="1510.78" y1="1030.79" y2="1150.12"/>
 </g>
 <g id="Symbols">
  <g id="Black-L" transform="matrix(1 0 0 1 2849.94 1556)">
   <path d="M16.084-52.5973C16.084-25.3672 38.9463 1.88516 73.1952 24.5348C76.967 27.0685 80.8726 29.4269 83.4579 29.4269C86.064 29.4269 89.9476 27.0685 93.7207 24.5348C127.968 1.88516 150.832-25.3672 150.832-52.5973C150.832-78.799 132.452-96.0272 111.151-96.0272C98.096-96.0272 88.9042-90.6235 83.4579-83.0344C78.0325-90.6027 68.8199-96.0272 55.7651-96.0272C34.4638-96.0272 16.084-78.799 16.084-52.5973ZM37.5836-52.8309C37.5836-66.1513 46.9208-75.4621 59.1903-75.4621C68.9826-75.4621 74.0408-70.1513 77.7621-65.1505C79.6134-62.5362 81.2774-61.2695 83.4579-61.2695C85.6592-61.2695 87.1428-62.557 89.0953-65.1505C93.0739-70.1681 97.954-75.4621 107.746-75.4621C120.015-75.4621 129.332-66.1513 129.332-52.8309C129.332-34.4057 111.264-11.9069 84.3106 6.02926C83.9445 6.27337 83.6992 6.41743 83.4579 6.41743C83.2167 6.41743 82.9714 6.27337 82.626 6.02926C55.6522-11.9069 37.5836-34.4057 37.5836-52.8309Z"/>
  </g>
  <g id="Heavy-L" transform="matrix(1 0 0 1 2554.44 1556)">
   <path d="M16.084-52.7213C16.084-25.6105 38.883 1.38919 73.3781 24.0272C76.5544 26.1578 79.9803 28.1545 82.2452 28.1545C84.5403 28.1545 87.9303 26.1578 91.1123 24.0272C125.602 1.38919 148.406-25.6105 148.406-52.7213C148.406-77.9365 130.781-94.8007 109.732-94.8007C97.0106-94.8007 87.7305-89.3396 82.2452-81.4929C76.79-89.3094 67.4797-94.8007 54.7581-94.8007C33.7095-94.8007 16.084-77.9365 16.084-52.7213ZM34.7446-52.8998C34.7446-67.0562 44.4772-76.854 57.3606-76.854C67.6227-76.854 73.1088-71.0597 76.9383-65.6942C78.7283-63.1313 80.2467-61.9926 82.2452-61.9926C84.2739-61.9926 85.6068-63.1615 87.5075-65.6942C91.5859-71.044 96.8979-76.854 107.16-76.854C120.038-76.854 129.746-67.0562 129.746-52.8998C129.746-33.2814 110.1-10.137 83.196 7.76793C82.7736 8.0495 82.4864 8.22609 82.2452 8.22609C82.0039 8.22609 81.7167 8.0495 81.3246 7.76793C54.39-10.137 34.7446-33.2814 34.7446-52.8998Z"/>
  </g>
  <g id="Bold-L" transform="matrix(1 0 0 1 2259.23 1556)">
   <path d="M16.084-52.8601C16.084-25.955 38.8657 0.692507 73.5265 23.2854C76.0099 24.9463 78.8589 26.5196 80.7467 26.5196C82.6725 26.5196 85.4702 24.9463 87.9669 23.2854C122.614 0.692507 145.409-25.955 145.409-52.8601C145.409-76.8833 128.684-93.2868 107.988-93.2868C95.6734-93.2868 86.2409-87.7266 80.7467-79.5275C75.2904-87.6887 65.82-93.2868 53.5058-93.2868C32.8094-93.2868 16.084-76.8833 16.084-52.8601ZM31.285-52.9769C31.285-68.1408 41.5243-78.553 55.1908-78.553C65.9622-78.553 71.986-72.2338 75.9685-66.348C77.6445-63.8987 78.9786-62.9138 80.7467-62.9138C82.5528-62.9138 83.7013-63.9367 85.4957-66.348C89.7045-72.1871 95.5692-78.553 106.341-78.553C119.994-78.553 130.208-68.1408 130.208-52.9769C130.208-32.0024 108.812-8.17061 81.7832 9.82262C81.314 10.1354 80.988 10.343 80.7467 10.343C80.5054 10.343 80.1794 10.1354 79.7482 9.82262C52.681-8.17061 31.285-32.0024 31.285-52.9769Z"/>
  </g>
  <g id="Semibold-L" transform="matrix(1 0 0 1 1963.55 1556)">
   <path d="M16.084-52.9558C16.084-26.1924 38.8538 0.212221 73.6289 22.774C75.6345 24.1111 78.0858 25.3926 79.7137 25.3926C81.3848 25.3926 83.7743 24.1111 85.7985 22.774C120.555 0.212221 143.343-26.1924 143.343-52.9558C143.343-76.1573 127.238-92.2431 106.785-92.2431C94.7515-92.2431 85.214-86.6147 79.7137-78.1726C74.2566-86.5713 64.6758-92.2431 52.6424-92.2431C32.1889-92.2431 16.084-76.1573 16.084-52.9558ZM28.9-53.0301C28.9-68.8885 39.4886-79.7242 53.6949-79.7242C64.8175-79.7242 71.2119-73.0433 75.3-66.7987C76.8973-64.4278 78.1043-63.549 79.7137-63.549C81.3663-63.549 82.3876-64.4712 84.1088-66.7987C88.4075-72.9751 94.6532-79.7242 105.776-79.7242C119.964-79.7242 130.527-68.8885 130.527-53.0301C130.527-31.1206 107.924-6.81497 80.8091 11.2391C80.3077 11.5734 79.9549 11.8024 79.7137 11.8024C79.4724 11.8024 79.1196 11.5734 78.6615 11.2391C51.5029-6.81497 28.9-31.1206 28.9-53.0301Z"/>
  </g>
  <g id="Medium-L" transform="matrix(1 0 0 1 1667.63 1556)">
   <path d="M16.084-53.0283C16.084-26.3725 38.8448-0.151952 73.7064 22.3862C75.3499 23.4779 77.4997 24.538 78.9304 24.538C80.4085 24.538 82.4884 23.4779 84.1543 22.3862C118.993-0.151952 141.777-26.3725 141.777-53.0283C141.777-75.6067 126.142-91.4517 105.873-91.4517C94.0525-91.4517 84.4354-85.7716 78.9304-77.1453C73.4728-85.7241 63.8082-91.4517 51.9878-91.4517C31.7184-91.4517 16.084-75.6067 16.084-53.0283ZM27.0916-53.0704C27.0916-69.4554 37.945-80.6123 52.5606-80.6123C63.9495-80.6123 70.625-73.657 74.7931-67.1404C76.3308-64.829 77.4415-64.0305 78.9304-64.0305C80.4667-64.0305 81.3916-64.8764 83.0571-67.1404C87.4241-73.5726 93.9586-80.6123 105.348-80.6123C119.941-80.6123 130.769-69.4554 130.769-53.0704C130.769-30.452 107.251-5.78706 80.0706 12.3131C79.5447 12.6638 79.1716 12.909 78.9304 12.909C78.6891 12.909 78.316 12.6638 77.8375 12.3131C50.6095-5.78706 27.0916-30.452 27.0916-53.0704Z"/>
  </g>
  <g id="Regular-L" transform="matrix(1 0 0 1 1371.94 1556)">
   <path d="M16.084-53.1229C16.084-26.6073 38.833-0.626961 73.8076 21.8804C74.9786 22.6519 76.7351 23.4233 77.9087 23.4233C79.135 23.4233 80.811 22.6519 82.0097 21.8804C116.957-0.626961 139.733-26.6073 139.733-53.1229C139.733-74.8887 124.713-90.4195 104.683-90.4195C93.1408-90.4195 83.4198-84.6719 77.9087-75.8053C72.4503-84.6191 62.6765-90.4195 51.1339-90.4195C31.1047-90.4195 16.084-74.8887 16.084-53.1229ZM24.7328-53.1229C24.7328-70.1949 35.9316-81.7707 51.0812-81.7707C62.8174-81.7707 69.8594-74.4575 74.1319-67.5862C75.5918-65.3522 76.5768-64.6587 77.9087-64.6587C79.2933-64.6587 80.0924-65.405 81.6855-67.5862C86.1413-74.352 93.0527-81.7707 104.789-81.7707C119.911-81.7707 131.084-70.1949 131.084-53.1229C131.084-29.5799 106.373-4.44632 79.1073 13.7141C78.5495 14.086 78.1499 14.3523 77.9087 14.3523C77.6674 14.3523 77.2679 14.086 76.7628 13.7141C49.4443-4.44632 24.7328-29.5799 24.7328-53.1229Z"/>
  </g>
  <g id="Light-L" transform="matrix(1 0 0 1 1076.24 1556)">
   <path d="M16.084-53.1229C16.084-27.1226 39.2147-1.63848 73.4068 20.6399C74.387 21.2777 75.8572 21.9156 76.8971 21.9156C77.9708 21.9156 79.3606 21.2777 80.3874 20.6399C114.533-1.63848 137.71-27.1226 137.71-53.1229C137.71-74.2589 123.09-89.408 103.557-89.408C92.2629-89.408 82.1601-83.4122 76.8971-74.0876C71.6678-83.3785 61.5314-89.408 50.2369-89.408C30.7039-89.408 16.084-74.2589 16.084-53.1229ZM22.7098-53.1229C22.7098-70.7102 34.3666-82.7822 50.2032-82.7822C61.8249-82.7822 69.2869-75.5836 73.7883-67.9106C74.9238-66.0775 75.7562-65.4603 76.8971-65.4603C78.0718-65.4603 78.7564-66.1112 80.0059-67.9106C84.5954-75.5162 92.003-82.7822 103.625-82.7822C119.415-82.7822 131.084-70.7102 131.084-53.1229C131.084-29.4272 106.468-4.54174 77.924 14.4966C77.4807 14.7921 77.1384 15.0203 76.8971 15.0203C76.6559 15.0203 76.3136 14.7921 75.9039 14.4966C47.3259-4.54174 22.7098-29.4272 22.7098-53.1229Z"/>
  </g>
  <g id="Thin-L" transform="matrix(1 0 0 1 780.863 1556)">
   <path d="M16.084-53.1229C16.084-27.8041 39.7196-2.9763 72.8768 18.9992C73.6045 19.4603 74.6961 19.9215 75.5593 19.9215C76.431 19.9215 77.4422 19.4603 78.2419 18.9992C111.327-2.9763 135.035-27.8041 135.035-53.1229C135.035-73.4259 120.945-88.0702 102.068-88.0702C91.1017-88.0702 80.4942-81.7463 75.5593-71.8158C70.6329-81.7378 60.0169-88.0702 49.0506-88.0702C30.1738-88.0702 16.084-73.4259 16.084-53.1229ZM20.0342-53.1229C20.0342-71.3917 32.2968-84.12 49.0421-84.12C60.5124-84.12 68.5296-77.0728 73.334-68.3397C74.0403-67.0367 74.6708-66.5204 75.5593-66.5204C76.4563-66.5204 76.9895-67.0451 77.7847-68.3397C82.5508-77.056 90.6147-84.12 102.085-84.12C118.758-84.12 131.084-71.3917 131.084-53.1229C131.084-29.2253 106.595-4.66795 76.359 15.5315C76.0672 15.7261 75.8006 15.9038 75.5593 15.9038C75.3181 15.9038 75.0515 15.7261 74.7681 15.5315C44.524-4.66795 20.0342-29.2253 20.0342-53.1229Z"/>
  </g>
  <g id="Ultralight-L" transform="matrix(1 0 0 1 484.837 1556)">
   <path d="M16.084-53.1229C16.084-28.1532 39.9781-3.66152 72.6053 18.1588C73.2037 18.5294 74.1013 18.9001 74.8741 18.9001C75.6424 18.9001 76.4596 18.5294 77.1429 18.1588C109.685-3.66152 133.664-28.1532 133.664-53.1229C133.664-72.9992 119.846-87.385 101.305-87.385C90.507-87.385 79.6409-80.893 74.8741-70.6522C70.1028-80.8975 59.2412-87.385 48.4429-87.385C29.9023-87.385 16.084-72.9992 16.084-53.1229ZM18.6637-53.1229C18.6637-71.7408 31.2366-84.8052 48.4474-84.8052C59.8401-84.8052 68.1417-77.8356 73.1013-68.5595C73.5878-67.528 74.1148-67.0634 74.8741-67.0634C75.6289-67.0634 76.0844-67.5235 76.6469-68.5595C81.5036-77.8446 89.9036-84.8052 101.296-84.8052C118.422-84.8052 131.084-71.7408 131.084-53.1229C131.084-29.1218 106.659-4.73259 75.5574 16.0616C75.3431 16.2044 75.1154 16.3563 74.8741 16.3563C74.6328 16.3563 74.4051 16.2044 74.1863 16.0616C43.0889-4.73259 18.6637-29.1218 18.6637-53.1229Z"/>
  </g>
  <g id="Black-M" transform="matrix(1 0 0 1 2867.84 1126)">
   <path d="M12.4609-48.5784C12.4609-27.4495 30.2794-6.18601 56.4959 11.3406C59.904 13.6319 63.3034 15.7518 65.5636 15.7518C67.8292 15.7518 71.2234 13.6319 74.6313 11.3406C100.848-6.18601 118.666-27.4495 118.666-48.5784C118.666-69.6406 103.833-83.2491 87.1796-83.2491C76.8129-83.2491 69.7158-79.0783 65.5636-73.3581C61.4168-79.0729 54.3142-83.2491 43.9475-83.2491C27.2946-83.2491 12.4609-69.6406 12.4609-48.5784ZM31.2834-48.8068C31.2834-58.478 38.2395-65.3402 47.3107-65.3402C54.4781-65.3402 58.0859-61.6567 60.907-57.9872C62.3501-55.9719 63.7437-54.8909 65.5636-54.8909C67.3889-54.8909 68.6522-55.9774 70.163-57.9872C73.1777-61.7028 76.6546-65.3402 83.8219-65.3402C92.8934-65.3402 99.8438-58.478 99.8438-48.8068C99.8438-35.5368 87.2134-18.6945 66.1166-4.65285C65.8968-4.50627 65.7505-4.42778 65.5636-4.42778C65.3767-4.42778 65.2304-4.50627 65.016-4.65285C43.9138-18.6945 31.2834-35.5368 31.2834-48.8068Z"/>
  </g>
  <g id="Heavy-M" transform="matrix(1 0 0 1 2572.22 1126)">
   <path d="M12.4609-48.6997C12.4609-27.6398 30.1823-6.57754 56.7117 10.9588C59.5553 12.8684 62.512 14.647 64.4714 14.647C66.4471 14.647 69.3852 12.8684 72.231 10.9588C98.7581-6.57754 116.482-27.6398 116.482-48.6997C116.482-68.8555 102.349-82.1434 85.8969-82.1434C75.8329-82.1434 68.6847-77.9394 64.4714-72.0096C60.2744-77.923 53.1098-82.1434 43.0458-82.1434C26.5941-82.1434 12.4609-68.8555 12.4609-48.6997ZM28.6947-48.8742C28.6947-59.3151 35.9951-66.6076 45.6031-66.6076C53.2402-66.6076 57.2277-62.4409 60.1334-58.4888C61.5464-56.4868 62.8118-55.5238 64.4714-55.5238C66.1473-55.5238 67.2739-56.5032 68.7657-58.4888C71.8656-62.4517 75.7189-66.6076 83.356-66.6076C92.9617-66.6076 100.248-59.3151 100.248-48.8742C100.248-34.4518 86.0673-16.9555 65.1362-3.02537C64.8508-2.83513 64.6583-2.72132 64.4714-2.72132C64.2844-2.72132 64.0919-2.83513 63.823-3.02537C42.8754-16.9555 28.6947-34.4518 28.6947-48.8742Z"/>
  </g>
  <g id="Bold-M" transform="matrix(1 0 0 1 2276.73 1126)">
   <path d="M12.4609-48.8354C12.4609-27.8527 30.0737-7.01553 56.9531 10.5318C59.1651 12.0143 61.6268 13.4111 63.2495 13.4111C64.9009 13.4111 67.3288 12.0143 69.546 10.5318C96.4202-7.01553 114.038-27.8527 114.038-48.8354C114.038-67.9773 100.689-80.9065 84.4619-80.9065C74.7366-80.9065 67.5312-76.6654 63.2495-70.5011C58.9965-76.6367 51.7625-80.9065 42.0372-80.9065C25.8105-80.9065 12.4609-67.9773 12.4609-48.8354ZM25.7989-48.9495C25.7989-60.2515 33.4845-68.0253 43.6929-68.0253C51.8554-68.0253 56.2676-63.3181 59.2679-59.0499C60.6474-57.0627 61.7693-56.2318 63.2495-56.2318C64.7584-56.2318 65.7322-57.0914 67.2026-59.0499C70.3979-63.2894 74.6723-68.0253 82.8348-68.0253C93.0381-68.0253 100.7-60.2515 100.7-48.9495C100.7-33.2382 84.7853-15.0103 64.0393-1.20481C63.6807-0.965706 63.4365-0.8124 63.2495-0.8124C63.0626-0.8124 62.8184-0.965706 62.4884-1.20481C41.7138-15.0103 25.7989-33.2382 25.7989-48.9495Z"/>
  </g>
  <g id="Semibold-M" transform="matrix(1 0 0 1 1980.86 1126)">
   <path d="M12.4609-48.9289C12.4609-27.9994 29.9989-7.31747 57.1195 10.2373C58.8962 11.4255 61.0165 12.5591 62.4072 12.5591C63.835 12.5591 65.9112 11.4255 67.695 10.2373C94.8085-7.31747 112.354-27.9994 112.354-48.9289C112.354-67.3719 99.5441-80.0538 83.4727-80.0538C73.9809-80.0538 66.736-75.787 62.4072-69.4611C58.1155-75.75 50.8336-80.0538 41.3418-80.0538C25.2703-80.0538 12.4609-67.3719 12.4609-48.9289ZM23.8025-49.0015C23.8025-60.8971 31.7537-69.0027 42.376-69.0027C50.9008-69.0027 55.6057-63.9228 58.6713-59.4368C60.0277-57.4598 61.0506-56.7199 62.4072-56.7199C63.8009-56.7199 64.6693-57.4968 66.125-59.4368C69.3861-63.8669 73.9507-69.0027 82.4756-69.0027C93.0907-69.0027 101.012-60.8971 101.012-49.0015C101.012-32.4015 83.9015-13.6692 63.2832 0.0502817C62.874 0.32306 62.5942 0.503597 62.4072 0.503597C62.2203 0.503597 61.9404 0.32306 61.5683 0.0502817C40.913-13.6692 23.8025-32.4015 23.8025-49.0015Z"/>
  </g>
  <g id="Medium-M" transform="matrix(1 0 0 1 1684.79 1126)">
   <path d="M12.4609-48.9998C12.4609-28.1107 29.9421-7.54642 57.2457 10.0141C58.6922 10.979 60.5538 11.9131 61.7686 11.9131C63.0268 11.9131 64.8363 10.979 66.2915 10.0141C93.5864-7.54642 111.076-28.1107 111.076-48.9998C111.076-66.9128 98.6764-79.4073 82.7226-79.4073C73.4078-79.4073 66.1331-75.121 61.7686-68.6726C57.4475-75.0776 50.1293-79.4073 40.8145-79.4073C24.8607-79.4073 12.4609-66.9128 12.4609-48.9998ZM22.2888-49.0409C22.2888-61.3866 30.4413-69.7438 41.3774-69.7438C50.1769-69.7438 55.1039-64.3814 58.2189-59.7301C59.5577-57.7609 60.5057-57.09 61.7686-57.09C63.0749-57.09 63.8634-57.8043 65.308-59.7301C68.6189-64.3048 73.4036-69.7438 82.2031-69.7438C93.1306-69.7438 101.248-61.3866 101.248-49.0409C101.248-31.767 83.2313-12.6524 62.7099 1.00194C62.2624 1.30026 61.9555 1.50144 61.7686 1.50144C61.5817 1.50144 61.2747 1.30026 60.8707 1.00194C40.3058-12.6524 22.2888-31.767 22.2888-49.0409Z"/>
  </g>
  <g id="Regular-M" transform="matrix(1 0 0 1 1388.91 1126)">
   <path d="M12.4609-49.0923C12.4609-28.2559 29.8681-7.84504 57.4103 9.72287C58.4262 10.3967 59.9502 11.0705 60.9355 11.0705C61.9726 11.0705 63.4343 10.3967 64.4608 9.72287C91.9924-7.84504 109.41-28.2559 109.41-49.0923C109.41-66.314 97.5446-78.5639 81.7443-78.5639C72.6604-78.5639 65.3466-74.2524 60.9355-67.6441C56.5762-74.2006 49.2107-78.5639 40.1268-78.5639C24.3265-78.5639 12.4609-66.314 12.4609-49.0923ZM20.3144-49.0923C20.3144-62.025 28.7295-70.7105 40.075-70.7105C49.2328-70.7105 54.4493-64.9794 57.6288-60.1127C58.9448-58.1536 59.7949-57.5727 60.9355-57.5727C62.1279-57.5727 62.8122-58.2053 64.2422-60.1127C67.6182-64.8759 72.69-70.7105 81.8478-70.7105C93.1827-70.7105 101.557-62.025 101.557-49.0923C101.557-30.9395 82.3572-11.3261 61.962 2.24324C61.4646 2.57486 61.1224 2.80298 60.9355 2.80298C60.7486 2.80298 60.4064 2.57486 59.9608 2.24324C39.5138-11.3261 20.3144-30.9395 20.3144-49.0923Z"/>
  </g>
  <g id="Light-M" transform="matrix(1 0 0 1 1093.1 1126)">
   <path d="M12.4609-49.0923C12.4609-28.7179 30.2103-8.75192 57.0509 8.61066C57.8958 9.16469 59.1631 9.71871 60.0286 9.71871C60.9288 9.71871 62.1338 9.16469 63.0063 8.61066C89.8194-8.75192 107.596-28.7179 107.596-49.0923C107.596-65.7494 96.0901-77.6571 80.7347-77.6571C71.8733-77.6571 64.2173-73.123 60.0286-66.1041C55.8746-73.0884 48.184-77.6571 39.3225-77.6571C23.9671-77.6571 12.4609-65.7494 12.4609-49.0923ZM18.5006-49.0923C18.5006-62.487 27.3264-71.6174 39.2879-71.6174C48.343-71.6174 53.936-65.989 57.3208-60.4036C58.3459-58.8038 59.0592-58.2914 60.0286-58.2914C61.0328-58.2914 61.6144-58.8384 62.7364-60.4036C66.2322-65.9197 71.7489-71.6174 80.804-71.6174C92.7378-71.6174 101.557-62.487 101.557-49.0923C101.557-30.8026 82.4428-11.4116 60.9012 2.94479C60.5064 3.20797 60.2156 3.40186 60.0286 3.40186C59.8417 3.40186 59.5509 3.20797 59.1908 2.94479C37.6145-11.4116 18.5006-30.8026 18.5006-49.0923Z"/>
  </g>
  <g id="Thin-M" transform="matrix(1 0 0 1 797.593 1126)">
   <path d="M12.4609-49.0923C12.4609-29.3289 30.6629-9.95135 56.5757 7.13967C57.1943 7.53528 58.1221 7.93089 58.8292 7.93089C59.5484 7.93089 60.4139 7.53528 61.0827 7.13967C86.9453-9.95135 105.198-29.3289 105.198-49.0923C105.198-65.0026 94.1665-76.4576 79.3995-76.4576C70.8322-76.4576 62.7237-71.6294 58.8292-64.0673C54.9468-71.6174 46.8262-76.4576 38.2589-76.4576C23.4919-76.4576 12.4609-65.0026 12.4609-49.0923ZM16.1018-49.0923C16.1018-63.098 25.4707-72.8168 38.2469-72.8168C47.1662-72.8168 53.257-67.3242 56.9135-60.7883C57.5538-59.6638 58.0861-59.2419 58.8292-59.2419C59.5844-59.2419 60.0303-59.6758 60.745-60.7883C64.3992-67.3002 70.5042-72.8168 79.4236-72.8168C92.1494-72.8168 101.557-63.098 101.557-49.0923C101.557-30.6216 82.556-11.5248 59.4981 3.87264C59.2391 4.0453 59.0161 4.19393 58.8292 4.19393C58.6423 4.19393 58.4194 4.0453 58.1724 3.87264C35.1025-11.5248 16.1018-30.6216 16.1018-49.0923Z"/>
  </g>
  <g id="Ultralight-M" transform="matrix(1 0 0 1 501.496 1126)">
   <path d="M12.4609-49.0923C12.4609-29.6419 30.8947-10.5657 56.3323 6.38624C56.8349 6.70071 57.5889 7.01518 58.2149 7.01518C58.8413 7.01518 59.533 6.70071 60.0975 6.38624C85.4732-10.5657 103.969-29.6419 103.969-49.0923C103.969-64.62 93.1813-75.8433 78.7156-75.8433C70.299-75.8433 61.9586-70.8644 58.2149-63.0241C54.4716-70.864 46.1307-75.8433 37.7141-75.8433C23.2485-75.8433 12.4609-64.62 12.4609-49.0923ZM14.8731-49.0923C14.8731-63.411 24.5203-73.4311 37.7137-73.4311C46.5635-73.4311 52.9093-68.0081 56.7048-60.9853C57.1481-60.1042 57.5876-59.7287 58.2149-59.7287C58.8426-59.7287 59.2189-60.1046 59.7249-60.9853C63.4603-68.0072 69.8667-73.4311 78.7165-73.4311C91.8481-73.4311 101.557-63.411 101.557-49.0923C101.557-30.5289 82.6139-11.5828 58.7794 4.34788C58.59 4.47418 58.4018 4.59963 58.2149 4.59963C58.028 4.59963 57.8398 4.47418 57.6508 4.34788C33.8159-11.5828 14.8731-30.5289 14.8731-49.0923Z"/>
  </g>
  <g id="Black-S" transform="matrix(1 0 0 1 2881.74 696)">
   <path d="M9.76562-45.6543C9.76562-29.1016 23.7793-12.4023 44.1895 1.31836C47.0215 3.22266 49.8047 4.98047 51.6602 4.98047C53.5156 4.98047 56.2988 3.22266 59.1309 1.31836C79.541-12.4023 93.5547-29.1016 93.5547-45.6543C93.5547-62.4023 81.7383-73.1445 68.6523-73.1445C60.4492-73.1445 54.8828-69.873 51.6602-65.4297C48.4375-69.873 42.8711-73.1445 34.668-73.1445C21.582-73.1445 9.76562-62.4023 9.76562-45.6543ZM25.1953-45.8496C25.1953-53.2227 30.5664-58.4961 37.5488-58.4961C43.0176-58.4961 45.752-55.7617 47.9492-52.9297C49.0723-51.3672 50.1953-50.4883 51.6602-50.4883C53.125-50.4883 54.1504-51.3672 55.3223-52.9297C57.666-55.8105 60.3027-58.4961 65.7715-58.4961C72.7539-58.4961 78.125-53.2227 78.125-45.8496C78.125-35.791 68.7012-22.8027 52.0508-11.7188C51.9043-11.6211 51.8066-11.5723 51.6602-11.5723C51.5137-11.5723 51.416-11.6211 51.2695-11.7188C34.6191-22.8027 25.1953-35.791 25.1953-45.8496Z"/>
  </g>
  <g id="Heavy-S" transform="matrix(1 0 0 1 2585.85 696)">
   <path d="M9.76562-45.758C9.76562-29.2053 23.6525-12.6213 44.4199 1.13397C46.791 2.7271 49.2285 4.20833 50.8419 4.20833C52.4669 4.20833 54.8928 2.7271 57.2639 1.13397C78.0313-12.6213 91.9182-29.2053 91.9182-45.758C91.9182-61.8031 80.655-72.3148 67.6843-72.3148C59.7117-72.3148 54.1452-69.0433 50.8419-64.4732C47.5501-69.0318 41.9722-72.3148 33.9995-72.3148C21.0289-72.3148 9.76562-61.8031 9.76562-45.758ZM23.2131-45.9072C23.2131-53.8796 28.8262-59.4641 36.1889-59.4641C42.0726-59.4641 45.0835-56.3034 47.3269-53.3215C48.4615-51.7244 49.4923-50.9377 50.8419-50.9377C52.203-50.9377 53.1247-51.736 54.3196-53.3215C56.721-56.3176 59.6228-59.4641 65.5064-59.4641C72.8692-59.4641 78.4707-53.8796 78.4707-45.9072C78.4707-34.8806 67.7101-21.3046 51.3478-10.4165C51.1322-10.2727 50.9884-10.1893 50.8419-10.1893C50.6954-10.1893 50.5517-10.2727 50.3476-10.4165C33.9738-21.3046 23.2131-34.8806 23.2131-45.9072Z"/>
  </g>
  <g id="Bold-S" transform="matrix(1 0 0 1 2290.05 696)">
   <path d="M9.76562-45.874C9.76562-29.3213 23.5107-12.8662 44.6777 0.927734C46.5332 2.17285 48.584 3.34473 49.9268 3.34473C51.2939 3.34473 53.3203 2.17285 55.1758 0.927734C76.3428-12.8662 90.0879-29.3213 90.0879-45.874C90.0879-61.1328 79.4434-71.3867 66.6016-71.3867C58.8867-71.3867 53.3203-68.1152 49.9268-63.4033C46.5576-68.0908 40.9668-71.3867 33.252-71.3867C20.4102-71.3867 9.76562-61.1328 9.76562-45.874ZM20.9961-45.9717C20.9961-54.6143 26.8799-60.5469 34.668-60.5469C41.0156-60.5469 44.3359-56.9092 46.6309-53.7598C47.7783-52.124 48.7061-51.4404 49.9268-51.4404C51.1719-51.4404 51.9775-52.1484 53.1982-53.7598C55.6641-56.8848 58.8623-60.5469 65.21-60.5469C72.998-60.5469 78.8574-54.6143 78.8574-45.9717C78.8574-33.8623 66.6016-19.6289 50.5615-8.95996C50.2686-8.76465 50.0732-8.64258 49.9268-8.64258C49.7803-8.64258 49.585-8.76465 49.3164-8.95996C33.252-19.6289 20.9961-33.8623 20.9961-45.9717Z"/>
  </g>
  <g id="Semibold-S" transform="matrix(1 0 0 1 1993.97 696)">
   <path d="M9.76562-45.954C9.76562-29.4013 23.413-13.0351 44.8555 0.785547C46.3555 1.79072 48.1396 2.74932 49.2958 2.74932C50.4853 2.74932 52.2361 1.79072 53.7361 0.785547C75.1786-13.0351 88.826-29.4013 88.826-45.954C88.826-60.6707 78.608-70.7469 65.8551-70.7469C58.318-70.7469 52.7516-67.4754 49.2958-62.6657C45.8733-67.4421 40.2736-70.7469 32.7365-70.7469C19.9836-70.7469 9.76562-60.6707 9.76562-45.954ZM19.4676-46.0161C19.4676-55.1208 25.538-61.2934 33.6193-61.2934C40.2869-61.2934 43.8205-57.3269 46.151-54.0619C47.3073-52.3995 48.164-51.787 49.2958-51.787C50.4609-51.787 51.1866-52.4328 52.4251-54.0619C54.9354-57.2758 58.338-61.2934 65.0056-61.2934C73.0869-61.2934 79.124-55.1208 79.124-46.0161C79.124-33.1603 65.8373-18.4736 50.0194-7.95576C49.6731-7.7249 49.4423-7.57617 49.2958-7.57617C49.1493-7.57617 48.9185-7.7249 48.6055-7.95576C32.7543-18.4736 19.4676-33.1603 19.4676-46.0161Z"/>
  </g>
  <g id="Medium-S" transform="matrix(1 0 0 1 1697.74 696)">
   <path d="M9.76562-46.0146C9.76562-29.4619 23.3389-13.1631 44.9902 0.677734C46.2207 1.50098 47.8027 2.29785 48.8174 2.29785C49.8721 2.29785 51.4141 1.50098 52.6445 0.677734C74.2959-13.1631 87.8691-29.4619 87.8691-46.0146C87.8691-60.3203 77.9746-70.2617 65.2891-70.2617C57.8867-70.2617 52.3203-66.9902 48.8174-62.1064C45.3545-66.9502 39.748-70.2617 32.3457-70.2617C19.6602-70.2617 9.76562-60.3203 9.76562-46.0146ZM18.3086-46.0498C18.3086-55.5049 24.5205-61.8594 32.8242-61.8594C39.7344-61.8594 43.4297-57.6436 45.7871-54.291C46.9502-52.6084 47.7529-52.0498 48.8174-52.0498C49.9219-52.0498 50.5869-52.6484 51.8389-54.291C54.3828-57.5723 57.9404-61.8594 64.8506-61.8594C73.1543-61.8594 79.3262-55.5049 79.3262-46.0498C79.3262-32.6279 65.2578-17.5977 49.6084-7.19434C49.2217-6.93652 48.9639-6.76758 48.8174-6.76758C48.6709-6.76758 48.4131-6.93652 48.0664-7.19434C32.377-17.5977 18.3086-32.6279 18.3086-46.0498Z"/>
  </g>
  <g id="Regular-S" transform="matrix(1 0 0 1 1401.65 696)">
   <path d="M9.76562-46.0938C9.76562-29.541 23.2422-13.3301 45.166 0.537109C46.0449 1.12305 47.3633 1.70898 48.1934 1.70898C49.0723 1.70898 50.3418 1.12305 51.2207 0.537109C73.1445-13.3301 86.6211-29.541 86.6211-46.0938C86.6211-59.8633 77.1484-69.6289 64.5508-69.6289C57.3242-69.6289 51.7578-66.3574 48.1934-61.377C44.6777-66.3086 39.0625-69.6289 31.8359-69.6289C19.2383-69.6289 9.76562-59.8633 9.76562-46.0938ZM16.7969-46.0938C16.7969-56.0059 23.1934-62.5977 31.7871-62.5977C39.0137-62.5977 42.9199-58.0566 45.3125-54.5898C46.4844-52.8809 47.2168-52.3926 48.1934-52.3926C49.2188-52.3926 49.8047-52.9297 51.0742-54.5898C53.6621-57.959 57.4219-62.5977 64.6484-62.5977C73.2422-62.5977 79.5898-56.0059 79.5898-46.0938C79.5898-31.9336 64.502-16.4551 49.0723-6.20117C48.6328-5.9082 48.3398-5.71289 48.1934-5.71289C48.0469-5.71289 47.7539-5.9082 47.3633-6.20117C31.8848-16.4551 16.7969-31.9336 16.7969-46.0938Z"/>
  </g>
  <g id="Light-S" transform="matrix(1 0 0 1 1105.74 696)">
   <path d="M9.76562-46.0938C9.76562-29.9497 23.5449-14.1323 44.8481-0.44677C45.5757 0.0332117 46.667 0.513193 47.3911 0.513193C48.1489 0.513193 49.1914 0.0332117 49.9341-0.44677C71.2222-14.1323 85.0166-29.9497 85.0166-46.0938C85.0166-59.3638 75.8618-68.8267 63.6577-68.8267C56.6279-68.8267 50.7588-65.3584 47.3911-60.0147C44.0571-65.3247 38.1543-68.8267 31.1245-68.8267C18.9204-68.8267 9.76562-59.3638 9.76562-46.0938ZM15.1924-46.0938C15.1924-56.4145 21.9522-63.3999 31.0908-63.3999C38.2266-63.3999 42.4658-58.9497 45.04-54.8472C45.9546-53.4561 46.5659-53.0283 47.3911-53.0283C48.25-53.0283 48.7451-53.4897 49.7422-54.8472C52.436-58.8823 56.5894-63.3999 63.7251-63.3999C72.8486-63.3999 79.5898-56.4145 79.5898-46.0938C79.5898-31.8125 64.5776-16.5308 48.1338-5.58057C47.7852-5.34815 47.5376-5.18311 47.3911-5.18311C47.2446-5.18311 46.9971-5.34815 46.6821-5.58057C30.2046-16.5308 15.1924-31.8125 15.1924-46.0938Z"/>
  </g>
  <g id="Thin-S" transform="matrix(1 0 0 1 810.092 696)">
   <path d="M9.76562-46.0938C9.76562-30.4902 23.9453-15.1933 44.4277-1.74803C44.9551-1.40818 45.7461-1.06834 46.3301-1.06834C46.9278-1.06834 47.6699-1.40818 48.2324-1.74803C68.6797-15.1933 82.8946-30.4902 82.8946-46.0938C82.8946-58.7031 74.1602-67.7656 62.4766-67.7656C55.707-67.7656 49.4375-64.0371 46.3301-58.2129C43.2363-64.0235 36.9531-67.7656 30.1836-67.7656C18.5-67.7656 9.76562-58.7031 9.76562-46.0938ZM13.0703-46.0938C13.0703-56.9551 20.3106-64.4609 30.1699-64.4609C37.1856-64.4609 41.8652-60.1308 44.6797-55.1875C45.2539-54.2168 45.7051-53.8691 46.3301-53.8691C46.9688-53.8691 47.3438-54.2305 47.9805-55.1875C50.8145-60.1035 55.4883-64.4609 62.5039-64.4609C72.3281-64.4609 79.5898-56.9551 79.5898-46.0938C79.5898-31.6523 64.6777-16.6309 46.8926-4.75978C46.6641-4.60743 46.4766-4.48243 46.3301-4.48243C46.1836-4.48243 45.9961-4.60743 45.7813-4.75978C27.9825-16.6309 13.0703-31.6523 13.0703-46.0938Z"/>
  </g>
  <g id="Ultralight-S" transform="matrix(1 0 0 1 513.924 696)">
   <path d="M9.76562-46.0938C9.76562-30.7671 24.1504-15.7368 44.2124-2.41453C44.6372-2.14646 45.2744-1.87839 45.7866-1.87839C46.3023-1.87839 46.8907-2.14646 47.3609-2.41453C67.3775-15.7368 81.8077-30.7671 81.8077-46.0938C81.8077-58.3648 73.2886-67.2222 61.8716-67.2222C55.2354-67.2222 48.7608-63.3604 45.7866-57.2901C42.8159-63.357 36.3379-67.2222 29.7017-67.2222C18.2847-67.2222 9.76562-58.3648 9.76562-46.0938ZM11.9834-46.0938C11.9834-57.2319 19.4698-65.0044 29.6983-65.0044C36.6524-65.0044 41.5576-60.7358 44.4951-55.3618C44.895-54.6064 45.2642-54.2998 45.7866-54.2998C46.3125-54.2998 46.626-54.6099 47.0782-55.3618C49.9839-60.729 54.9243-65.0044 61.8784-65.0044C72.0615-65.0044 79.5898-57.2319 79.5898-46.0938C79.5898-31.5703 64.729-16.6821 46.2569-4.33937C46.0899-4.22804 45.9331-4.12355 45.7866-4.12355C45.6402-4.12355 45.4834-4.22804 45.3198-4.33937C26.8443-16.6821 11.9834-31.5703 11.9834-46.0938Z"/>
  </g>
 </g>
</svg>
