<?xml version="1.0" encoding="UTF-8"?>
<!--Generator: Apple Native CoreSVG 175.5-->
<!DOCTYPE svg
PUBLIC "-//W3C//DTD SVG 1.1//EN"
       "http://www.w3.org/Graphics/SVG/1.1/DTD/svg11.dtd">
<svg version="1.1" xmlns="http://www.w3.org/2000/svg" xmlns:xlink="http://www.w3.org/1999/xlink" width="3300" height="2200">
 <!--glyph: "uni100762.medium", point size: 100.0, font version: "18.0d10e1", template writer version: "90"-->
 <g id="Notes">
  <rect height="2200" id="artboard" style="fill:white;opacity:1" width="3300" x="0" y="0"/>
  <line style="fill:none;stroke:black;opacity:1;stroke-width:0.5;" x1="263" x2="3036" y1="292" y2="292"/>
  <text style="stroke:none;fill:black;font-family:sans-serif;font-size:13;font-weight:bold;" transform="matrix(1 0 0 1 263 322)">Weight/Scale Variations</text>
  <text style="stroke:none;fill:black;font-family:sans-serif;font-size:13;text-anchor:middle;" transform="matrix(1 0 0 1 559.711 322)">Ultralight</text>
  <text style="stroke:none;fill:black;font-family:sans-serif;font-size:13;text-anchor:middle;" transform="matrix(1 0 0 1 856.422 322)">Thin</text>
  <text style="stroke:none;fill:black;font-family:sans-serif;font-size:13;text-anchor:middle;" transform="matrix(1 0 0 1 1153.13 322)">Light</text>
  <text style="stroke:none;fill:black;font-family:sans-serif;font-size:13;text-anchor:middle;" transform="matrix(1 0 0 1 1449.84 322)">Regular</text>
  <text style="stroke:none;fill:black;font-family:sans-serif;font-size:13;text-anchor:middle;" transform="matrix(1 0 0 1 1746.56 322)">Medium</text>
  <text style="stroke:none;fill:black;font-family:sans-serif;font-size:13;text-anchor:middle;" transform="matrix(1 0 0 1 2043.27 322)">Semibold</text>
  <text style="stroke:none;fill:black;font-family:sans-serif;font-size:13;text-anchor:middle;" transform="matrix(1 0 0 1 2339.98 322)">Bold</text>
  <text style="stroke:none;fill:black;font-family:sans-serif;font-size:13;text-anchor:middle;" transform="matrix(1 0 0 1 2636.69 322)">Heavy</text>
  <text style="stroke:none;fill:black;font-family:sans-serif;font-size:13;text-anchor:middle;" transform="matrix(1 0 0 1 2933.4 322)">Black</text>
  <line style="fill:none;stroke:black;opacity:1;stroke-width:0.5;" x1="263" x2="3036" y1="1903" y2="1903"/>
  <g transform="matrix(1 0 0 1 263 1933)">
   <path d="M9.24805 0.830078C13.5547 0.830078 17.1387-2.74414 17.1387-7.05078C17.1387-11.3574 13.5449-14.9316 9.23828-14.9316C4.94141-14.9316 1.36719-11.3574 1.36719-7.05078C1.36719-2.74414 4.95117 0.830078 9.24805 0.830078ZM9.24805-0.654297C5.70312-0.654297 2.87109-3.49609 2.87109-7.05078C2.87109-10.6055 5.69336-13.4473 9.23828-13.4473C12.793-13.4473 15.6445-10.6055 15.6445-7.05078C15.6445-3.49609 12.8027-0.654297 9.24805-0.654297ZM5.6543-7.05078C5.6543-6.62109 5.95703-6.32812 6.40625-6.32812L8.50586-6.32812L8.50586-4.20898C8.50586-3.76953 8.79883-3.4668 9.22852-3.4668C9.67773-3.4668 9.9707-3.76953 9.9707-4.20898L9.9707-6.32812L12.0898-6.32812C12.5293-6.32812 12.832-6.62109 12.832-7.05078C12.832-7.49023 12.5293-7.79297 12.0898-7.79297L9.9707-7.79297L9.9707-9.90234C9.9707-10.3516 9.67773-10.6543 9.22852-10.6543C8.79883-10.6543 8.50586-10.3516 8.50586-9.90234L8.50586-7.79297L6.40625-7.79297C5.95703-7.79297 5.6543-7.49023 5.6543-7.05078Z"/>
  </g>
  <g transform="matrix(1 0 0 1 281.867 1933)">
   <path d="M11.709 2.91016C17.1582 2.91016 21.6699-1.61133 21.6699-7.05078C21.6699-12.5 17.1484-17.0117 11.6992-17.0117C6.25977-17.0117 1.74805-12.5 1.74805-7.05078C1.74805-1.61133 6.26953 2.91016 11.709 2.91016ZM11.709 1.25C7.09961 1.25 3.41797-2.44141 3.41797-7.05078C3.41797-11.6602 7.08984-15.3516 11.6992-15.3516C16.3086-15.3516 20.0098-11.6602 20.0098-7.05078C20.0098-2.44141 16.3184 1.25 11.709 1.25ZM7.17773-7.05078C7.17773-6.57227 7.50977-6.25 8.00781-6.25L10.8789-6.25L10.8789-3.36914C10.8789-2.88086 11.2109-2.53906 11.6895-2.53906C12.1777-2.53906 12.5195-2.87109 12.5195-3.36914L12.5195-6.25L15.4004-6.25C15.8887-6.25 16.2305-6.57227 16.2305-7.05078C16.2305-7.53906 15.8887-7.88086 15.4004-7.88086L12.5195-7.88086L12.5195-10.752C12.5195-11.25 12.1777-11.5918 11.6895-11.5918C11.2109-11.5918 10.8789-11.25 10.8789-10.752L10.8789-7.88086L8.00781-7.88086C7.50977-7.88086 7.17773-7.53906 7.17773-7.05078Z"/>
  </g>
  <g transform="matrix(1 0 0 1 305.646 1933)">
   <path d="M14.9707 5.66406C21.9336 5.66406 27.6953-0.0976562 27.6953-7.05078C27.6953-14.0137 21.9238-19.7754 14.9609-19.7754C8.00781-19.7754 2.25586-14.0137 2.25586-7.05078C2.25586-0.0976562 8.01758 5.66406 14.9707 5.66406ZM14.9707 3.84766C8.93555 3.84766 4.08203-1.01562 4.08203-7.05078C4.08203-13.0957 8.92578-17.9492 14.9609-17.9492C21.0059-17.9492 25.8691-13.0957 25.8691-7.05078C25.8691-1.01562 21.0156 3.84766 14.9707 3.84766ZM9.19922-7.05078C9.19922-6.5332 9.57031-6.17188 10.1172-6.17188L14.0625-6.17188L14.0625-2.2168C14.0625-1.67969 14.4336-1.29883 14.9512-1.29883C15.4883-1.29883 15.8594-1.66992 15.8594-2.2168L15.8594-6.17188L19.8145-6.17188C20.3516-6.17188 20.7324-6.5332 20.7324-7.05078C20.7324-7.59766 20.3613-7.96875 19.8145-7.96875L15.8594-7.96875L15.8594-11.9141C15.8594-12.4609 15.4883-12.8418 14.9512-12.8418C14.4336-12.8418 14.0625-12.4609 14.0625-11.9141L14.0625-7.96875L10.1172-7.96875C9.57031-7.96875 9.19922-7.59766 9.19922-7.05078Z"/>
  </g>
  <text style="stroke:none;fill:black;font-family:sans-serif;font-size:13;font-weight:bold;" transform="matrix(1 0 0 1 263 1953)">Design Variations</text>
  <text style="stroke:none;fill:black;font-family:sans-serif;font-size:13;" transform="matrix(1 0 0 1 263 1971)">Symbols are supported in up to nine weights and three scales.</text>
  <text style="stroke:none;fill:black;font-family:sans-serif;font-size:13;" transform="matrix(1 0 0 1 263 1989)">For optimal layout with text and other symbols, vertically align</text>
  <text style="stroke:none;fill:black;font-family:sans-serif;font-size:13;" transform="matrix(1 0 0 1 263 2007)">symbols with the adjacent text.</text>
  <line style="fill:none;stroke:#00AEEF;stroke-width:0.5;opacity:1.0;" x1="776" x2="776" y1="1919" y2="1933"/>
  <g transform="matrix(1 0 0 1 776 1933)">
   <path d="M3.31055 0.15625C3.82812 0.15625 4.08203-0.0390625 4.26758-0.585938L5.52734-4.0332L11.2891-4.0332L12.5488-0.585938C12.7344-0.0390625 12.9883 0.15625 13.4961 0.15625C14.0137 0.15625 14.3457-0.15625 14.3457-0.644531C14.3457-0.810547 14.3164-0.966797 14.2383-1.17188L9.6582-13.3691C9.43359-13.9648 9.0332-14.2676 8.4082-14.2676C7.80273-14.2676 7.39258-13.9746 7.17773-13.3789L2.59766-1.16211C2.51953-0.957031 2.49023-0.800781 2.49023-0.634766C2.49023-0.146484 2.80273 0.15625 3.31055 0.15625ZM6.00586-5.51758L8.37891-12.0898L8.42773-12.0898L10.8008-5.51758Z"/>
  </g>
  <line style="fill:none;stroke:#00AEEF;stroke-width:0.5;opacity:1.0;" x1="793.197" x2="793.197" y1="1919" y2="1933"/>
  <text style="stroke:none;fill:black;font-family:sans-serif;font-size:13;font-weight:bold;" transform="matrix(1 0 0 1 776 1953)">Margins</text>
  <text style="stroke:none;fill:black;font-family:sans-serif;font-size:13;" transform="matrix(1 0 0 1 776 1971)">Leading and trailing margins on the left and right side of each symbol</text>
  <text style="stroke:none;fill:black;font-family:sans-serif;font-size:13;" transform="matrix(1 0 0 1 776 1989)">can be adjusted by modifying the x-location of the margin guidelines.</text>
  <text style="stroke:none;fill:black;font-family:sans-serif;font-size:13;" transform="matrix(1 0 0 1 776 2007)">Modifications are automatically applied proportionally to all</text>
  <text style="stroke:none;fill:black;font-family:sans-serif;font-size:13;" transform="matrix(1 0 0 1 776 2025)">scales and weights.</text>
  <g transform="matrix(1 0 0 1 1289 1933)">
   <path d="M2.8418 1.86523L4.54102 3.57422C5.40039 4.44336 6.38672 4.38477 7.31445 3.35938L18.0078-8.42773L17.041-9.4043L6.42578 2.27539C6.07422 2.67578 5.74219 2.77344 5.27344 2.30469L4.10156 1.14258C3.63281 0.683594 3.74023 0.341797 4.14062-0.0195312L15.6152-10.8203L14.6387-11.7871L3.04688-0.898438C2.06055 0.0195312 1.98242 0.996094 2.8418 1.86523ZM9.25781-16.3281C8.83789-15.918 8.80859-15.3418 9.04297-14.9512C9.27734-14.5898 9.73633-14.3555 10.3809-14.5215C11.8457-14.8633 13.3691-14.9219 14.7949-13.9844L14.209-12.5293C13.8672-11.6992 14.043-11.1133 14.5801-10.5664L16.875-8.25195C17.3633-7.76367 17.7734-7.74414 18.3398-7.8418L19.4043-8.03711L20.0684-7.36328L20.0293-6.80664C19.9902-6.30859 20.1172-5.92773 20.6055-5.44922L21.3672-4.70703C21.8457-4.22852 22.4609-4.19922 22.9297-4.66797L25.8398-7.58789C26.3086-8.05664 26.2891-8.65234 25.8105-9.13086L25.0391-9.89258C24.5605-10.3711 24.1895-10.5273 23.7109-10.4883L23.1348-10.4395L22.4902-11.0742L22.7344-12.1973C22.8613-12.7637 22.7051-13.2031 22.1191-13.7891L19.9219-15.9766C16.582-19.2969 12.1484-19.2188 9.25781-16.3281ZM10.752-15.957C13.1836-17.7344 16.4746-17.4316 18.7012-15.2051L21.1328-12.793C21.3672-12.5586 21.4062-12.373 21.3379-12.0312L21.0156-10.5469L22.5195-9.0625L23.5059-9.12109C23.7598-9.13086 23.8379-9.11133 24.0332-8.91602L24.6094-8.33984L22.168-5.89844L21.5918-6.47461C21.3965-6.66992 21.3672-6.74805 21.377-7.01172L21.4453-7.98828L19.9512-9.47266L18.4277-9.21875C18.1055-9.15039 17.959-9.17969 17.7148-9.41406L15.7129-11.416C15.459-11.6504 15.4297-11.8164 15.5859-12.1875L16.4648-14.2773C14.9023-15.7324 12.8711-16.3574 10.8398-15.7617C10.6836-15.7227 10.625-15.8496 10.752-15.957Z"/>
  </g>
  <text style="stroke:none;fill:black;font-family:sans-serif;font-size:13;font-weight:bold;" transform="matrix(1 0 0 1 1289 1953)">Exporting</text>
  <text style="stroke:none;fill:black;font-family:sans-serif;font-size:13;" transform="matrix(1 0 0 1 1289 1971)">Symbols should be outlined when exporting to ensure the</text>
  <text style="stroke:none;fill:black;font-family:sans-serif;font-size:13;" transform="matrix(1 0 0 1 1289 1989)">design is preserved when submitting to Xcode.</text>
  <text id="template-version" style="stroke:none;fill:black;font-family:sans-serif;font-size:13;text-anchor:end;" transform="matrix(1 0 0 1 3036 1933)">Template v.2.0</text>
  <text style="stroke:none;fill:black;font-family:sans-serif;font-size:13;text-anchor:end;" transform="matrix(1 0 0 1 3036 1951)">Requires Xcode 12 or greater</text>
  <text id="descriptive-name" style="stroke:none;fill:black;font-family:sans-serif;font-size:13;text-anchor:end;" transform="matrix(1 0 0 1 3036 1969)">Generated from figure.walk</text>
  <text style="stroke:none;fill:black;font-family:sans-serif;font-size:13;text-anchor:end;" transform="matrix(1 0 0 1 3036 1987)">Typeset at 100 points</text>
  <text style="stroke:none;fill:black;font-family:sans-serif;font-size:13;" transform="matrix(1 0 0 1 263 726)">Small</text>
  <text style="stroke:none;fill:black;font-family:sans-serif;font-size:13;" transform="matrix(1 0 0 1 263 1156)">Medium</text>
  <text style="stroke:none;fill:black;font-family:sans-serif;font-size:13;" transform="matrix(1 0 0 1 263 1586)">Large</text>
 </g>
 <g id="Guides">
  <g id="H-reference" style="fill:#27AAE1;stroke:none;" transform="matrix(1 0 0 1 339 696)">
   <path d="M0.993654 0L3.63775 0L29.3281-67.1323L30.0303-67.1323L30.0303-70.459L28.1226-70.459ZM11.6885-24.4799L46.9815-24.4799L46.2315-26.7285L12.4385-26.7285ZM55.1196 0L57.7637 0L30.6382-70.459L29.4326-70.459L29.4326-67.1323Z"/>
  </g>
  <line id="Baseline-S" style="fill:none;stroke:#27AAE1;opacity:1;stroke-width:0.5;" x1="263" x2="3036" y1="696" y2="696"/>
  <line id="Capline-S" style="fill:none;stroke:#27AAE1;opacity:1;stroke-width:0.5;" x1="263" x2="3036" y1="625.541" y2="625.541"/>
  <g id="H-reference" style="fill:#27AAE1;stroke:none;" transform="matrix(1 0 0 1 339 1126)">
   <path d="M0.993654 0L3.63775 0L29.3281-67.1323L30.0303-67.1323L30.0303-70.459L28.1226-70.459ZM11.6885-24.4799L46.9815-24.4799L46.2315-26.7285L12.4385-26.7285ZM55.1196 0L57.7637 0L30.6382-70.459L29.4326-70.459L29.4326-67.1323Z"/>
  </g>
  <line id="Baseline-M" style="fill:none;stroke:#27AAE1;opacity:1;stroke-width:0.5;" x1="263" x2="3036" y1="1126" y2="1126"/>
  <line id="Capline-M" style="fill:none;stroke:#27AAE1;opacity:1;stroke-width:0.5;" x1="263" x2="3036" y1="1055.54" y2="1055.54"/>
  <g id="H-reference" style="fill:#27AAE1;stroke:none;" transform="matrix(1 0 0 1 339 1556)">
   <path d="M0.993654 0L3.63775 0L29.3281-67.1323L30.0303-67.1323L30.0303-70.459L28.1226-70.459ZM11.6885-24.4799L46.9815-24.4799L46.2315-26.7285L12.4385-26.7285ZM55.1196 0L57.7637 0L30.6382-70.459L29.4326-70.459L29.4326-67.1323Z"/>
  </g>
  <line id="Baseline-L" style="fill:none;stroke:#27AAE1;opacity:1;stroke-width:0.5;" x1="263" x2="3036" y1="1556" y2="1556"/>
  <line id="Capline-L" style="fill:none;stroke:#27AAE1;opacity:1;stroke-width:0.5;" x1="263" x2="3036" y1="1485.54" y2="1485.54"/>
  <line id="left-margin" style="fill:none;stroke:#00AEEF;stroke-width:0.5;opacity:1.0;" x1="1404.51" x2="1404.51" y1="1030.79" y2="1150.12"/>
  <line id="right-margin" style="fill:none;stroke:#00AEEF;stroke-width:0.5;opacity:1.0;" x1="1495.18" x2="1495.18" y1="1030.79" y2="1150.12"/>
 </g>
 <g id="Symbols">
  <g id="Black-L" transform="matrix(1 0 0 1 2871.58 1556)">
   <path d="M28.843 33.8837L48.8351 10.1398C50.9356 7.65682 51.3545 6.97946 52.0967 4.53287L52.5937 3.00182L40.6057-12.0053L37.8197 0.829628L18.3013 24.0194C11.1524 32.5278 22.9124 40.9533 28.843 33.8837ZM75.9607 31.7248C80.6158 41.113 94.5955 35.2616 89.5615 25.0548L76.0234-2.36157C74.9815-4.42569 73.6156-6.59104 72.1756-8.6899L63.9228-20.4765L64.3105-21.7576C66.4198-28.9278 67.5173-33.0596 67.9986-39.8561L69.3425-59.0868C70.0431-69.0123 64.0237-76.1597 54.3141-76.1597C46.9867-76.1597 41.9427-72.3572 35.4667-66.0408L25.2598-56.052C21.9346-52.7475 20.6543-49.8684 20.2742-45.1865L19.0327-29.4443C18.6538-24.9488 21.324-21.7169 25.5186-21.5572C29.7728-21.2576 32.4638-23.9278 32.8439-28.6049L34.2891-45.4443L38.249-48.98C39.4693-50.098 41.2754-49.465 41.1354-47.7922L40.1495-34.5179C39.5878-27.3129 41.0978-23.4156 46.5803-16.6112L60.0356 0.253383C61.2639 1.80218 61.482 2.32872 62.1021 3.54821ZM99.917-50.2093L85.022-50.2093L76.9215-59.102L75.624-40.7306L76.939-39.4364C79.2599-37.1155 81.3968-36.3565 85.6586-36.3565L99.917-36.3565C104.529-36.3565 107.564-39.0707 107.564-43.2445C107.564-47.4171 104.45-50.2093 99.917-50.2093ZM62.1788-80.7002C70.7049-80.7002 77.6677-87.663 77.6677-96.1879C77.6677-104.714 70.7049-111.677 62.1788-111.677C53.632-111.677 46.6911-104.714 46.6911-96.1879C46.6911-87.663 53.632-80.7002 62.1788-80.7002Z"/>
  </g>
  <g id="Heavy-L" transform="matrix(1 0 0 1 2575.72 1556)">
   <path d="M28.2953 32.8164L47.9924 9.4035C50.0339 6.98447 50.4202 6.34351 51.163 3.93332L51.8888 1.73006L40.3662-12.7162L37.4976 0.458387L18.2147 23.3767C11.367 31.5289 22.6157 39.5894 28.2953 32.8164ZM75.0992 30.7303C79.5717 39.7446 92.9624 34.1397 88.1292 24.3482L74.7725-2.70577C73.7439-4.73844 72.3823-6.88172 70.9976-8.88851L62.7894-20.6127L63.2185-21.9948C65.3283-28.9961 66.3613-33.0783 66.8382-39.7705L68.1639-58.7293C68.8463-68.3483 63.0469-75.3373 53.564-75.3373C46.4186-75.3373 41.5114-71.6396 35.1352-65.4187L25.0734-55.5567C21.8066-52.3201 20.5771-49.527 20.2108-44.9962L19.0013-29.4763C18.6406-25.1589 21.1553-22.0869 25.1811-21.9317C29.2572-21.6458 31.8021-24.1605 32.1684-28.6688L33.6047-45.3687L37.7167-49.0428C39.043-50.2528 40.9444-49.5365 40.8138-47.8555L39.8186-34.4821C39.2612-27.3306 40.7993-23.5794 46.1175-16.9713L59.3825-0.342284C60.6246 1.21588 60.8245 1.76999 61.4264 2.94371ZM98.5369-49.7499L83.7402-49.7499L75.3833-58.9492L74.1404-41.363L76.0316-39.502C78.2842-37.2494 80.3345-36.5224 84.4733-36.5224L98.5369-36.5224C102.944-36.5224 105.846-39.1087 105.846-43.1044C105.846-47.0944 102.869-49.7499 98.5369-49.7499ZM61.2197-80.1491C69.5086-80.1491 76.2663-86.9068 76.2663-95.1901C76.2663-103.479 69.5086-110.237 61.2197-110.237C52.9006-110.237 46.1787-103.479 46.1787-95.1901C46.1787-86.9068 52.9006-80.1491 61.2197-80.1491Z"/>
  </g>
  <g id="Bold-L" transform="matrix(1 0 0 1 2280.11 1556)">
   <path d="M27.6265 31.4351L46.9399 8.45937C48.9047 6.11726 49.26 5.52237 49.9953 3.15825L50.9906 0.15485L40.0369-13.5998L37.0757-0.0398751L18.1072 22.5106C11.6283 30.2321 22.2543 37.8467 27.6265 31.4351ZM73.964 29.4412C78.2137 37.9944 90.8893 32.6893 86.302 23.4052L73.1832-3.16576C72.1774-5.15255 70.8235-7.25773 69.5004-9.1642L61.3609-20.7892L61.8363-22.2868C63.9387-29.0807 64.9022-33.0939 65.3714-39.6481L66.6741-58.2465C67.3335-67.5037 61.7882-74.2782 52.6045-74.2782C45.6895-74.2782 40.9513-70.7111 34.7055-64.6129L24.8354-54.9196C21.6528-51.775 20.4773-49.097 20.1264-44.7432L18.9554-29.5147C18.6177-25.4127 20.9478-22.533 24.7661-22.3854C28.6268-22.1149 30.9948-24.4449 31.3457-28.7458L32.7668-45.2466L37.0411-49.0675C38.483-50.3778 40.5073-49.5765 40.3844-47.8727L39.3814-34.4286C38.8317-27.3611 40.3932-23.7867 45.5115-17.417L58.5235-1.1023C59.781 0.46366 59.9578 1.04861 60.5367 2.16845ZM96.7416-49.1663L82.0976-49.1663L73.4404-58.7274L72.2666-42.0946L74.8426-39.5566C77.0107-37.3886 78.9534-36.7 82.9386-36.7L96.7416-36.7C100.902-36.7 103.643-39.1325 103.643-42.9128C103.643-46.6799 100.835-49.1663 96.7416-49.1663ZM59.9915-79.3907C67.9884-79.3907 74.4925-85.8948 74.4925-93.8785C74.4925-101.875 67.9884-108.379 59.9915-108.379C51.9567-108.379 45.5038-101.875 45.5038-93.8785C45.5038-85.8948 51.9567-79.3907 59.9915-79.3907Z"/>
  </g>
  <g id="Semibold-L" transform="matrix(1 0 0 1 1984.16 1556)">
   <path d="M27.1655 30.4829L46.2144 7.80849C48.1263 5.5194 48.4602 4.95628 49.1904 2.62392L50.3713-0.931092L39.8098-14.2089L36.7848-0.383374L18.033 21.9135C11.8085 29.3382 22.0052 36.6454 27.1655 30.4829ZM73.1815 28.5524C77.2774 36.7878 89.4601 31.6895 85.0424 22.7551L72.0875-3.48288C71.0975-5.43803 69.7488-7.51696 68.4682-9.35427L60.3762-20.9109L60.8834-22.4881C62.9807-29.1389 63.8963-33.1047 64.3603-39.5637L65.6471-57.9136C66.2906-66.9215 60.9205-73.548 51.943-73.548C45.1868-73.548 40.5651-70.071 34.4093-64.0575L24.6714-54.4805C21.5468-51.3993 20.4085-48.8005 20.0683-44.5688L18.9237-29.5412C18.602-25.5876 20.8047-22.8405 24.48-22.6981C28.1923-22.4383 30.4384-24.641 30.7786-28.7988L32.1892-45.1624L36.5752-49.0845C38.097-50.464 40.2059-49.604 40.0885-47.8846L39.0801-34.3917C38.5356-27.3821 40.1133-23.9297 45.0937-17.7242L57.9313-1.62626C59.1994-0.0549149 59.3603 0.551298 59.9234 1.634ZM95.5038-48.7641L80.9651-48.7641L72.101-58.5745L70.9749-42.599L74.0229-39.5943C76.1327-37.4845 78.0013-36.8225 81.8806-36.8225L95.5038-36.8225C99.4946-36.8225 102.124-39.1489 102.124-42.7808C102.124-46.3942 99.4326-48.7641 95.5038-48.7641ZM59.1448-78.8679C66.9403-78.8679 73.2696-85.1972 73.2696-92.9743C73.2696-100.77 66.9403-107.099 59.1448-107.099C51.3059-107.099 45.0385-100.77 45.0385-92.9743C45.0385-85.1972 51.3059-78.8679 59.1448-78.8679Z"/>
  </g>
  <g id="Medium-L" transform="matrix(1 0 0 1 1688.03 1556)">
   <path d="M26.8159 29.7609L45.6643 7.31497C47.536 5.06609 47.8538 4.52705 48.58 2.21877L49.9018-1.7545L39.6376-14.6708L36.5643-0.643829L17.9768 21.4608C11.9452 28.6603 21.8164 35.7345 26.8159 29.7609ZM72.5881 27.8786C76.5675 35.8729 88.3764 30.9313 84.0873 22.2621L71.2567-3.72333C70.2786-5.65449 68.9339-7.71351 67.6856-9.49838L59.6295-21.0031L60.1609-22.6408C62.2543-29.1831 63.1335-33.1128 63.5936-39.4997L64.8684-57.6612C65.4998-66.48 60.2626-72.9944 51.4414-72.9944C44.8056-72.9944 40.2723-69.5856 34.1847-63.6363L24.547-54.1475C21.4664-51.1143 20.3564-48.5757 20.0242-44.4365L18.8998-29.5613C18.59-25.7203 20.6962-23.0736 24.263-22.9353C27.8628-22.6835 30.0164-24.7897 30.3486-28.839L31.7512-45.0986L36.2221-49.0974C37.8043-50.5294 39.9774-49.6249 39.864-47.8937L38.8516-34.3637C38.3111-27.398 39.901-24.038 44.7769-17.9572L57.4822-2.02354C58.7584-0.44812 58.9073 0.174213 59.4583 1.22875ZM94.5654-48.459L80.1065-48.459L71.0854-58.4585L69.9954-42.9814L73.4014-39.6228C75.467-37.5572 77.2794-36.9153 81.0783-36.9153L94.5654-36.9153C98.4274-36.9153 100.973-39.1613 100.973-42.6807C100.973-46.1775 98.3694-48.459 94.5654-48.459ZM58.5028-78.4715C66.1457-78.4715 72.3424-84.6682 72.3424-92.2886C72.3424-99.9315 66.1457-106.128 58.5028-106.128C50.8125-106.128 44.6856-99.9315 44.6856-92.2886C44.6856-84.6682 50.8125-78.4715 58.5028-78.4715Z"/>
  </g>
  <g id="Regular-L" transform="matrix(1 0 0 1 1392.07 1556)">
   <path d="M26.3599 28.8191L44.9467 6.67125C46.7661 4.4748 47.0627 3.96718 47.7839 1.69031L49.2894-2.82851L39.413-15.2732L36.2766-0.983553L17.9034 20.8703C12.1234 27.7762 21.57 34.5464 26.3599 28.8191ZM71.8142 26.9996C75.6416 34.6795 86.963 29.9424 82.8415 21.6192L70.173-4.03696C69.2106-5.93683 67.8711-7.96989 66.6648-9.68636L58.6555-21.1234L59.2185-22.8399C61.3068-29.2408 62.1387-33.1235 62.5936-39.4162L63.8526-57.332C64.4683-65.9042 59.4044-72.2723 50.7871-72.2723C44.3084-72.2723 39.8904-68.9525 33.8917-63.087L24.3847-53.7131C21.3615-50.7427 20.2884-48.2824 19.9667-44.264L18.8685-29.5875C18.5745-25.8933 20.5547-23.3778 23.98-23.2446C27.433-23.0033 29.4661-24.9836 29.7877-28.8914L31.18-45.0154L35.7614-49.1143C37.4225-50.6146 39.6794-49.6521 39.5713-47.9054L38.5535-34.3272C38.0182-27.4188 39.6241-24.1794 44.3637-18.2611L56.8965-2.54174C58.1832-0.960997 58.3164-0.317637 58.8517 0.700165ZM93.3412-48.0612L78.9865-48.0612L69.7607-58.3073L68.7178-43.4802L72.5907-39.66C74.5987-37.6521 76.3377-37.0364 80.0319-37.0364L93.3412-37.0364C97.0355-37.0364 99.4706-39.1775 99.4706-42.5501C99.4706-45.8949 96.9827-48.0612 93.3412-48.0612ZM57.6654-77.9544C65.1091-77.9544 71.133-83.9783 71.133-91.3944C71.133-98.8381 65.1091-104.862 57.6654-104.862C50.1689-104.862 44.2255-98.8381 44.2255-91.3944C44.2255-83.9783 50.1689-77.9544 57.6654-77.9544Z"/>
  </g>
  <g id="Light-L" transform="matrix(1 0 0 1 1096.36 1556)">
   <path d="M25.9591 27.4831L44.1642 5.81241C45.9073 3.65413 46.242 3.18468 46.906 0.945985L48.5069-3.91637L38.9741-15.903L35.8377-1.5752L17.8271 19.8206C12.2761 26.4975 21.3601 33.0005 25.9591 27.4831ZM70.5927 25.74C74.2865 33.1145 85.2071 28.5492 81.2384 20.5313L68.818-4.57135C67.9128-6.39488 66.5924-8.33251 65.3861-10.0681L57.5104-21.2952L58.0734-23.0308C60.1045-29.298 60.9554-33.0853 61.3912-39.2254L62.6312-56.7404C63.2278-65.179 58.2211-71.2798 49.9283-71.2798C43.6404-71.2798 39.337-68.0555 33.4718-62.3045L24.1748-53.1215C21.2852-50.2656 20.193-47.9389 19.8713-43.9777L18.7921-29.6066C18.5172-26.0269 20.4211-23.6068 23.7128-23.4927C27.0513-23.2514 28.9889-25.1554 29.3106-28.9296L30.6647-44.7482L35.1888-48.7898C36.8309-50.2711 39.2023-49.3658 39.0751-47.5237L38.0764-34.2318C37.5602-27.4951 39.1088-24.3512 43.7339-18.5665L55.9804-3.20972C57.2671-1.64807 57.3812-1.00471 57.8974-0.00599011ZM91.5472-47.565L77.4978-47.565L68.1767-57.9446L67.191-43.652L71.3502-39.5264C73.3009-37.5758 74.9636-36.9791 78.5433-36.9791L91.5472-36.9791C95.1269-36.9791 97.4667-39.0439 97.4667-42.3019C97.4667-45.5132 95.0933-47.565 91.5472-47.565ZM56.5584-76.9429C63.8113-76.9429 69.6634-82.795 69.6634-90.0011C69.6634-97.254 63.8113-103.106 56.5584-103.106C49.2719-103.106 43.5002-97.254 43.5002-90.0011C43.5002-82.795 49.2719-76.9429 56.5584-76.9429Z"/>
  </g>
  <g id="Thin-L" transform="matrix(1 0 0 1 800.972 1556)">
   <path d="M25.429 25.7162L43.1293 4.67653C44.7714 2.56874 45.1567 2.14976 45.7449-0.038446L47.472-5.35515L38.3935-16.736L35.2571-2.35769L17.7261 18.4323C12.478 24.8063 21.0824 30.9559 25.429 25.7162ZM68.9773 24.074C72.4944 31.0447 82.8849 26.7065 79.1181 19.0925L67.0258-5.27812C66.1963-7.00068 64.9012-8.8121 63.6949-10.5729L55.9959-21.5224L56.5589-23.2832C58.5142-29.3737 59.3904-33.0348 59.801-38.973L61.0157-55.9579C61.5871-64.2198 56.6561-69.9673 48.7924-69.9673C42.757-69.9673 38.605-66.8691 32.9165-61.2695L23.8971-52.339C21.1842-49.6345 20.0667-47.4845 19.7451-43.5991L18.6912-29.6319C18.4415-26.2036 20.2445-23.9097 23.3595-23.8208C26.5465-23.5796 28.3579-25.3825 28.6796-28.9801L29.9831-44.3948L34.4316-48.3607C36.0484-49.8167 38.5712-48.9872 38.4188-47.0189L37.4453-34.1056C36.9544-27.5961 38.4272-24.5783 42.901-18.9703L54.7688-4.09319C56.0555-2.55677 56.1444-1.91341 56.6353-0.939937ZM89.1745-46.9087L75.529-46.9087L66.0816-57.465L65.1717-43.8791L69.7095-39.3498C71.5844-37.4748 73.1462-36.9034 76.5744-36.9034L89.1745-36.9034C92.6027-36.9034 94.8163-38.8672 94.8163-41.9738C94.8163-45.0084 92.5943-46.9087 89.1745-46.9087ZM55.0944-75.6051C62.0949-75.6051 67.7198-81.23 67.7198-88.1585C67.7198-95.159 62.0949-100.784 55.0944-100.784C48.0855-100.784 42.541-95.159 42.541-88.1585C42.541-81.23 48.0855-75.6051 55.0944-75.6051Z"/>
  </g>
  <g id="Ultralight-L" transform="matrix(1 0 0 1 504.94 1556)">
   <path d="M25.1575 24.8112L42.5992 4.09473C44.1896 2.0128 44.6007 1.61969 45.1502-0.542667L46.9419-6.09209L38.0961-17.1626L34.9598-2.75848L17.6744 17.7212C12.5814 23.94 20.9402 29.9086 25.1575 24.8112ZM68.1498 23.2208C71.5764 29.9846 81.6954 25.7627 78.032 18.3556L66.1079-5.64012C65.3172-7.31097 64.0349-9.05775 62.8286-10.8315L55.2202-21.6387L55.7831-23.4125C57.6997-29.4125 58.5888-33.009 58.9864-38.8437L60.1883-55.5571C60.7467-63.7285 55.8546-69.295 48.2106-69.295C42.3045-69.295 38.23-66.2615 32.6321-60.7395L23.7549-51.9382C21.1325-49.3113 20.0021-47.2518 19.6804-43.4051L18.6395-29.6448C18.4027-26.2941 20.154-24.0648 23.1785-23.9889C26.2879-23.7476 28.0347-25.4989 28.3563-29.0059L29.6341-44.2138L34.0437-48.1409C35.6476-49.584 38.248-48.7933 38.0827-46.7603L37.1221-34.0409C36.6441-27.6478 38.0782-24.6947 42.4743-19.1772L54.1482-4.54569C55.4349-3.02221 55.5109-2.37885 55.9889-1.4183ZM87.9592-46.5725L74.5205-46.5725L65.0085-57.2194L64.1374-43.9955L68.8691-39.2593C70.7053-37.4231 72.2153-36.8646 75.566-36.8646L87.9592-36.8646C91.3099-36.8646 93.4587-38.7767 93.4587-41.8057C93.4587-44.7498 91.3144-46.5725 87.9592-46.5725ZM54.3446-74.9199C61.2157-74.9199 66.7243-80.4284 66.7243-87.2147C66.7243-94.0859 61.2157-99.5944 54.3446-99.5944C47.4779-99.5944 42.0497-94.0859 42.0497-87.2147C42.0497-80.4284 47.4779-74.9199 54.3446-74.9199Z"/>
  </g>
  <g id="Black-M" transform="matrix(1 0 0 1 2884.9 1126)">
   <path d="M22.7622 19.0516L38.4528 0.436468C40.1206-1.53701 40.4782-2.08791 41.045-4.0095L41.2463-4.6645L31.6052-16.7111L29.5179-7.05408L14.2429 11.0832C8.47658 17.9501 17.9777 24.7553 22.7622 19.0516ZM59.425 17.3268C63.1702 24.8802 74.4527 20.1583 70.4009 11.9352L59.79-9.54191C58.9791-11.1578 57.9197-12.8414 56.7567-14.5492L50.3426-23.7059L50.6074-24.6143C52.2334-30.2963 53.1416-33.5271 53.5157-38.8615L54.57-53.9398C55.1258-61.8749 50.281-67.5121 42.6077-67.5121C36.8003-67.5121 32.7905-64.4891 27.7056-59.529L19.7016-51.707C17.0933-49.1042 16.0552-46.8178 15.7489-43.0684L14.7621-30.7225C14.4555-27.1022 16.6476-24.4737 20.0242-24.3488C23.4577-24.1048 25.6552-26.2968 25.9615-30.0473L27.0836-43.1721L30.0129-45.7847C30.8648-46.5691 32.1976-46.158 32.0785-44.8562L31.3253-34.6961C30.8889-29.0913 32.0268-25.9593 36.4001-20.537L46.9493-7.31799C47.889-6.12871 48.071-5.74446 48.5645-4.76293ZM78.3528-47.1626L66.7701-47.1626L60.7017-53.8068L59.6573-38.9711L60.2196-38.4143C62.0687-36.5652 63.7883-35.9522 67.1803-35.9522L78.3528-35.9522C82.0874-35.9522 84.5394-38.1547 84.5394-41.5258C84.5394-44.8973 82.0248-47.1626 78.3528-47.1626ZM48.8469-70.7941C55.6303-70.7941 61.1778-76.3416 61.1778-83.1253C61.1778-89.9087 55.6303-95.4562 48.8469-95.4562C42.058-95.4562 36.5157-89.9087 36.5157-83.1253C36.5157-76.3416 42.058-70.7941 48.8469-70.7941Z"/>
  </g>
  <g id="Heavy-M" transform="matrix(1 0 0 1 2588.94 1126)">
   <path d="M22.2638 18.1315L37.7012-0.204105C39.3183-2.11857 39.6406-2.6374 40.2132-4.52694L40.6294-5.80737L31.4117-17.348L29.2435-7.36242L14.1653 10.5518C8.6722 17.0916 17.7071 23.5646 22.2638 18.1315ZM58.6954 16.4708C62.2745 23.6869 73.0183 19.1901 69.1485 11.3448L58.6921-9.8291C57.889-11.4212 56.8321-13.0921 55.723-14.7081L49.3403-23.8232L49.6455-24.8285C51.2773-30.3578 52.1207-33.5489 52.4923-38.7955L53.5305-53.6449C54.0703-61.2927 49.4353-66.7998 41.9537-66.7998C36.3066-66.7998 32.4199-63.8703 27.4203-58.993L19.5387-51.2774C16.9752-48.7303 15.9885-46.5157 15.6957-42.9088L14.7384-30.752C14.4479-27.2952 16.4949-24.8143 19.7189-24.692C22.9888-24.4614 25.0523-26.5085 25.3451-30.1063L26.4621-43.1228L29.5454-45.876C30.5026-46.7522 31.9181-46.2544 31.8099-44.9533L31.0458-34.6699C30.6119-29.1016 31.7826-26.1036 36.0058-20.8609L46.3953-7.83867C47.3486-6.63847 47.5146-6.22728 47.992-5.28873ZM77.1693-46.7593L65.6543-46.7593L59.3441-53.6908L58.3478-39.5735L59.447-38.4907C61.2346-36.7032 62.8766-36.1197 66.159-36.1197L77.1693-36.1197C80.7133-36.1197 83.0447-38.2042 83.0447-41.4118C83.0447-44.6171 80.6533-46.7593 77.1693-46.7593ZM48.0114-70.3487C54.5806-70.3487 59.9434-75.7115 59.9434-82.2784C59.9434-88.8476 54.5806-94.2104 48.0114-94.2104C41.4258-94.2104 36.0817-88.8476 36.0817-82.2784C36.0817-75.7115 41.4258-70.3487 48.0114-70.3487Z"/>
  </g>
  <g id="Bold-M" transform="matrix(1 0 0 1 2293.06 1126)">
   <path d="M21.7063 17.1023L36.8604-0.920678C38.4208-2.76913 38.7037-3.2521 39.2827-5.10576L39.9394-7.08583L31.1951-18.0604L28.9365-7.70733L14.0785 9.95734C8.89104 16.1312 17.4043 22.2325 21.7063 17.1023ZM57.8792 15.5133C61.2726 22.352 71.4136 18.1071 67.7476 10.6843L57.4641-10.1504C56.6695-11.716 55.6155-13.3725 54.5667-14.8859L48.219-23.9545L48.5695-25.0682C50.2078-30.4267 50.9787-33.5734 51.3474-38.7217L52.3677-53.3151C52.8895-60.6413 48.4892-66.0029 41.222-66.0029C35.7543-66.0029 32.0053-63.1782 27.1011-58.3934L19.3565-50.7969C16.8432-48.3121 15.9139-46.1778 15.6361-42.7302L14.7119-30.785C14.4393-27.5112 16.3242-25.1953 19.3774-25.0759C22.4643-24.8604 24.3778-26.7453 24.6556-30.1723L25.7668-43.0677L29.0225-45.9781C30.0974-46.9569 31.6054-46.3622 31.5094-45.0619L30.7331-34.6405C30.3021-29.113 31.5095-26.265 35.5647-21.2232L45.7757-8.42113C46.744-7.20872 46.8921-6.76738 47.3516-5.8769ZM75.8453-46.3081L64.4063-46.3081L57.8255-53.5611L56.883-40.2474L58.5828-38.5762C60.3015-36.8575 61.8567-36.3071 65.0164-36.3071L75.8453-36.3071C79.1762-36.3071 81.3727-38.2595 81.3727-41.2841C81.3727-44.3036 79.119-46.3081 75.8453-46.3081ZM47.0767-69.8504C53.4063-69.8504 58.5625-75.0066 58.5625-81.331C58.5625-87.6606 53.4063-92.8167 47.0767-92.8167C40.7185-92.8167 35.5962-87.6606 35.5962-81.331C35.5962-75.0066 40.7185-69.8504 47.0767-69.8504Z"/>
  </g>
  <g id="Semibold-M" transform="matrix(1 0 0 1 1996.93 1126)">
   <path d="M21.322 16.3927L36.2808-1.41468C37.8021-3.21763 38.0577-3.67586 38.6413-5.5048L39.4637-7.9672L31.0459-18.5515L28.7249-7.94511L14.0186 9.54754C9.0419 15.4691 17.1955 21.3142 21.322 16.3927ZM57.3166 14.8532C60.5818 21.4317 70.3073 17.3604 66.7818 10.229L56.6174-10.3718C55.8288-11.9192 54.7767-13.5659 53.7695-15.0085L47.446-24.045L47.8277-25.2334C49.4705-30.4742 50.1914-33.5902 50.5581-38.6708L51.566-53.0877C52.0755-60.1923 47.837-65.4535 40.7176-65.4535C35.3735-65.4535 31.7195-62.701 26.881-57.98L19.2309-50.4656C16.7522-48.0238 15.8625-45.9449 15.5951-42.6071L14.6936-30.8078C14.4334-27.6601 16.2064-25.458 19.142-25.3405C22.1028-25.1354 23.9129-26.9085 24.1803-30.2179L25.2875-43.0297L28.662-46.0485C29.818-47.0981 31.3898-46.4366 31.3022-45.1368L30.5175-34.6202C30.0885-29.1209 31.3211-26.3762 35.2607-21.4729L45.3485-8.82267C46.3272-7.60184 46.4629-7.13972 46.9101-6.28239ZM74.9325-45.997L63.5458-45.997L56.7785-53.4717L55.8731-40.712L57.987-38.6352C59.6582-36.9639 61.1536-36.4363 64.2287-36.4363L74.9325-36.4363C78.1165-36.4363 80.22-38.2977 80.22-41.1962C80.22-44.0875 78.0613-45.997 74.9325-45.997ZM46.4324-69.5069C52.5968-69.5069 57.6105-74.5206 57.6105-80.6779C57.6105-86.8423 52.5968-91.856 46.4324-91.856C40.231-91.856 35.2614-86.8423 35.2614-80.6779C35.2614-74.5206 40.231-69.5069 46.4324-69.5069Z"/>
  </g>
  <g id="Medium-M" transform="matrix(1 0 0 1 1700.65 1126)">
   <path d="M21.0306 15.8547L35.8413-1.78925C37.333-3.55769 37.568-3.99718 38.1549-5.80736L39.1029-8.63549L30.9327-18.9239L28.5645-8.12541L13.9732 9.23681C9.1563 14.9671 17.0373 20.6179 21.0306 15.8547ZM56.89 14.3527C60.0581 20.7339 69.4685 16.7943 66.0495 9.88376L55.9755-10.5398C55.1913-12.0733 54.1408-13.7125 53.1651-15.1014L46.8599-24.1136L47.2652-25.3586C48.9114-30.5102 49.5944-33.603 49.9596-38.6322L50.9582-52.9153C51.4583-59.8518 47.3425-65.037 40.3352-65.037C35.0848-65.037 31.5028-62.3392 26.7142-57.6666L19.1357-50.2144C16.6832-47.8052 15.8235-45.7683 15.564-42.5138L14.6798-30.8251C14.4289-27.773 16.1172-25.6572 18.9635-25.5412C21.8286-25.344 23.5603-27.0323 23.8198-30.2524L24.9241-43.0009L28.3886-46.1019C29.6062-47.2051 31.2264-46.4929 31.1452-45.1935L30.3541-34.6049C29.9266-29.1269 31.1783-26.4606 35.0301-21.6623L45.0246-9.12714C46.0112-7.89992 46.1375-7.42204 46.5753-6.58985ZM74.2404-45.7611L62.8934-45.7611L55.9847-53.4039L55.1074-41.0643L57.5353-38.6799C59.1705-37.0446 60.6205-36.5342 63.6314-36.5342L74.2404-36.5342C77.313-36.5342 79.346-38.3266 79.346-41.1294C79.346-43.9237 77.2593-45.7611 74.2404-45.7611ZM45.9438-69.2464C51.983-69.2464 56.8887-74.1521 56.8887-80.1827C56.8887-86.2218 51.983-91.1275 45.9438-91.1275C39.8613-91.1275 35.0076-86.2218 35.0076-80.1827C35.0076-74.1521 39.8613-69.2464 45.9438-69.2464Z"/>
  </g>
  <g id="Regular-M" transform="matrix(1 0 0 1 1404.51 1126)">
   <path d="M20.6505 15.1529L35.268-2.27782C36.7211-4.00125 36.9291-4.41628 37.5205-6.20202L38.6324-9.50717L30.7851-19.4096L28.3552-8.36058L13.914 8.83151C9.3055 14.3123 16.8308 19.7097 20.6505 15.1529ZM56.3335 13.6998C59.3749 19.8238 68.3744 16.0558 65.0944 9.43345L55.1382-10.7588C54.3599-12.2742 53.3112-13.9037 52.3767-15.2226L46.0955-24.2031L46.5316-25.522C48.1822-30.5571 48.8158-33.6196 49.179-38.5819L50.1654-52.6904C50.6532-59.4078 46.6974-64.4936 39.8363-64.4936C34.7083-64.4936 31.2202-61.8673 26.4966-57.2577L19.0115-49.8867C16.5931-47.5201 15.7726-45.5379 15.5234-42.392L14.6617-30.8476C14.423-27.9202 16.0008-25.9169 18.7306-25.8029C21.471-25.616 23.1005-27.1937 23.3497-30.2974L24.4501-42.9633L28.0321-46.1715C29.3299-47.3447 31.0132-46.5664 30.9403-45.2676L30.1409-34.5848C29.7153-29.1347 30.9921-26.5706 34.7294-21.9093L44.6021-9.52427C45.599-8.28872 45.7131-7.79029 46.1387-6.99088ZM73.3377-45.4535L62.0424-45.4535L54.9493-53.3154L54.1087-41.5238L56.946-38.7382C58.5343-37.1499 59.9251-36.662 62.8524-36.662L73.3377-36.662C76.265-36.662 78.206-38.3643 78.206-41.0424C78.206-43.71 76.2133-45.4535 73.3377-45.4535ZM45.3066-68.9067C51.1823-68.9067 55.9471-73.6715 55.9471-79.5367C55.9471-85.4124 51.1823-90.1773 45.3066-90.1773C39.3791-90.1773 34.6766-85.4124 34.6766-79.5367C34.6766-73.6715 39.3791-68.9067 45.3066-68.9067Z"/>
  </g>
  <g id="Light-M" transform="matrix(1 0 0 1 1108.7 1126)">
   <path d="M20.2912 13.9552L34.5664-3.04782C35.9511-4.73702 36.1933-5.11783 36.7334-6.86934L37.9309-10.4825L30.3915-19.9743L27.9616-8.89102L13.8456 7.89041C9.44239 13.1659 16.6426 18.3237 20.2912 13.9552ZM55.2384 12.5705C58.16 18.4207 66.8002 14.8067 63.6571 8.45813L53.9233-11.2379C53.1963-12.6849 52.1648-14.2288 51.2302-15.5649L45.0688-24.3571L45.5049-25.6931C47.1042-30.6085 47.7549-33.5854 48.101-38.4108L49.0703-52.16C49.541-58.7575 45.6365-63.6039 39.0663-63.6039C34.1094-63.6039 30.724-61.0631 26.1201-56.5562L18.8233-49.3562C16.5247-47.0923 15.6871-45.2299 15.4379-42.1354L14.5933-30.8647C14.3717-28.04 15.881-26.1223 18.4911-26.0253C21.1288-25.8384 22.6727-27.3477 22.9219-30.3316L23.9881-42.7238L27.5188-45.8806C28.7995-47.0368 30.5854-46.3098 30.4954-44.9254L29.7131-34.4993C29.3047-29.2031 30.5301-26.7246 34.1647-22.1831L43.7808-10.1231C44.7777-8.90472 44.8746-8.40628 45.2831-7.62398ZM71.7293-45.0086L60.7078-45.0086L53.5291-52.9903L52.7398-41.6778L55.8338-38.6184C57.3707-37.0814 58.6931-36.6107 61.5178-36.6107L71.7293-36.6107C74.5539-36.6107 76.4094-38.2445 76.4094-40.82C76.4094-43.3678 74.5193-45.0086 71.7293-45.0086ZM44.3142-67.9998C50.0188-67.9998 54.6296-72.6106 54.6296-78.2876C54.6296-83.9922 50.0188-88.603 44.3142-88.603C38.5749-88.603 34.0264-83.9922 34.0264-78.2876C34.0264-72.6106 38.5749-67.9998 44.3142-67.9998Z"/>
  </g>
  <g id="Thin-M" transform="matrix(1 0 0 1 813.175 1126)">
   <path d="M19.8159 12.371L33.6386-4.06619C34.9327-5.71014 35.2202-6.04569 35.6924-7.75194L37.003-11.7724L29.871-20.7211L27.4411-9.59257L13.7551 6.64572C9.62343 11.6496 16.3937 16.4907 19.8159 12.371ZM53.7901 11.0769C56.5533 16.565 64.7182 13.1547 61.7561 7.16819L52.3165-11.8716C51.6574-13.228 50.6486-14.6588 49.714-16.0175L43.711-24.5607L44.1471-25.9194C45.6784-30.6764 46.3518-33.5401 46.6753-38.1845L47.6219-51.4584C48.07-57.8976 44.2334-62.4271 38.048-62.4271C33.3173-62.4271 30.0677-59.9994 25.6223-55.6283L18.5743-48.6547C16.4342-46.5266 15.5739-44.8226 15.3247-41.7959L14.5027-30.8873C14.3038-28.1984 15.7226-26.3938 18.1742-26.3195C20.6762-26.1326 22.1069-27.5514 22.3562-30.3769L23.3771-42.4069L26.8399-45.4959C28.098-46.6294 30.0196-45.9703 29.907-44.4728L29.1474-34.3861C28.7615-29.2937 29.9191-26.9283 33.4179-22.5452L42.6946-10.9152C43.6914-9.71942 43.7657-9.22098 44.1516-8.46131ZM69.602-44.4202L58.9426-44.4202L51.6507-52.5604L50.9293-41.8814L54.3628-38.46C55.8319-36.9909 57.0637-36.5428 59.7526-36.5428L69.602-36.5428C72.2909-36.5428 74.0331-38.0861 74.0331-40.5258C74.0331-42.9151 72.2788-44.4202 69.602-44.4202ZM43.0016-66.8004C48.4799-66.8004 52.887-71.2075 52.887-76.6356C52.887-82.1139 48.4799-86.521 43.0016-86.521C37.5112-86.521 33.1664-82.1139 33.1664-76.6356C33.1664-71.2075 37.5112-66.8004 43.0016-66.8004Z"/>
  </g>
  <g id="Ultralight-M" transform="matrix(1 0 0 1 517.073 1126)">
   <path d="M19.5725 11.5596L33.1633-4.5878C34.4111-6.20856 34.7218-6.52093 35.1592-8.204L36.5278-12.4331L29.6044-21.1036L27.1745-9.9519L13.7087 6.0082C9.71616 10.873 16.2662 15.5518 19.5725 11.5596ZM53.0482 10.3119C55.7303 15.6145 63.6518 12.3086 60.7824 6.50748L51.4936-12.1961C50.8692-13.5062 49.8719-14.879 48.9374-16.2493L43.0155-24.6651L43.4516-26.0353C44.9482-30.7111 45.6331-33.517 45.9451-38.0686L46.8801-51.0991C47.3166-57.4571 43.5148-61.8243 37.5264-61.8243C32.9116-61.8243 29.7315-59.4546 25.3673-55.1531L18.4468-48.2954C16.3878-46.2368 15.516-44.6139 15.2668-41.622L14.4564-30.8989C14.269-28.2796 15.6414-26.5329 18.0119-26.4702C20.4444-26.2833 21.8172-27.6557 22.0664-30.4L23.0641-42.2447L26.4921-45.2989C27.7386-46.4208 29.7299-45.7964 29.6057-44.2409L28.8576-34.3282C28.4833-29.34 29.6061-27.0326 33.0354-22.7307L42.1382-11.3209C43.135-10.1367 43.1978-9.63827 43.572-8.89019ZM68.5124-44.1189L58.0385-44.1189L50.6886-52.3401L50.002-41.9858L53.6094-38.3788C55.0437-36.9446 56.2291-36.508 58.8485-36.508L68.5124-36.508C71.1317-36.508 72.8161-38.005 72.8161-40.3751C72.8161-42.6833 71.1313-44.1189 68.5124-44.1189ZM42.3293-66.1861C47.6917-66.1861 51.9945-70.4889 51.9945-75.7894C51.9945-81.1518 47.6917-85.4546 42.3293-85.4546C36.9665-85.4546 32.726-81.1518 32.726-75.7894C32.726-70.4889 36.9665-66.1861 42.3293-66.1861Z"/>
  </g>
  <g id="Black-S" transform="matrix(1 0 0 1 2895.22 696)">
   <path d="M17.9688 7.51953L30.3223-7.12891C31.6406-8.69141 31.9336-9.13086 32.373-10.6445L32.4707-10.9863L24.8047-20.5566L23.1934-13.0859L11.1816 1.17188C6.5918 6.64062 14.1602 12.0605 17.9688 7.51953ZM46.7285 6.15234C49.707 12.1582 58.6914 8.39844 55.4688 1.85547L47.1191-15.0391C46.4844-16.3086 45.6543-17.627 44.7266-18.9941L39.6973-26.1719L39.8926-26.8555C41.1621-31.3477 41.8945-33.8867 42.1875-38.0859L43.0176-49.9512C43.457-56.25 39.5996-60.6934 33.5449-60.6934C28.9551-60.6934 25.7812-58.3008 21.7773-54.3945L15.4785-48.2422C13.4277-46.1914 12.5977-44.3848 12.3535-41.4062L11.5723-31.6895C11.3281-28.8086 13.0859-26.709 15.7715-26.6113C18.5059-26.416 20.2637-28.1738 20.5078-31.1523L21.3867-41.4551L23.6328-43.457C24.2676-44.043 25.293-43.75 25.1953-42.7246L24.6094-34.8145C24.2676-30.4199 25.1465-27.9297 28.6133-23.6328L36.9141-13.2324C37.6465-12.3047 37.793-12.0117 38.1836-11.2305ZM61.6699-44.6777L52.5879-44.6777L47.9004-49.8047L47.0703-37.9883L47.3633-37.6953C48.8281-36.2305 50.1953-35.7422 52.8809-35.7422L61.6699-35.7422C64.6484-35.7422 66.6016-37.5 66.6016-40.1855C66.6016-42.8711 64.5996-44.6777 61.6699-44.6777ZM38.4766-63.1836C43.8477-63.1836 48.2422-67.5781 48.2422-72.9492C48.2422-78.3203 43.8477-82.7148 38.4766-82.7148C33.1055-82.7148 28.7109-78.3203 28.7109-72.9492C28.7109-67.5781 33.1055-63.1836 38.4766-63.1836Z"/>
  </g>
  <g id="Heavy-S" transform="matrix(1 0 0 1 2599.03 696)">
   <path d="M17.5884 6.88569L29.7691-7.57836C31.0529-9.09476 31.3113-9.51117 31.7623-11.0018L32.0328-11.8391L24.6894-21.0291L23.009-13.2819L11.124 0.837666C6.74161 6.05288 13.9527 11.2193 17.5884 6.88569ZM46.2445 5.5646C49.0962 11.3169 57.6657 7.73002 54.5814 1.47516L46.3355-15.2235C45.7007-16.4815 44.8706-17.7998 43.989-19.0863L38.9712-26.2525L39.2011-27.0168C40.4822-31.3938 41.157-33.9098 41.4499-38.0514L42.2685-49.7668C42.6964-55.8351 39.0119-60.1978 33.0839-60.1978C28.6093-60.1978 25.5277-57.8744 21.5814-54.0257L15.3633-47.9426C13.3355-45.9263 12.5516-44.1658 12.3189-41.3025L11.5607-31.7125C11.3281-28.9584 12.9707-26.974 15.541-26.8764C18.1486-26.6926 19.8027-28.3352 20.0353-31.1984L20.9142-41.4436L23.2986-43.5723C24.0256-44.2389 25.1086-43.8652 25.0224-42.8514L24.425-34.8029C24.0832-30.4199 24.9967-28.0334 28.3482-23.8748L36.5453-13.6012C37.2892-12.6619 37.4242-12.3459 37.8033-11.5993ZM60.8632-44.3896L51.8042-44.3896L46.9208-49.7471L46.1253-38.4838L46.8447-37.776C48.2634-36.3572 49.573-35.892 52.1779-35.892L60.8632-35.892C63.6919-35.892 65.5528-37.5576 65.5528-40.1164C65.5528-42.6752 63.6431-44.3896 60.8632-44.3896ZM37.8888-62.9185C43.0986-62.9185 47.3548-67.1748 47.3548-72.3845C47.3548-77.5943 43.0986-81.8505 37.8888-81.8505C32.6675-81.8505 28.4228-77.5943 28.4228-72.3845C28.4228-67.1748 32.6675-62.9185 37.8888-62.9185Z"/>
  </g>
  <g id="Bold-S" transform="matrix(1 0 0 1 2302.91 696)">
   <path d="M17.1631 6.17676L29.1504-8.08105C30.3955-9.5459 30.6152-9.93652 31.0791-11.4014L31.543-12.793L24.5605-21.5576L22.8027-13.501L11.0596 0.463867C6.90918 5.39551 13.7207 10.2783 17.1631 6.17676ZM45.7031 4.90723C48.4131 10.376 56.5186 6.98242 53.5889 1.0498L45.459-15.4297C44.8242-16.6748 43.9941-17.9932 43.1641-19.1895L38.1592-26.3428L38.4277-27.1973C39.7217-31.4453 40.332-33.9355 40.625-38.0127L41.4307-49.5605C41.8457-55.3711 38.3545-59.6436 32.5684-59.6436C28.2227-59.6436 25.2441-57.3975 21.3623-53.6133L15.2344-47.6074C13.2324-45.6299 12.5-43.9209 12.2803-41.1865L11.5479-31.7383C11.3281-29.126 12.8418-27.2705 15.2832-27.1729C17.749-27.002 19.2871-28.5156 19.5068-31.25L20.3857-41.4307L22.9248-43.7012C23.7549-44.458 24.9023-43.9941 24.8291-42.9932L24.2188-34.79C23.877-30.4199 24.8291-28.1494 28.0518-24.1455L36.1328-14.0137C36.8896-13.0615 37.0117-12.7197 37.3779-12.0117ZM59.9609-44.0674L50.9277-44.0674L45.8252-49.6826L45.0684-39.0381L46.2646-37.8662C47.6318-36.499 48.877-36.0596 51.3916-36.0596L59.9609-36.0596C62.6221-36.0596 64.3799-37.6221 64.3799-40.0391C64.3799-42.4561 62.5732-44.0674 59.9609-44.0674ZM37.2314-62.6221C42.2607-62.6221 46.3623-66.7236 46.3623-71.7529C46.3623-76.7822 42.2607-80.8838 37.2314-80.8838C32.1777-80.8838 28.1006-76.7822 28.1006-71.7529C28.1006-66.7236 32.1777-62.6221 37.2314-62.6221Z"/>
  </g>
  <g id="Semibold-S" transform="matrix(1 0 0 1 2006.6 696)">
   <path d="M16.8698 5.68799L28.7238-8.42764C29.9423-9.85693 30.1354-10.2298 30.6081-11.6769L31.2053-13.4506L24.4717-21.922L22.6605-13.6521L11.0151 0.206152C7.02471 4.94229 13.5607 9.62959 16.8698 5.68799ZM45.3299 4.454C47.9421 9.72725 55.7276 6.46699 52.9046 0.756543L44.8547-15.5719C44.2199-16.8081 43.3898-18.1265 42.5953-19.2605L37.5993-26.405L37.8945-27.3217C39.1974-31.4809 39.7633-33.9533 40.0562-37.986L40.853-49.4184C41.2592-55.0512 37.9013-59.2614 32.2129-59.2614C27.9561-59.2614 25.0486-57.0687 21.2112-53.3289L15.1455-47.3764C13.1613-45.4255 12.4645-43.7521 12.2536-41.1065L11.539-31.7561C11.3281-29.2415 12.7529-27.4749 15.1055-27.3772C17.4735-27.2152 18.9316-28.64 19.1425-31.2855L20.0214-41.4218L22.6671-43.79C23.5683-44.6091 24.7602-44.083 24.6958-43.0909L24.0766-34.7812C23.7348-30.4199 24.7136-28.2294 27.8474-24.3321L35.8484-14.298C36.6142-13.337 36.7273-12.9774 37.0847-12.2961ZM59.3389-43.8452L50.3234-43.8452L45.0698-49.6382L44.3396-39.4202L45.8647-37.9284C47.1964-36.5968 48.3971-36.1751 50.8495-36.1751L59.3389-36.1751C61.8845-36.1751 63.5712-37.6665 63.5712-39.9857C63.5712-42.305 61.8356-43.8452 59.3389-43.8452ZM36.7782-62.4177C41.6831-62.4177 45.678-66.4126 45.678-71.3175C45.678-76.2224 41.6831-80.2173 36.7782-80.2173C31.84-80.2173 27.8784-76.2224 27.8784-71.3175C27.8784-66.4126 31.84-62.4177 36.7782-62.4177Z"/>
  </g>
  <g id="Medium-S" transform="matrix(1 0 0 1 1710.19 696)">
   <path d="M16.6475 5.31738L28.4004-8.69043C29.5986-10.0928 29.7715-10.4521 30.251-11.8857L30.9492-13.9492L24.4043-22.1982L22.5527-13.7666L10.9814 0.0107422C7.1123 4.59863 13.4395 9.1377 16.6475 5.31738ZM45.0469 4.11035C47.585 9.23535 55.1279 6.07617 52.3857 0.53418L44.3965-15.6797C43.7617-16.9092 42.9316-18.2275 42.1641-19.3145L37.1748-26.4521L37.4902-27.416C38.7998-31.5078 39.332-33.9668 39.625-37.9658L40.415-49.3105C40.8145-54.8086 37.5576-58.9717 31.9434-58.9717C27.7539-58.9717 24.9004-56.8193 21.0967-53.1133L15.0781-47.2012C13.1074-45.2705 12.4375-43.624 12.2334-41.0459L11.5322-31.7695C11.3281-29.3291 12.6855-27.6299 14.9707-27.5322C17.2646-27.377 18.6621-28.7344 18.8662-31.3125L19.7451-41.415L22.4717-43.8574C23.4268-44.7236 24.6523-44.1504 24.5947-43.165L23.9688-34.7744C23.627-30.4199 24.626-28.29 27.6924-24.4736L35.6328-14.5137C36.4053-13.5459 36.5117-13.1729 36.8623-12.5117ZM58.8672-43.6768L49.8652-43.6768L44.4971-49.6045L43.7871-39.71L45.5615-37.9756C46.8662-36.6709 48.0332-36.2627 50.4385-36.2627L58.8672-36.2627C61.3252-36.2627 62.958-37.7002 62.958-39.9453C62.958-42.1904 61.2764-43.6768 58.8672-43.6768ZM36.4346-62.2627C41.2451-62.2627 45.1592-66.1768 45.1592-70.9873C45.1592-75.7979 41.2451-79.7119 36.4346-79.7119C31.584-79.7119 27.71-75.7979 27.71-70.9873C27.71-66.1768 31.584-62.2627 36.4346-62.2627Z"/>
  </g>
  <g id="Regular-S" transform="matrix(1 0 0 1 1413.88 696)">
   <path d="M16.3574 4.83398L27.9785-9.0332C29.1504-10.4004 29.2969-10.7422 29.7852-12.1582L30.6152-14.5996L24.3164-22.5586L22.4121-13.916L10.9375-0.244141C7.22656 4.15039 13.2812 8.49609 16.3574 4.83398ZM44.6777 3.66211C47.1191 8.59375 54.3457 5.56641 51.709 0.244141L43.7988-15.8203C43.1641-17.041 42.334-18.3594 41.6016-19.3848L36.6211-26.5137L36.9629-27.5391C38.2812-31.543 38.7695-33.9844 39.0625-37.9395L39.8438-49.1699C40.2344-54.4922 37.1094-58.5938 31.5918-58.5938C27.4902-58.5938 24.707-56.4941 20.9473-52.832L14.9902-46.9727C13.0371-45.0684 12.4023-43.457 12.207-40.9668L11.5234-31.7871C11.3281-29.4434 12.5977-27.832 14.7949-27.7344C16.9922-27.5879 18.3105-28.8574 18.5059-31.3477L19.3848-41.4062L22.2168-43.9453C23.2422-44.873 24.5117-44.2383 24.4629-43.2617L23.8281-34.7656C23.4863-30.4199 24.5117-28.3691 27.4902-24.6582L35.3516-14.7949C36.1328-13.8184 36.2305-13.4277 36.5723-12.793ZM58.252-43.457L49.2676-43.457L43.75-49.5605L43.0664-40.0879L45.166-38.0371C46.4355-36.7676 47.5586-36.377 49.9023-36.377L58.252-36.377C60.5957-36.377 62.1582-37.7441 62.1582-39.8926C62.1582-42.041 60.5469-43.457 58.252-43.457ZM35.9863-62.0605C40.6738-62.0605 44.4824-65.8691 44.4824-70.5566C44.4824-75.2441 40.6738-79.0527 35.9863-79.0527C31.25-79.0527 27.4902-75.2441 27.4902-70.5566C27.4902-65.8691 31.25-62.0605 35.9863-62.0605Z"/>
  </g>
  <g id="Light-S" transform="matrix(1 0 0 1 1117.97 696)">
   <path d="M16.0396 3.77442L27.3579-9.71435C28.4692-11.0513 28.646-11.3628 29.0889-12.7485L29.9946-15.4624L23.9683-23.0581L22.064-14.3853L10.877-1.07665C7.34766 3.13624 13.1147 7.27003 16.0396 3.77442ZM43.709 2.66309C46.0444 7.35255 52.9531 4.46143 50.4375-0.618646L42.7241-16.2441C42.1348-17.4043 41.3198-18.647 40.5874-19.6875L35.7129-26.6499L36.0547-27.6904C37.3276-31.5884 37.8311-33.9541 38.1089-37.7881L38.875-48.7007C39.2505-53.917 36.1709-57.8066 30.9106-57.8066C26.9605-57.8066 24.2681-55.7827 20.6143-52.2114L14.8237-46.5034C12.9766-44.6899 12.3267-43.1846 12.1313-40.7397L11.4629-31.8022C11.2827-29.5493 12.4917-28.0137 14.583-27.9312C16.6895-27.7847 17.9321-28.9937 18.1274-31.3779L18.9761-41.1943L21.7627-43.688C22.773-44.6006 24.1333-44.0112 24.0693-42.959L23.4497-34.6899C23.123-30.4805 24.103-28.5054 26.9907-24.9004L34.625-15.3247C35.4063-14.3633 35.4888-13.9727 35.8154-13.353ZM56.8291-43.0635L48.0869-43.0635L42.4937-49.273L41.8555-40.2241L44.1821-37.9312C45.4063-36.707 46.4688-36.3315 48.7217-36.3315L56.8291-36.3315C59.082-36.3315 60.5689-37.6382 60.5689-39.6958C60.5689-41.7383 59.0484-43.0635 56.8291-43.0635ZM35.1084-61.2583C39.6445-61.2583 43.3169-64.9307 43.3169-69.4517C43.3169-73.9878 39.6445-77.6602 35.1084-77.6602C30.5386-77.6602 26.915-73.9878 26.915-69.4517C26.915-64.9307 30.5386-61.2583 35.1084-61.2583Z"/>
  </g>
  <g id="Thin-S" transform="matrix(1 0 0 1 822.306 696)">
   <path d="M15.6191 2.37307L26.5371-10.6152C27.5684-11.9121 27.7852-12.1836 28.168-13.5293L29.1738-16.6035L23.5078-23.7187L21.6035-15.0059L10.7969-2.17772C7.50781 1.79494 12.8945 5.64846 15.6191 2.37307ZM42.4278 1.34182C44.6231 5.71096 51.1114 3.00002 48.7559-1.75975L41.3028-16.8047C40.7735-17.8848 39.9785-19.0273 39.2461-20.0879L34.5117-26.8301L34.8535-27.8906C36.0664-31.6484 36.5899-33.9141 36.8477-37.5879L37.5938-48.0801C37.9492-53.1563 34.9297-56.7656 30.0098-56.7656C26.2598-56.7656 23.6875-54.8418 20.1738-51.3906L14.6035-45.8828C12.8965-44.1895 12.2266-42.8242 12.0313-40.4395L11.3828-31.8223C11.2227-29.6895 12.3516-28.2539 14.3027-28.1914C16.2891-28.0449 17.4316-29.1738 17.627-31.418L18.4356-40.9141L21.1621-43.3477C22.1524-44.2402 23.6328-43.7109 23.5488-42.5586L22.9492-34.5898C22.6426-30.5605 23.5625-28.6855 26.3301-25.2207L33.6641-16.0254C34.4453-15.084 34.5078-14.6933 34.8145-14.0937ZM54.9473-42.543L46.5254-42.543L40.8321-48.8926L40.2539-40.4043L42.8809-37.791C44.0449-36.627 45.0274-36.2715 47.1602-36.2715L54.9473-36.2715C57.0801-36.2715 58.4668-37.498 58.4668-39.4356C58.4668-41.3379 57.0664-42.543 54.9473-42.543ZM33.9473-60.1973C38.2832-60.1973 41.7754-63.6895 41.7754-67.9903C41.7754-72.3262 38.2832-75.8184 33.9473-75.8184C29.5977-75.8184 26.1543-72.3262 26.1543-67.9903C26.1543-63.6895 29.5977-60.1973 33.9473-60.1973Z"/>
  </g>
  <g id="Ultralight-S" transform="matrix(1 0 0 1 526.133 696)">
   <path d="M15.4038 1.6553L26.1167-11.0766C27.1069-12.353 27.3443-12.604 27.6963-13.9292L28.7534-17.188L23.272-24.0571L21.3677-15.3237L10.7559-2.74168C7.58984 1.10793 12.7817 4.8179 15.4038 1.6553ZM41.7715 0.665063C43.895 4.87015 50.168 2.25149 47.8946-2.34422L40.5747-17.0918C40.0762-18.1309 39.2915-19.2222 38.5591-20.293L33.8965-26.9224L34.2383-27.9932C35.4204-31.6792 35.9541-33.8936 36.2017-37.4854L36.9375-47.7622C37.2827-52.7666 34.294-56.2324 29.5484-56.2324C25.9009-56.2324 23.3901-54.3599 19.9483-50.9702L14.4907-45.565C12.8555-43.9331 12.1753-42.6397 11.98-40.2856L11.3418-31.8325C11.1919-29.7612 12.2798-28.3769 14.1592-28.3247C16.084-28.1782 17.1753-29.2661 17.3706-31.4385L18.1587-40.7705L20.8545-43.1733C21.8345-44.0557 23.3765-43.5571 23.2822-42.3535L22.6929-34.5386C22.3965-30.6016 23.2857-28.7778 25.9917-25.3848L33.1719-16.3843C33.9531-15.4531 34.0054-15.0625 34.3018-14.4731ZM53.9834-42.2764L45.7256-42.2764L39.981-48.6978L39.4336-40.4966L42.2144-37.7192C43.3477-36.5859 44.2891-36.2407 46.3604-36.2407L53.9834-36.2407C56.0547-36.2407 57.3902-37.4263 57.3902-39.3023C57.3902-41.1328 56.0513-42.2764 53.9834-42.2764ZM33.3526-59.6538C37.586-59.6538 40.9859-63.0537 40.9859-67.2417C40.9859-71.4751 37.586-74.875 33.3526-74.875C29.1157-74.875 25.7647-71.4751 25.7647-67.2417C25.7647-63.0537 29.1157-59.6538 33.3526-59.6538Z"/>
  </g>
 </g>
</svg>
