<?xml version="1.0" encoding="UTF-8"?>
<!--Generator: Apple Native CoreSVG 175.5-->
<!DOCTYPE svg
PUBLIC "-//W3C//DTD SVG 1.1//EN"
       "http://www.w3.org/Graphics/SVG/1.1/DTD/svg11.dtd">
<svg version="1.1" xmlns="http://www.w3.org/2000/svg" xmlns:xlink="http://www.w3.org/1999/xlink" width="3300" height="2200">
 <!--glyph: "uni100763.medium", point size: 100.0, font version: "18.0d10e1", template writer version: "90"-->
 <g id="Notes">
  <rect height="2200" id="artboard" style="fill:white;opacity:1" width="3300" x="0" y="0"/>
  <line style="fill:none;stroke:black;opacity:1;stroke-width:0.5;" x1="263" x2="3036" y1="292" y2="292"/>
  <text style="stroke:none;fill:black;font-family:sans-serif;font-size:13;font-weight:bold;" transform="matrix(1 0 0 1 263 322)">Weight/Scale Variations</text>
  <text style="stroke:none;fill:black;font-family:sans-serif;font-size:13;text-anchor:middle;" transform="matrix(1 0 0 1 559.711 322)">Ultralight</text>
  <text style="stroke:none;fill:black;font-family:sans-serif;font-size:13;text-anchor:middle;" transform="matrix(1 0 0 1 856.422 322)">Thin</text>
  <text style="stroke:none;fill:black;font-family:sans-serif;font-size:13;text-anchor:middle;" transform="matrix(1 0 0 1 1153.13 322)">Light</text>
  <text style="stroke:none;fill:black;font-family:sans-serif;font-size:13;text-anchor:middle;" transform="matrix(1 0 0 1 1449.84 322)">Regular</text>
  <text style="stroke:none;fill:black;font-family:sans-serif;font-size:13;text-anchor:middle;" transform="matrix(1 0 0 1 1746.56 322)">Medium</text>
  <text style="stroke:none;fill:black;font-family:sans-serif;font-size:13;text-anchor:middle;" transform="matrix(1 0 0 1 2043.27 322)">Semibold</text>
  <text style="stroke:none;fill:black;font-family:sans-serif;font-size:13;text-anchor:middle;" transform="matrix(1 0 0 1 2339.98 322)">Bold</text>
  <text style="stroke:none;fill:black;font-family:sans-serif;font-size:13;text-anchor:middle;" transform="matrix(1 0 0 1 2636.69 322)">Heavy</text>
  <text style="stroke:none;fill:black;font-family:sans-serif;font-size:13;text-anchor:middle;" transform="matrix(1 0 0 1 2933.4 322)">Black</text>
  <line style="fill:none;stroke:black;opacity:1;stroke-width:0.5;" x1="263" x2="3036" y1="1903" y2="1903"/>
  <g transform="matrix(1 0 0 1 263 1933)">
   <path d="M9.24805 0.830078C13.5547 0.830078 17.1387-2.74414 17.1387-7.05078C17.1387-11.3574 13.5449-14.9316 9.23828-14.9316C4.94141-14.9316 1.36719-11.3574 1.36719-7.05078C1.36719-2.74414 4.95117 0.830078 9.24805 0.830078ZM9.24805-0.654297C5.70312-0.654297 2.87109-3.49609 2.87109-7.05078C2.87109-10.6055 5.69336-13.4473 9.23828-13.4473C12.793-13.4473 15.6445-10.6055 15.6445-7.05078C15.6445-3.49609 12.8027-0.654297 9.24805-0.654297ZM5.6543-7.05078C5.6543-6.62109 5.95703-6.32812 6.40625-6.32812L8.50586-6.32812L8.50586-4.20898C8.50586-3.76953 8.79883-3.4668 9.22852-3.4668C9.67773-3.4668 9.9707-3.76953 9.9707-4.20898L9.9707-6.32812L12.0898-6.32812C12.5293-6.32812 12.832-6.62109 12.832-7.05078C12.832-7.49023 12.5293-7.79297 12.0898-7.79297L9.9707-7.79297L9.9707-9.90234C9.9707-10.3516 9.67773-10.6543 9.22852-10.6543C8.79883-10.6543 8.50586-10.3516 8.50586-9.90234L8.50586-7.79297L6.40625-7.79297C5.95703-7.79297 5.6543-7.49023 5.6543-7.05078Z"/>
  </g>
  <g transform="matrix(1 0 0 1 281.867 1933)">
   <path d="M11.709 2.91016C17.1582 2.91016 21.6699-1.61133 21.6699-7.05078C21.6699-12.5 17.1484-17.0117 11.6992-17.0117C6.25977-17.0117 1.74805-12.5 1.74805-7.05078C1.74805-1.61133 6.26953 2.91016 11.709 2.91016ZM11.709 1.25C7.09961 1.25 3.41797-2.44141 3.41797-7.05078C3.41797-11.6602 7.08984-15.3516 11.6992-15.3516C16.3086-15.3516 20.0098-11.6602 20.0098-7.05078C20.0098-2.44141 16.3184 1.25 11.709 1.25ZM7.17773-7.05078C7.17773-6.57227 7.50977-6.25 8.00781-6.25L10.8789-6.25L10.8789-3.36914C10.8789-2.88086 11.2109-2.53906 11.6895-2.53906C12.1777-2.53906 12.5195-2.87109 12.5195-3.36914L12.5195-6.25L15.4004-6.25C15.8887-6.25 16.2305-6.57227 16.2305-7.05078C16.2305-7.53906 15.8887-7.88086 15.4004-7.88086L12.5195-7.88086L12.5195-10.752C12.5195-11.25 12.1777-11.5918 11.6895-11.5918C11.2109-11.5918 10.8789-11.25 10.8789-10.752L10.8789-7.88086L8.00781-7.88086C7.50977-7.88086 7.17773-7.53906 7.17773-7.05078Z"/>
  </g>
  <g transform="matrix(1 0 0 1 305.646 1933)">
   <path d="M14.9707 5.66406C21.9336 5.66406 27.6953-0.0976562 27.6953-7.05078C27.6953-14.0137 21.9238-19.7754 14.9609-19.7754C8.00781-19.7754 2.25586-14.0137 2.25586-7.05078C2.25586-0.0976562 8.01758 5.66406 14.9707 5.66406ZM14.9707 3.84766C8.93555 3.84766 4.08203-1.01562 4.08203-7.05078C4.08203-13.0957 8.92578-17.9492 14.9609-17.9492C21.0059-17.9492 25.8691-13.0957 25.8691-7.05078C25.8691-1.01562 21.0156 3.84766 14.9707 3.84766ZM9.19922-7.05078C9.19922-6.5332 9.57031-6.17188 10.1172-6.17188L14.0625-6.17188L14.0625-2.2168C14.0625-1.67969 14.4336-1.29883 14.9512-1.29883C15.4883-1.29883 15.8594-1.66992 15.8594-2.2168L15.8594-6.17188L19.8145-6.17188C20.3516-6.17188 20.7324-6.5332 20.7324-7.05078C20.7324-7.59766 20.3613-7.96875 19.8145-7.96875L15.8594-7.96875L15.8594-11.9141C15.8594-12.4609 15.4883-12.8418 14.9512-12.8418C14.4336-12.8418 14.0625-12.4609 14.0625-11.9141L14.0625-7.96875L10.1172-7.96875C9.57031-7.96875 9.19922-7.59766 9.19922-7.05078Z"/>
  </g>
  <text style="stroke:none;fill:black;font-family:sans-serif;font-size:13;font-weight:bold;" transform="matrix(1 0 0 1 263 1953)">Design Variations</text>
  <text style="stroke:none;fill:black;font-family:sans-serif;font-size:13;" transform="matrix(1 0 0 1 263 1971)">Symbols are supported in up to nine weights and three scales.</text>
  <text style="stroke:none;fill:black;font-family:sans-serif;font-size:13;" transform="matrix(1 0 0 1 263 1989)">For optimal layout with text and other symbols, vertically align</text>
  <text style="stroke:none;fill:black;font-family:sans-serif;font-size:13;" transform="matrix(1 0 0 1 263 2007)">symbols with the adjacent text.</text>
  <line style="fill:none;stroke:#00AEEF;stroke-width:0.5;opacity:1.0;" x1="776" x2="776" y1="1919" y2="1933"/>
  <g transform="matrix(1 0 0 1 776 1933)">
   <path d="M3.31055 0.15625C3.82812 0.15625 4.08203-0.0390625 4.26758-0.585938L5.52734-4.0332L11.2891-4.0332L12.5488-0.585938C12.7344-0.0390625 12.9883 0.15625 13.4961 0.15625C14.0137 0.15625 14.3457-0.15625 14.3457-0.644531C14.3457-0.810547 14.3164-0.966797 14.2383-1.17188L9.6582-13.3691C9.43359-13.9648 9.0332-14.2676 8.4082-14.2676C7.80273-14.2676 7.39258-13.9746 7.17773-13.3789L2.59766-1.16211C2.51953-0.957031 2.49023-0.800781 2.49023-0.634766C2.49023-0.146484 2.80273 0.15625 3.31055 0.15625ZM6.00586-5.51758L8.37891-12.0898L8.42773-12.0898L10.8008-5.51758Z"/>
  </g>
  <line style="fill:none;stroke:#00AEEF;stroke-width:0.5;opacity:1.0;" x1="793.197" x2="793.197" y1="1919" y2="1933"/>
  <text style="stroke:none;fill:black;font-family:sans-serif;font-size:13;font-weight:bold;" transform="matrix(1 0 0 1 776 1953)">Margins</text>
  <text style="stroke:none;fill:black;font-family:sans-serif;font-size:13;" transform="matrix(1 0 0 1 776 1971)">Leading and trailing margins on the left and right side of each symbol</text>
  <text style="stroke:none;fill:black;font-family:sans-serif;font-size:13;" transform="matrix(1 0 0 1 776 1989)">can be adjusted by modifying the x-location of the margin guidelines.</text>
  <text style="stroke:none;fill:black;font-family:sans-serif;font-size:13;" transform="matrix(1 0 0 1 776 2007)">Modifications are automatically applied proportionally to all</text>
  <text style="stroke:none;fill:black;font-family:sans-serif;font-size:13;" transform="matrix(1 0 0 1 776 2025)">scales and weights.</text>
  <g transform="matrix(1 0 0 1 1289 1933)">
   <path d="M2.8418 1.86523L4.54102 3.57422C5.40039 4.44336 6.38672 4.38477 7.31445 3.35938L18.0078-8.42773L17.041-9.4043L6.42578 2.27539C6.07422 2.67578 5.74219 2.77344 5.27344 2.30469L4.10156 1.14258C3.63281 0.683594 3.74023 0.341797 4.14062-0.0195312L15.6152-10.8203L14.6387-11.7871L3.04688-0.898438C2.06055 0.0195312 1.98242 0.996094 2.8418 1.86523ZM9.25781-16.3281C8.83789-15.918 8.80859-15.3418 9.04297-14.9512C9.27734-14.5898 9.73633-14.3555 10.3809-14.5215C11.8457-14.8633 13.3691-14.9219 14.7949-13.9844L14.209-12.5293C13.8672-11.6992 14.043-11.1133 14.5801-10.5664L16.875-8.25195C17.3633-7.76367 17.7734-7.74414 18.3398-7.8418L19.4043-8.03711L20.0684-7.36328L20.0293-6.80664C19.9902-6.30859 20.1172-5.92773 20.6055-5.44922L21.3672-4.70703C21.8457-4.22852 22.4609-4.19922 22.9297-4.66797L25.8398-7.58789C26.3086-8.05664 26.2891-8.65234 25.8105-9.13086L25.0391-9.89258C24.5605-10.3711 24.1895-10.5273 23.7109-10.4883L23.1348-10.4395L22.4902-11.0742L22.7344-12.1973C22.8613-12.7637 22.7051-13.2031 22.1191-13.7891L19.9219-15.9766C16.582-19.2969 12.1484-19.2188 9.25781-16.3281ZM10.752-15.957C13.1836-17.7344 16.4746-17.4316 18.7012-15.2051L21.1328-12.793C21.3672-12.5586 21.4062-12.373 21.3379-12.0312L21.0156-10.5469L22.5195-9.0625L23.5059-9.12109C23.7598-9.13086 23.8379-9.11133 24.0332-8.91602L24.6094-8.33984L22.168-5.89844L21.5918-6.47461C21.3965-6.66992 21.3672-6.74805 21.377-7.01172L21.4453-7.98828L19.9512-9.47266L18.4277-9.21875C18.1055-9.15039 17.959-9.17969 17.7148-9.41406L15.7129-11.416C15.459-11.6504 15.4297-11.8164 15.5859-12.1875L16.4648-14.2773C14.9023-15.7324 12.8711-16.3574 10.8398-15.7617C10.6836-15.7227 10.625-15.8496 10.752-15.957Z"/>
  </g>
  <text style="stroke:none;fill:black;font-family:sans-serif;font-size:13;font-weight:bold;" transform="matrix(1 0 0 1 1289 1953)">Exporting</text>
  <text style="stroke:none;fill:black;font-family:sans-serif;font-size:13;" transform="matrix(1 0 0 1 1289 1971)">Symbols should be outlined when exporting to ensure the</text>
  <text style="stroke:none;fill:black;font-family:sans-serif;font-size:13;" transform="matrix(1 0 0 1 1289 1989)">design is preserved when submitting to Xcode.</text>
  <text id="template-version" style="stroke:none;fill:black;font-family:sans-serif;font-size:13;text-anchor:end;" transform="matrix(1 0 0 1 3036 1933)">Template v.2.0</text>
  <text style="stroke:none;fill:black;font-family:sans-serif;font-size:13;text-anchor:end;" transform="matrix(1 0 0 1 3036 1951)">Requires Xcode 12 or greater</text>
  <text id="descriptive-name" style="stroke:none;fill:black;font-family:sans-serif;font-size:13;text-anchor:end;" transform="matrix(1 0 0 1 3036 1969)">Generated from figure.walk.circle</text>
  <text style="stroke:none;fill:black;font-family:sans-serif;font-size:13;text-anchor:end;" transform="matrix(1 0 0 1 3036 1987)">Typeset at 100 points</text>
  <text style="stroke:none;fill:black;font-family:sans-serif;font-size:13;" transform="matrix(1 0 0 1 263 726)">Small</text>
  <text style="stroke:none;fill:black;font-family:sans-serif;font-size:13;" transform="matrix(1 0 0 1 263 1156)">Medium</text>
  <text style="stroke:none;fill:black;font-family:sans-serif;font-size:13;" transform="matrix(1 0 0 1 263 1586)">Large</text>
 </g>
 <g id="Guides">
  <g id="H-reference" style="fill:#27AAE1;stroke:none;" transform="matrix(1 0 0 1 339 696)">
   <path d="M0.993654 0L3.63775 0L29.3281-67.1323L30.0303-67.1323L30.0303-70.459L28.1226-70.459ZM11.6885-24.4799L46.9815-24.4799L46.2315-26.7285L12.4385-26.7285ZM55.1196 0L57.7637 0L30.6382-70.459L29.4326-70.459L29.4326-67.1323Z"/>
  </g>
  <line id="Baseline-S" style="fill:none;stroke:#27AAE1;opacity:1;stroke-width:0.5;" x1="263" x2="3036" y1="696" y2="696"/>
  <line id="Capline-S" style="fill:none;stroke:#27AAE1;opacity:1;stroke-width:0.5;" x1="263" x2="3036" y1="625.541" y2="625.541"/>
  <g id="H-reference" style="fill:#27AAE1;stroke:none;" transform="matrix(1 0 0 1 339 1126)">
   <path d="M0.993654 0L3.63775 0L29.3281-67.1323L30.0303-67.1323L30.0303-70.459L28.1226-70.459ZM11.6885-24.4799L46.9815-24.4799L46.2315-26.7285L12.4385-26.7285ZM55.1196 0L57.7637 0L30.6382-70.459L29.4326-70.459L29.4326-67.1323Z"/>
  </g>
  <line id="Baseline-M" style="fill:none;stroke:#27AAE1;opacity:1;stroke-width:0.5;" x1="263" x2="3036" y1="1126" y2="1126"/>
  <line id="Capline-M" style="fill:none;stroke:#27AAE1;opacity:1;stroke-width:0.5;" x1="263" x2="3036" y1="1055.54" y2="1055.54"/>
  <g id="H-reference" style="fill:#27AAE1;stroke:none;" transform="matrix(1 0 0 1 339 1556)">
   <path d="M0.993654 0L3.63775 0L29.3281-67.1323L30.0303-67.1323L30.0303-70.459L28.1226-70.459ZM11.6885-24.4799L46.9815-24.4799L46.2315-26.7285L12.4385-26.7285ZM55.1196 0L57.7637 0L30.6382-70.459L29.4326-70.459L29.4326-67.1323Z"/>
  </g>
  <line id="Baseline-L" style="fill:none;stroke:#27AAE1;opacity:1;stroke-width:0.5;" x1="263" x2="3036" y1="1556" y2="1556"/>
  <line id="Capline-L" style="fill:none;stroke:#27AAE1;opacity:1;stroke-width:0.5;" x1="263" x2="3036" y1="1485.54" y2="1485.54"/>
  <line id="left-margin" style="fill:none;stroke:#00AEEF;stroke-width:0.5;opacity:1.0;" x1="1391.32" x2="1391.32" y1="1030.79" y2="1150.12"/>
  <line id="right-margin" style="fill:none;stroke:#00AEEF;stroke-width:0.5;opacity:1.0;" x1="1508.37" x2="1508.37" y1="1030.79" y2="1150.12"/>
 </g>
 <g id="Symbols">
  <g id="Black-L" transform="matrix(1 0 0 1 2854.19 1556)">
   <path d="M79.1958 32.7257C116.56 32.7257 147.154 2.15259 147.154-35.2113C147.154-72.5752 116.539-103.148 79.175-103.148C41.8307-103.148 11.2588-72.5752 11.2588-35.2113C11.2588 2.15259 41.8515 32.7257 79.1958 32.7257ZM79.1958 12.5782C52.765 12.5782 31.4468-8.75969 31.4468-35.2113C31.4468-61.6629 52.7442-83.0007 79.175-83.0007C105.627-83.0007 126.985-61.6629 126.985-35.2113C126.985-8.75969 105.647 12.5782 79.1958 12.5782ZM92.4666-1.35741C94.7667-1.35741 96.5764-2.93736 96.5764-5.17354C96.5764-6.13858 96.5103-6.94278 95.8526-8.16227L89.4308-20.3321C88.5706-21.9554 88.0013-22.9448 87.0075-24.3563L83.5177-29.4841L83.859-30.312C85.2833-33.7061 85.5154-35.9071 85.7567-39.318L86.4221-47.8382C86.8606-53.3788 83.515-57.4627 77.9211-57.4627C74.2141-57.4627 70.8636-55.4146 67.2978-52.2846L61.2488-47.0264C59.3759-45.3908 58.8726-43.8616 58.6325-41.3918L57.9672-33.7838C57.7271-31.2724 59.2515-29.4691 61.6385-29.3083C63.9022-29.1486 65.5667-30.6094 65.8079-33.3597L66.4745-41.2422L69.6133-43.4508C70.2863-43.9045 70.8096-43.636 70.728-42.8714L70.1639-36.554C69.7826-32.6034 71.8491-29.7239 73.7636-27.3853L80.2033-19.3867C80.9063-18.5229 81.2996-17.8496 81.7589-16.953L88.4724-3.92846C89.2778-2.29566 90.7033-1.35741 92.4666-1.35741ZM61.8655-1.35502C63.1887-1.35502 64.1965-1.89595 64.9775-2.72096L75.0495-13.7961C76.2766-15.1477 76.6114-15.7538 76.8163-16.9457L77.0336-18.1717L70.5696-26.4389L68.894-18.6565L59.8198-8.68403C59.0717-7.83341 58.1322-6.67353 58.1322-5.16756C58.1322-2.9182 59.8342-1.35502 61.8655-1.35502ZM94.8608-36.1788L102.665-36.1788C105.335-36.1788 106.98-37.7616 106.98-40.1486C106.98-42.5148 105.335-44.1196 102.665-44.1196L94.5922-44.1196L89.4945-49.8583L88.7135-39.3934L90.3388-37.7872C91.5671-36.5589 92.6918-36.1788 94.8608-36.1788ZM82.2902-59.9459C86.6954-59.9459 90.3327-63.5456 90.3327-67.8483C90.3327-72.3118 86.7538-75.8907 82.2902-75.8907C77.8863-75.8907 74.3866-72.3118 74.3866-67.8483C74.3866-63.5456 77.9447-59.9459 82.2902-59.9459Z"/>
  </g>
  <g id="Heavy-L" transform="matrix(1 0 0 1 2558.42 1556)">
   <path d="M78.2532 31.7694C115.056 31.7694 145.278 1.57794 145.278-35.2251C145.278-72.0281 115.026-102.22 78.2231-102.22C41.4446-102.22 11.2588-72.0281 11.2588-35.2251C11.2588 1.57794 41.4748 31.7694 78.2532 31.7694ZM78.2532 14.0275C51.0062 14.0275 29.0554-7.9479 29.0554-35.2251C29.0554-62.5023 50.9761-84.4777 78.2231-84.4777C105.5-84.4777 127.506-62.5023 127.506-35.2251C127.506-7.9479 105.53 14.0275 78.2532 14.0275ZM91.8801-0.316531C94.1025-0.316531 95.9265-1.83198 95.9265-4.10509C95.9265-5.07013 95.8191-5.87433 95.2027-7.04804L88.5549-19.8955C87.7173-21.506 87.0972-22.5181 86.1862-23.8099L82.4714-29.2316L82.8177-30.1063C84.2238-33.6151 84.5436-35.885 84.7848-39.378L85.464-48.2738C85.8749-53.7835 82.6071-57.9242 76.9283-57.9242C73.1662-57.9242 69.7943-55.8992 66.1685-52.644L60.1762-47.3125C58.2851-45.6168 57.7724-44.0832 57.5368-41.6316L56.8576-33.8312C56.622-31.3192 58.1331-29.5524 60.4931-29.3915C62.7066-29.2363 64.3484-30.6513 64.5897-33.3933L65.2745-41.5504L68.4221-43.883C69.164-44.4195 69.8247-44.0909 69.7386-43.189L69.1701-36.5452C68.7982-32.5306 70.8421-29.6141 72.7935-27.2248L79.4312-18.955C80.1248-18.1006 80.4585-17.5055 80.8996-16.6591L87.9174-2.87874C88.7272-1.22332 90.1389-0.316531 91.8801-0.316531ZM60.4384-0.305305C61.734-0.305305 62.765-0.832447 63.5278-1.66683L73.9277-13.3457C75.1642-14.7342 75.4533-15.2162 75.6857-16.4495L76.0034-18.045L69.589-26.2262L67.8676-18.1741L58.4247-7.57971C57.6539-6.69269 56.7415-5.56921 56.7415-4.07703C56.7415-1.8365 58.3977-0.305305 60.4384-0.305305ZM94.1794-36.4717L102.226-36.4717C104.887-36.4717 106.504-38.0274 106.504-40.3874C106.504-42.7172 104.887-44.3087 102.226-44.3087L93.8508-44.3087L88.5568-50.2349L87.794-39.9475L89.657-38.0801C90.8991-36.838 92.0193-36.4717 94.1794-36.4717ZM81.3818-60.5192C85.8151-60.5192 89.4529-64.1426 89.4529-68.4596C89.4529-72.9375 85.8597-76.5307 81.3818-76.5307C76.9542-76.5307 73.4358-72.9375 73.4358-68.4596C73.4358-64.1426 76.9988-60.5192 81.3818-60.5192Z"/>
  </g>
  <g id="Bold-L" transform="matrix(1 0 0 1 2262.89 1556)">
   <path d="M77.0704 30.5711C113.182 30.5711 142.92 0.870872 142.92-35.2405C142.92-71.3519 113.144-101.052 77.0324-101.052C40.9458-101.052 11.2588-71.3519 11.2588-35.2405C11.2588 0.870872 40.9838 30.5711 77.0704 30.5711ZM77.0704 15.8255C48.8167 15.8255 26.0672-6.94878 26.0672-35.2405C26.0672-63.5322 48.7787-86.3065 77.0324-86.3065C105.324-86.3065 128.136-63.5322 128.136-35.2405C128.136-6.94878 105.362 15.8255 77.0704 15.8255ZM91.0608 0.810375C93.1909 0.810375 95.0229-0.63559 95.0229-2.94735C95.0229-3.91239 94.8692-4.71659 94.2991-5.83642L87.4118-19.4097C86.6049-20.9899 85.9307-22.0326 85.1122-23.1933L81.1431-28.9464L81.4895-29.8601C82.8726-33.4999 83.2851-35.8469 83.5264-39.4399L84.221-48.7745C84.601-54.2309 81.4255-58.4109 75.684-58.4109C71.8602-58.4109 68.5098-56.4092 64.8221-53.0301L58.8693-47.6139C56.9551-45.8563 56.4346-44.3151 56.2066-41.8865L55.512-33.8628C55.284-31.3582 56.7723-29.6375 59.094-29.4766C61.2461-29.329 62.8572-30.6901 63.0985-33.4094L63.8063-41.8898L66.9691-44.3612C67.7881-44.9902 68.6104-44.5997 68.5168-43.5362L67.9406-36.53C67.5765-32.4385 69.5897-29.4834 71.5798-27.04L78.4335-18.4694C79.1193-17.6228 79.3837-17.1126 79.8018-16.3277L87.144-1.7366C87.9614-0.0505266 89.3577 0.810375 91.0608 0.810375ZM58.7456 0.836836C60.0103 0.836836 61.0646 0.325113 61.8043-0.517073L72.5444-12.8444C73.7887-14.2716 74.0239-14.6148 74.2872-15.8944L74.7278-17.9434L68.3824-26.0096L66.6071-17.6344L56.7704-6.36846C55.9689-5.43536 55.0948-4.35796 55.0948-2.8812C55.0948-0.6559 56.6971 0.836836 58.7456 0.836836ZM93.2299-36.8179L101.501-36.8179C104.14-36.8179 105.726-38.3354 105.726-40.6571C105.726-42.9408 104.14-44.5095 101.501-44.5095L92.8394-44.5095L87.307-50.6588L86.5673-40.5942L88.7149-38.4263C89.9724-37.1688 91.085-36.8179 93.2299-36.8179ZM80.2077-61.107C84.6643-61.107 88.2948-64.7462 88.2948-69.0712C88.2948-73.557 84.6935-77.1582 80.2077-77.1582C75.7643-77.1582 72.2303-73.557 72.2303-69.0712C72.2303-64.7462 75.7935-61.107 80.2077-61.107Z"/>
  </g>
  <g id="Semibold-L" transform="matrix(1 0 0 1 1966.99 1556)">
   <path d="M76.2549 29.745C111.889 29.745 141.294 0.383422 141.294-35.2511C141.294-70.8857 111.846-100.247 76.2116-100.247C40.6019-100.247 11.2588-70.8857 11.2588-35.2511C11.2588 0.383422 40.6453 29.745 76.2549 29.745ZM76.2549 17.065C47.3072 17.065 24.0071-6.26 24.0071-35.2511C24.0071-64.2423 47.2638-87.5672 76.2116-87.5672C105.203-87.5672 128.571-64.2423 128.571-35.2511C128.571-6.26 105.246 17.065 76.2549 17.065ZM90.496 1.58726C92.5624 1.58726 94.3999 0.189191 94.3999-2.14921C94.3999-3.11424 94.2144-3.91844 93.6761-5.00114L86.6238-19.0748C85.838-20.6341 85.1266-21.698 84.3718-22.7682L80.2274-28.7498L80.5739-29.6905C81.9412-33.4205 82.4175-35.8207 82.6588-39.4825L83.364-49.1197C83.7228-54.5393 80.611-58.7464 74.8261-58.7464C70.9599-58.7464 67.6243-56.7607 63.894-53.2962L57.9683-47.8216C56.0383-46.0213 55.5124-44.4749 55.2896-42.0622L54.5844-33.8845C54.3616-31.3851 55.8342-29.6961 58.1295-29.5353C60.2391-29.3929 61.8291-30.7169 62.0704-33.4206L62.7941-42.1238L65.9674-44.6909C66.8396-45.3836 67.7733-44.9505 67.6744-43.7755L67.093-36.5195C66.7343-32.375 68.7264-29.3932 70.7431-26.9125L77.7458-18.1346C78.4262-17.2934 78.6428-16.8418 79.045-16.0992L86.6108-0.949217C87.4335 0.757991 88.8192 1.58726 90.496 1.58726ZM57.5786 1.62422C58.8221 1.62422 59.8923 1.12313 60.6162 0.275563L71.5908-12.4989C72.8404-13.9527 73.0385-14.2003 73.3231-15.5117L73.8485-17.8733L67.5506-25.8602L65.7381-17.2623L55.6299-5.53343C54.8073-4.56857 53.9595-3.52293 53.9595-2.0568C53.9595 0.157996 55.5248 1.62422 57.5786 1.62422ZM92.5753-37.0567L101.002-37.0567C103.625-37.0567 105.19-38.5478 105.19-40.8431C105.19-43.095 103.625-44.648 101.002-44.648L92.1422-44.648L86.4455-50.9511L85.7216-41.0401L88.0654-38.6651C89.3335-37.3969 90.4409-37.0567 92.5753-37.0567ZM79.3983-61.5122C83.871-61.5122 87.4963-65.1623 87.4963-69.4928C87.4963-73.9841 83.8896-77.5908 79.3983-77.5908C74.944-77.5908 71.3992-73.9841 71.3992-69.4928C71.3992-65.1623 74.9625-61.5122 79.3983-61.5122Z"/>
  </g>
  <g id="Medium-L" transform="matrix(1 0 0 1 1670.9 1556)">
   <path d="M75.6366 29.1187C110.91 29.1187 140.062 0.0138167 140.062-35.2592C140.062-70.5322 110.862-99.637 75.5892-99.637C40.3412-99.637 11.2588-70.5322 11.2588-35.2592C11.2588 0.0138167 40.3886 29.1187 75.6366 29.1187ZM75.6366 18.0048C46.1626 18.0048 22.4451-5.73774 22.4451-35.2592C22.4451-64.7806 46.1152-88.5232 75.5892-88.5232C105.111-88.5232 128.901-64.7806 128.901-35.2592C128.901-5.73774 105.158 18.0048 75.6366 18.0048ZM90.0677 2.17632C92.0859 2.17632 93.9275 0.814574 93.9275-1.54402C93.9275-2.50906 93.7178-3.31326 93.2038-4.36779L86.0263-18.8208C85.2565-20.3643 84.5168-21.4442 83.8104-22.4459L79.533-28.6008L79.8797-29.5618C81.2349-33.3603 81.7597-35.8007 82.001-39.5149L82.7142-49.3814C83.0569-54.7731 79.9933-59.0009 74.1757-59.0009C70.2772-59.0009 66.9529-57.0273 63.1902-53.498L57.2851-47.9791C55.343-46.1465 54.8131-44.5961 54.5943-42.1954L53.881-33.901C53.6622-31.4055 55.1228-29.7406 57.3981-29.5797C59.4756-29.4414 61.0496-30.7372 61.2909-33.429L62.0266-42.3012L65.2079-44.9408C66.1204-45.682 67.1386-45.2165 67.0357-43.957L66.4503-36.5115C66.0957-32.3268 68.0718-29.3248 70.1087-26.8159L77.2243-17.8808C77.9006-17.0436 78.081-16.6364 78.4712-15.926L86.2065-0.352189C87.0332 1.37104 88.4108 2.17632 90.0677 2.17632ZM56.6937 2.22125C57.9211 2.22125 59.0035 1.72822 59.7153 0.876573L70.8677-12.2369C72.1214-13.7109 72.2913-13.8859 72.592-15.2215L73.1817-17.8202L66.9198-25.747L65.0792-16.9802L54.7651-4.90028C53.9265-3.91134 53.0987-2.88978 53.0987-1.43171C53.0987 0.775126 54.6358 2.22125 56.6937 2.22125ZM92.079-37.2377L100.623-37.2377C103.235-37.2377 104.784-38.7088 104.784-40.9841C104.784-43.212 103.235-44.753 100.623-44.753L91.6135-44.753L85.7922-51.1727L85.0804-41.3781L87.5729-38.8461C88.8491-37.5699 89.9526-37.2377 92.079-37.2377ZM78.7845-61.8194C83.2695-61.8194 86.8909-65.4778 86.8909-69.8124C86.8909-74.308 83.28-77.9189 78.7845-77.9189C74.322-77.9189 70.769-74.308 70.769-69.8124C70.769-65.4778 74.3325-61.8194 78.7845-61.8194Z"/>
  </g>
  <g id="Regular-L" transform="matrix(1 0 0 1 1374.99 1556)">
   <path d="M74.8301 28.3017C109.632 28.3017 138.454-0.468277 138.454-35.2697C138.454-70.0711 109.579-98.8411 74.7774-98.8411C40.0011-98.8411 11.2588-70.0711 11.2588-35.2697C11.2588-0.468277 40.0538 28.3017 74.8301 28.3017ZM74.8301 19.2307C44.6697 19.2307 20.4076-5.05652 20.4076-35.2697C20.4076-65.4829 44.617-89.7701 74.7774-89.7701C104.991-89.7701 129.331-65.4829 129.331-35.2697C129.331-5.05652 105.043 19.2307 74.8301 19.2307ZM89.5091 2.94467C91.4643 2.94467 93.3114 1.63029 93.3114-0.754649C93.3114-1.71969 93.0702-2.52389 92.5876-3.54169L85.2469-18.4896C84.498-20.0125 83.7215-21.1132 83.0781-22.0255L78.6273-28.4064L78.9741-29.3939C80.3136-33.2818 80.9017-35.7748 81.1429-39.5571L81.8667-49.7227C82.1884-55.0781 79.1877-59.3327 73.3273-59.3327C69.3867-59.3327 66.0771-57.375 62.2723-53.7612L56.394-48.1846C54.4362-46.3098 53.901-44.7542 53.6874-42.3692L52.9636-33.9226C52.75-31.4321 54.195-29.7986 56.4442-29.6378C58.4798-29.5046 60.0329-30.7636 60.2741-33.4401L61.0256-42.5326L64.2173-45.2669C65.1823-46.0711 66.3107-45.5635 66.2027-44.1938L65.6121-36.5011C65.2627-32.264 67.2179-29.2357 69.2812-26.6899L76.5441-17.5497C77.2151-16.7178 77.3483-16.3685 77.7227-15.7L85.6792 0.426543C86.511 2.17067 87.8782 2.94467 89.5091 2.94467ZM55.5396 2.99998C56.7459 2.99998 57.8441 2.51746 58.5402 1.6605L69.9245-11.8952C71.1836-13.3955 71.3168-13.4759 71.6385-14.843L72.312-17.7509L66.0971-25.5993L64.2198-16.6123L53.6371-4.07442C52.7776-3.05407 51.976-2.06392 51.976-0.616366C51.976 1.58008 53.4763 2.99998 55.5396 2.99998ZM91.4316-37.4738L100.129-37.4738C102.725-37.4738 104.253-38.9188 104.253-41.168C104.253-43.3645 102.725-44.8899 100.129-44.8899L90.9239-44.8899L84.9401-51.4618L84.244-41.819L86.9306-39.0822C88.2173-37.7955 89.3155-37.4738 91.4316-37.4738ZM77.984-62.2202C82.4849-62.2202 86.1013-65.8893 86.1013-70.2294C86.1013-74.7304 82.4849-78.3467 77.984-78.3467C73.5107-78.3467 69.9471-74.7304 69.9471-70.2294C69.9471-65.8893 73.5107-62.2202 77.984-62.2202Z"/>
  </g>
  <g id="Light-L" transform="matrix(1 0 0 1 1079.2 1556)">
   <path d="M73.9141 27.3856C108.257 27.3856 136.603-0.926323 136.603-35.2697C136.603-69.6131 108.224-97.925 73.8804-97.925C39.5239-97.925 11.2588-69.6131 11.2588-35.2697C11.2588-0.926323 39.5576 27.3856 73.9141 27.3856ZM73.9141 20.4903C43.0857 20.4903 18.1746-4.40762 18.1746-35.2697C18.1746-66.1318 43.052-91.0297 73.8804-91.0297C104.742-91.0297 129.674-66.1318 129.674-35.2697C129.674-4.40762 104.776 20.4903 73.9141 20.4903ZM88.3449 2.67747C90.2619 2.67747 92.0518 1.34401 92.0518-1.02184C92.0518-1.98688 91.8105-2.79108 91.328-3.7898L84.0827-18.5087C83.372-19.917 82.6145-21.056 81.9711-21.9874L77.5013-28.3873L77.8099-29.2794C79.1303-33.1863 79.6802-35.6794 79.9215-39.5189L80.6452-49.8182C80.9669-55.0399 78.0044-59.1228 72.373-59.1228C68.4324-59.1228 65.4473-57.146 61.6806-53.6467L55.6306-48.051C53.6537-46.2144 53.1375-44.6396 52.943-42.2738L52.2193-33.7699C52.0247-31.3367 53.4125-29.7413 55.6044-29.5805C57.6019-29.4664 59.1168-30.7064 59.358-33.2874L60.1286-42.4944L63.3584-45.2287C64.3235-46.0329 65.5092-45.5635 65.382-44.1365L64.7723-36.4629C64.4039-32.1876 66.3209-29.1784 68.3651-26.6517L75.5898-17.5306C76.2799-16.6796 76.394-16.3112 76.7494-15.6809L84.5913 0.197519C85.4423 1.97982 86.8094 2.67747 88.3449 2.67747ZM54.8525 2.77096C56.0588 2.77096 57.1379 2.28844 57.815 1.45056L69.0084-11.9142C70.2484-13.3955 70.3625-13.4759 70.6842-14.843L71.4341-18.0372L65.3146-25.752L63.4182-16.6123L52.9692-4.24619C52.0715-3.18767 51.3271-2.23569 51.3271-0.788134C51.3271 1.37014 52.8083 2.77096 54.8525 2.77096ZM90.0956-37.6074L98.4689-37.6074C100.969-37.6074 102.497-38.9951 102.497-41.1871C102.497-43.3454 100.969-44.8135 98.4689-44.8135L89.6261-44.8135L83.5087-51.4808L82.8317-42.0099L85.6519-39.2158C86.9386-37.9291 88.0177-37.6074 90.0956-37.6074ZM76.8579-61.8385C81.3017-61.8385 84.8607-65.4312 84.8607-69.7141C84.8607-74.1578 81.3017-77.7169 76.8579-77.7169C72.461-77.7169 68.9356-74.1578 68.9356-69.7141C68.9356-65.4312 72.461-61.8385 76.8579-61.8385Z"/>
  </g>
  <g id="Thin-L" transform="matrix(1 0 0 1 783.716 1556)">
   <path d="M72.7024 26.174C106.44 26.174 134.155-1.53213 134.155-35.2697C134.155-69.0073 106.432-96.7134 72.694-96.7134C38.8929-96.7134 11.2588-69.0073 11.2588-35.2697C11.2588-1.53213 38.9013 26.174 72.7024 26.174ZM72.7024 22.1563C40.9906 22.1563 15.2214-3.5494 15.2214-35.2697C15.2214-66.99 40.9821-92.6957 72.694-92.6957C104.414-92.6957 130.128-66.99 130.128-35.2697C130.128-3.5494 104.423 22.1563 72.7024 22.1563ZM86.8052 2.32409C88.6717 2.32409 90.3858 0.965385 90.3858-1.37523C90.3858-2.34027 90.1446-3.14447 89.6621-4.11794L82.5429-18.5339C81.8827-19.7908 81.1505-20.9803 80.5071-21.9369L76.012-28.362L76.2702-29.128C77.5653-33.0601 78.0647-35.5531 78.306-39.4684L79.0298-49.9444C79.3514-54.9895 76.4394-58.8451 71.1109-58.8451C67.1703-58.8451 64.6143-56.8431 60.8981-53.4952L54.6209-47.8743C52.6188-46.0882 52.1279-44.4882 51.9586-42.1476L51.2348-33.568C51.0655-31.2105 52.3776-29.6656 54.4938-29.5048C56.4407-29.4159 57.9052-30.6307 58.1464-33.0854L58.9422-42.4439L62.2225-45.1782C63.1876-45.9824 64.449-45.5635 64.2966-44.0608L63.6617-36.4125C63.268-32.0866 65.1345-29.1027 67.1535-26.6012L74.3277-17.5053C75.0431-16.6292 75.1319-16.2355 75.462-15.6557L83.1525-0.105382C84.0287 1.7274 85.3959 2.32409 86.8052 2.32409ZM53.9438 2.46806C55.1501 2.46806 56.204 1.98554 56.8558 1.1729L67.7968-11.9395C69.0116-13.3955 69.1004-13.4759 69.4221-14.843L70.273-18.4158L64.2797-25.9539L62.3581-16.6123L52.0857-4.47337C51.1375-3.36436 50.4689-2.46287 50.4689-1.01531C50.4689 1.09248 51.9249 2.46806 53.9438 2.46806ZM88.3287-37.7841L96.2728-37.7841C98.6472-37.7841 100.175-39.0961 100.175-41.2123C100.175-43.3201 98.6472-44.7126 96.2728-44.7126L87.9097-44.7126L81.6156-51.5061L80.9638-42.2623L83.9607-39.3925C85.2474-38.1058 86.3013-37.7841 88.3287-37.7841ZM75.3687-61.3336C79.7367-61.3336 83.22-64.8254 83.22-69.0326C83.22-73.4006 79.7367-76.8839 75.3687-76.8839C71.0727-76.8839 67.5978-73.4006 67.5978-69.0326C67.5978-64.8254 71.0727-61.3336 75.3687-61.3336Z"/>
  </g>
  <g id="Ultralight-L" transform="matrix(1 0 0 1 487.631 1556)">
   <path d="M72.0819 25.5534C105.509 25.5534 132.9-1.84242 132.9-35.2697C132.9-68.697 105.514-96.0928 72.0864-96.0928C38.5697-96.0928 11.2588-68.697 11.2588-35.2697C11.2588-1.84242 38.5652 25.5534 72.0819 25.5534ZM72.0819 23.0096C39.9175 23.0096 13.7087-3.10983 13.7087-35.2697C13.7087-67.4296 39.922-93.549 72.0864-93.549C104.246-93.549 130.361-67.4296 130.361-35.2697C130.361-3.10983 104.242 23.0096 72.0819 23.0096ZM86.0165 2.14309C87.8572 2.14309 89.5325 0.771454 89.5325-1.55623C89.5325-2.52127 89.2913-3.32547 88.8088-4.28602L81.7543-18.5469C81.1199-19.7262 80.4006-20.9415 79.7573-21.911L75.2492-28.3491L75.4815-29.0504C76.7637-32.9955 77.2373-35.4885 77.4785-39.4426L78.2023-50.009C78.524-54.9636 75.6379-58.7029 70.4645-58.7029C66.5239-58.7029 64.1877-56.6879 60.4974-53.4176L54.1037-47.7838C52.0888-46.0235 51.6107-44.4106 51.4544-42.0829L50.7306-33.4645C50.5743-31.1458 51.8475-29.6268 53.9249-29.466C55.846-29.3901 57.2846-30.5919 57.5259-32.982L58.3346-42.4181L61.6408-45.1524C62.6058-45.9566 63.906-45.5635 63.7407-44.022L63.0928-36.3866C62.6862-32.0349 64.5269-29.0639 66.5329-26.5754L73.6813-17.4924C74.4096-16.6033 74.4855-16.1967 74.8027-15.6427L82.4156-0.260527C83.3047 1.59812 84.6719 2.14309 86.0165 2.14309ZM53.4784 2.31291C54.6847 2.31291 55.7256 1.83039 56.3645 1.03068L67.1763-11.9524C68.3781-13.3955 68.454-13.4759 68.7757-14.843L69.6783-18.6097L63.7496-26.0574L61.8151-16.6123L51.6332-4.58973C50.6592-3.45486 50.0293-2.57923 50.0293-1.13167C50.0293 0.950264 51.4723 2.31291 53.4784 2.31291ZM87.4237-37.8746L95.148-37.8746C97.4577-37.8746 98.9857-39.1478 98.9857-41.2253C98.9857-43.3072 97.4577-44.6609 95.148-44.6609L87.0305-44.6609L80.6459-51.519L80.0071-42.3916L83.0945-39.483C84.3812-38.1963 85.4221-37.8746 87.4237-37.8746ZM74.6059-61.0751C78.9351-61.0751 82.3797-64.5152 82.3797-68.6835C82.3797-73.0127 78.9351-76.4573 74.6059-76.4573C70.3616-76.4573 66.9125-73.0127 66.9125-68.6835C66.9125-64.5152 70.3616-61.0751 74.6059-61.0751Z"/>
  </g>
  <g id="Black-M" transform="matrix(1 0 0 1 2871.36 1126)">
   <path d="M62.0422 18.116C91.4096 18.116 115.367-5.83621 115.367-35.2035C115.367-64.5709 91.4041-88.5231 62.0367-88.5231C32.6752-88.5231 8.72266-64.5709 8.72266-35.2035C8.72266-5.83621 32.6807 18.116 62.0422 18.116ZM62.0422 0.73415C42.1762 0.73415 26.1158-15.332 26.1158-35.2035C26.1158-55.0751 42.1707-71.1412 62.0367-71.1412C81.9083-71.1412 97.9799-55.0751 97.9799-35.2035C97.9799-15.332 81.9138 0.73415 62.0422 0.73415ZM71.984-9.91814C73.8277-9.91814 75.2096-11.2002 75.2096-12.8983C75.2096-13.646 75.194-14.2691 74.6489-15.2506L69.8809-24.0658C69.2002-25.3188 68.8052-26.0711 67.9642-27.27L65.4513-30.9928L65.7063-31.581C66.8228-34.1145 66.9222-35.7605 67.1091-38.3402L67.6127-44.6366C67.9761-48.9376 65.3225-52.0295 61.0926-52.0295C58.2681-52.0295 55.7346-50.4203 53.0289-48.1183L48.2704-44.1051C46.8325-42.8947 46.4532-41.7112 46.266-39.7847L45.7623-34.0481C45.5751-32.1106 46.7598-30.6874 48.6246-30.5628C50.4163-30.4379 51.7201-31.6064 51.907-33.7313L52.4104-39.6177L54.8397-41.2222C55.3019-41.5027 55.5971-41.3515 55.5351-40.8693L55.0992-36.2581C54.7932-33.2472 56.4085-31.0506 57.8574-29.285L62.6712-23.3239C63.2265-22.644 63.5798-22.0525 63.9487-21.3199L68.8728-11.9125C69.4956-10.6617 70.6119-9.91814 71.984-9.91814ZM49.0633-9.91871C50.112-9.91871 50.8704-10.3496 51.4885-10.9782L58.9839-19.0139C59.924-20.0267 60.2201-20.6028 60.3552-21.4907L60.4476-22.1618L55.4099-28.6226L54.1485-22.8043L47.4535-15.636C46.8881-15.0031 46.1448-14.0783 46.1448-12.8998C46.1448-11.1547 47.5001-9.91871 49.0633-9.91871ZM73.8972-35.7314L79.6915-35.7314C81.7542-35.7314 83.0521-36.9732 83.0521-38.838C83.0521-40.6973 81.7542-41.9442 79.6915-41.9442L73.7459-41.9442L69.9471-46.242L69.329-38.005L70.402-36.9775C71.3418-36.0378 72.2144-35.7314 73.8972-35.7314ZM64.3819-53.8339C67.7628-53.8339 70.5726-56.592 70.5726-59.9055C70.5726-63.3435 67.8199-66.0962 64.3819-66.0962C61.0007-66.0962 58.3106-63.3435 58.3106-59.9055C58.3106-56.592 61.0578-53.8339 64.3819-53.8339Z"/>
  </g>
  <g id="Heavy-M" transform="matrix(1 0 0 1 2575.48 1126)">
   <path d="M61.2053 17.2657C90.0667 17.2657 113.704-6.35571 113.704-35.217C113.704-64.0783 90.0502-87.6997 61.1889-87.6997C32.3418-87.6997 8.72266-64.0783 8.72266-35.217C8.72266-6.35571 32.3582 17.2657 61.2053 17.2657ZM61.2053 2.03478C40.603 2.03478 23.9841-14.5983 23.9841-35.217C23.9841-55.8358 40.5866-72.4688 61.1889-72.4688C81.8077-72.4688 98.4571-55.8358 98.4571-35.217C98.4571-14.5983 81.8241 2.03478 61.2053 2.03478ZM71.5181-8.87596C73.2893-8.87596 74.6905-10.0932 74.6905-11.8292C74.6905-12.5769 74.6345-13.1999 74.1298-14.1385L69.132-23.6371C68.4699-24.8883 68.0236-25.6592 67.2634-26.7394L64.5324-30.7477L64.7957-31.3904C65.8962-34.0344 66.0848-35.7477 66.2717-38.4024L66.7888-45.0536C67.1253-49.3367 64.5441-52.5 60.2102-52.5C57.3317-52.5 54.7474-50.9151 51.9794-48.4803L47.2923-44.3971C45.8383-43.1244 45.4481-41.9384 45.2635-40.0279L44.7463-34.1085C44.5617-32.1652 45.7387-30.7741 47.5823-30.6494C49.3285-30.5271 50.6137-31.6526 50.8006-33.7783L51.32-39.9225L53.7545-41.6483C54.284-42.0096 54.7082-41.7961 54.6436-41.185L54.2052-36.253C53.9101-33.1831 55.5068-30.9486 56.9936-29.1316L62.0044-22.9036C62.5488-22.2347 62.8456-21.7214 63.1984-21.0344L68.4307-10.8652C69.056-9.59583 70.1588-8.87596 71.5181-8.87596ZM47.7315-8.87141C48.7533-8.87141 49.5361-9.28886 50.1382-9.92832L57.9718-18.5718C58.9228-19.6224 59.176-20.0773 59.338-21.0056L59.5215-22.0115L54.5235-28.4005L53.2191-22.3327L46.1512-14.5406C45.5673-13.8756 44.8451-12.983 44.8451-11.8178C44.8451-10.0779 46.1575-8.87141 47.7315-8.87141ZM73.3544-36.0054L79.4151-36.0054C81.4785-36.0054 82.7495-37.226 82.7495-39.0696C82.7495-40.8968 81.4785-42.1361 79.4151-42.1361L73.1409-42.1361L69.1625-46.6084L68.5604-38.5291L69.8534-37.2515C70.8067-36.2982 71.6767-36.0054 73.3544-36.0054ZM63.5977-54.4295C67.0114-54.4295 69.827-57.2179 69.827-60.5506C69.827-64.0079 67.055-66.7798 63.5977-66.7798C60.1863-66.7798 57.4744-64.0079 57.4744-60.5506C57.4744-57.2179 60.2299-54.4295 63.5977-54.4295Z"/>
  </g>
  <g id="Bold-M" transform="matrix(1 0 0 1 2279.69 1126)">
   <path d="M60.2692 16.3144C88.5644 16.3144 111.844-6.93686 111.844-35.2321C111.844-63.5273 88.5358-86.7786 60.2405-86.7786C31.9688-86.7786 8.72266-63.5273 8.72266-35.2321C8.72266-6.93686 31.9974 16.3144 60.2692 16.3144ZM60.2692 3.48972C38.8432 3.48972 21.5995-13.7775 21.5995-35.2321C21.5995-56.6867 38.8146-73.9539 60.2405-73.9539C81.6951-73.9539 98.991-56.6867 98.991-35.2321C98.991-13.7775 81.7238 3.48972 60.2692 3.48972ZM70.997-7.71012C72.687-7.71012 74.1099-8.85487 74.1099-10.6332C74.1099-11.3809 74.0086-12.0039 73.5491-12.8944L68.2943-23.1576C67.653-24.4067 67.1493-25.1984 66.4795-26.1458L63.5044-30.4735L63.7771-31.1773C64.8597-33.9447 65.1481-35.7334 65.335-38.4721L65.8672-45.5201C66.1735-49.7832 63.6734-53.0262 59.2231-53.0262C56.2843-53.0262 53.6431-51.4687 50.8055-48.8852L46.1981-44.7238C44.7262-43.3815 44.3238-42.1925 44.142-40.3L43.6098-34.176C43.428-32.2262 44.5964-30.871 46.4164-30.7464C48.1117-30.6269 49.3761-31.7043 49.563-33.8307L50.1003-40.2635L52.5405-42.1249C53.1454-42.5767 53.7138-42.2936 53.6464-41.5382L53.2051-36.2473C52.9222-33.1113 54.4981-30.8345 56.0272-28.9601L61.2585-22.4335C61.7906-21.7767 62.0243-21.3511 62.3592-20.715L67.936-9.69361C68.5642-8.40349 69.6519-7.71012 70.997-7.71012ZM46.2418-7.69986C47.2335-7.69986 48.0435-8.10223 48.6277-8.7539L56.8397-18.0772C57.8029-19.1702 58.008-19.4895 58.2001-20.463L58.4855-21.8434L53.532-28.1521L52.1795-21.8051L44.6945-13.3152C44.0898-12.6144 43.3913-11.7576 43.3913-10.6076C43.3913-8.8733 44.6556-7.69986 46.2418-7.69986ZM72.7472-36.3118L79.106-36.3118C81.1702-36.3118 82.411-37.5087 82.411-39.3287C82.411-41.1201 81.1702-42.3508 79.106-42.3508L72.464-42.3508L68.2847-47.0182L67.7006-39.1155L69.2397-37.5579C70.2081-36.5896 71.0752-36.3118 72.7472-36.3118ZM62.7205-55.0959C66.1708-55.0959 68.9929-57.918 68.9929-61.2723C68.9929-64.7511 66.1994-67.5446 62.7205-67.5446C59.2753-67.5446 56.539-64.7511 56.539-61.2723C56.539-57.918 59.3039-55.0959 62.7205-55.0959Z"/>
  </g>
  <g id="Semibold-M" transform="matrix(1 0 0 1 1983.62 1126)">
   <path d="M59.6238 15.6586C87.5288 15.6586 110.562-7.33749 110.562-35.2425C110.562-63.1475 87.4917-86.1436 59.5867-86.1436C31.7117-86.1436 8.72266-63.1475 8.72266-35.2425C8.72266-7.33749 31.7487 15.6586 59.6238 15.6586ZM59.6238 4.49275C37.63 4.49275 19.9555-13.2117 19.9555-35.2425C19.9555-57.2733 37.5929-74.9777 59.5867-74.9777C81.6175-74.9777 99.359-57.2733 99.359-35.2425C99.359-13.2117 81.6546 4.49275 59.6238 4.49275ZM70.6377-6.90641C72.2719-6.90641 73.7095-8.00117 73.7095-9.80874C73.7095-10.5564 73.5771-11.1794 73.1488-12.0368L67.7168-22.8271C67.0898-24.0747 66.5465-24.8807 65.9391-25.7366L62.7958-30.2845L63.0749-31.0304C64.1452-33.8829 64.5023-35.7236 64.6892-38.5201L65.2318-45.8417C65.5173-50.091 63.0732-53.389 58.5425-53.389C55.5622-53.389 52.8818-51.8503 49.9962-49.1643L45.4438-44.949C43.9595-43.5586 43.5487-42.3678 43.3689-40.4876L42.8263-34.2226C42.6465-32.2683 43.8089-30.9378 45.6126-30.8132C47.2728-30.6957 48.5228-31.7399 48.7097-33.8669L49.2594-40.4986L51.7035-42.4535C52.3604-42.9676 53.0283-42.6365 52.9589-41.7817L52.5156-36.2433C52.2411-33.0619 53.8027-30.7559 55.3611-28.8419L60.7442-22.1094C61.2679-21.4611 61.458-21.0958 61.7806-20.4948L67.595-8.88595C68.2252-7.58149 69.3025-6.90641 70.6377-6.90641ZM45.2148-6.8922C46.1857-6.8922 47.0145-7.28418 47.5863-7.94427L56.0592-17.7363C57.0308-18.8585 57.2028-19.0842 57.4157-20.0889L57.7713-21.7275L52.8485-27.9808L51.4628-21.4414L43.6903-12.4705C43.0712-11.7449 42.389-10.9128 42.389-9.77321C42.389-8.04289 43.6201-6.8922 45.2148-6.8922ZM72.3286-36.523L78.8929-36.523C80.9576-36.523 82.1777-37.7037 82.1777-39.5073C82.1777-41.274 80.9576-42.4987 78.8929-42.4987L71.9974-42.4987L67.6796-47.3008L67.1078-39.5197L68.8167-37.7691C69.7954-36.7904 70.6606-36.523 72.3286-36.523ZM62.1158-55.5552C65.5913-55.5552 68.4179-58.4006 68.4179-61.7698C68.4179-65.2635 65.6095-68.0719 62.1158-68.0719C58.6473-68.0719 55.8941-65.2635 55.8941-61.7698C55.8941-58.4006 58.6654-55.5552 62.1158-55.5552Z"/>
  </g>
  <g id="Medium-M" transform="matrix(1 0 0 1 1687.4 1126)">
   <path d="M59.1344 15.1614C86.7435 15.1614 109.59-7.64127 109.59-35.2504C109.59-62.8595 86.7001-85.6621 59.091-85.6621C31.5167-85.6621 8.72266-62.8595 8.72266-35.2504C8.72266-7.64127 31.5601 15.1614 59.1344 15.1614ZM59.1344 5.25329C36.7101 5.25329 18.709-12.7826 18.709-35.2504C18.709-57.7181 36.6666-75.754 59.091-75.754C81.5587-75.754 99.6381-57.7181 99.6381-35.2504C99.6381-12.7826 81.6021 5.25329 59.1344 5.25329ZM70.3652-6.29699C71.957-6.29699 73.406-7.35386 73.406-9.18356C73.406-9.93122 73.2499-10.5543 72.8453-11.3865L67.2789-22.5764C66.6628-23.823 66.0895-24.6398 65.5294-25.4263L62.2584-30.1411L62.5425-30.919C63.6033-33.836 64.0126-35.7161 64.1995-38.5565L64.75-46.0856C65.0198-50.3244 62.618-53.6641 58.0265-53.6641C55.0147-53.6641 52.3046-52.1396 49.3825-49.376L44.8718-45.1197C43.3782-43.693 42.961-42.5006 42.7826-40.6298L42.2322-34.2579C42.0539-32.3002 43.2118-30.9885 45.0032-30.8639C46.6367-30.7479 47.8759-31.767 48.0628-33.8944L48.6219-40.6768L51.0689-42.7027C51.7652-43.264 52.5085-42.8965 52.4376-41.9663L51.9928-36.2403C51.7247-33.0244 53.2754-30.6962 54.8559-28.7522L60.3543-21.8636C60.8716-21.2217 61.0287-20.9022 61.3419-20.3278L67.3364-8.27354C67.9681-6.95822 69.0375-6.29699 70.3652-6.29699ZM44.4361-6.27979C45.3912-6.27979 46.2343-6.6639 46.7967-7.33037L55.4674-17.4777C56.4454-18.6221 56.5923-18.7769 56.8209-19.8052L57.2298-21.6396L52.3302-27.851L50.9194-21.1657L42.9288-11.8299C42.2988-11.0856 41.629-10.2723 41.629-9.14056C41.629-7.41323 42.835-6.27979 44.4361-6.27979ZM72.0112-36.6832L78.7313-36.6832C80.7964-36.6832 82.0007-37.8515 82.0007-39.6428C82.0007-41.3907 80.7964-42.6109 78.7313-42.6109L71.6436-42.6109L67.2208-47.515L66.6584-39.8262L68.4959-37.9293C69.4825-36.9427 70.3461-36.6832 72.0112-36.6832ZM61.6572-55.9035C65.152-55.9035 67.9819-58.7666 67.9819-62.147C67.9819-65.652 65.1622-68.4717 61.6572-68.4717C58.1711-68.4717 55.4051-65.652 55.4051-62.147C55.4051-58.7666 58.1814-55.9035 61.6572-55.9035Z"/>
  </g>
  <g id="Regular-M" transform="matrix(1 0 0 1 1391.32 1126)">
   <path d="M58.4961 14.5128C85.7192 14.5128 108.321-8.0375 108.321-35.2606C108.321-62.4838 85.6675-85.0341 58.4443-85.0341C31.2624-85.0341 8.72266-62.4838 8.72266-35.2606C8.72266-8.0375 31.3141 14.5128 58.4961 14.5128ZM58.4961 6.24529C35.5102 6.24529 17.0831-12.223 17.0831-35.2606C17.0831-58.2983 35.4584-76.7666 58.4443-76.7666C81.482-76.7666 100.002-58.2983 100.002-35.2606C100.002-12.223 81.5337 6.24529 58.4961 6.24529ZM70.0099-5.50211C71.5464-5.50211 73.0101-6.50954 73.0101-8.36812C73.0101-9.11578 72.8232-9.73883 72.4493-10.5382L66.7078-22.2495C66.1058-23.4946 65.4933-24.3257 64.9949-25.0216L61.5576-29.9542L61.848-30.7737C62.8966-33.7749 63.374-35.7063 63.5609-38.604L64.1216-46.4036C64.3708-50.6288 62.0244-54.0229 57.3535-54.0229C54.3006-54.0229 51.5516-52.517 48.5821-49.652L44.1258-45.3425C42.6199-43.8682 42.1944-42.6739 42.018-40.8153L41.4573-34.304C41.2809-32.3419 42.433-31.0546 44.2082-30.93C45.807-30.8159 47.032-31.8022 47.2189-33.9301L47.7902-40.9093L50.2412-43.0276C50.9889-43.6507 51.8305-43.2356 51.7576-42.2071L51.3109-36.2364C51.0512-32.9755 52.5877-30.6184 54.1971-28.6352L59.8457-21.5431C60.3547-20.9095 60.4687-20.6497 60.7697-20.1101L66.9992-7.47476C67.6328-6.14526 68.692-5.50211 70.0099-5.50211ZM43.4204-5.48101C44.3549-5.48101 45.2166-5.85484 45.7668-6.52964L54.6955-17.1405C55.6818-18.3138 55.7959-18.3761 56.0451-19.4353L56.5234-21.525L51.6541-27.6816L50.2106-20.806L41.9356-10.9945C41.2914-10.2257 40.6377-9.43685 40.6377-8.31537C40.6377-6.59194 41.811-5.48101 43.4204-5.48101ZM71.5972-36.8921L78.5205-36.8921C80.5861-36.8921 81.7699-38.0443 81.7699-39.8194C81.7699-41.5429 80.5861-42.7573 78.5205-42.7573L71.1821-42.7573L66.6223-47.7944L66.0722-40.2259L68.0775-38.1382C69.0743-37.1413 69.936-36.8921 71.5972-36.8921ZM61.0591-56.3578C64.5788-56.3578 67.4132-59.2439 67.4132-62.639C67.4132-66.1588 64.5788-68.9931 61.0591-68.9931C57.55-68.9931 54.7674-66.1588 54.7674-62.639C54.7674-59.2439 57.55-56.3578 61.0591-56.3578Z"/>
  </g>
  <g id="Light-M" transform="matrix(1 0 0 1 1095.44 1126)">
   <path d="M57.6748 13.6915C84.4872 13.6915 106.662-8.44816 106.662-35.2606C106.662-62.0731 84.4526-84.2128 57.6401-84.2128C30.8346-84.2128 8.72266-62.0731 8.72266-35.2606C8.72266-8.44816 30.8693 13.6915 57.6748 13.6915ZM57.6748 7.37462C34.09 7.37462 15.0811-11.6412 15.0811-35.2606C15.0811-58.8801 34.0554-77.8959 57.6401-77.8959C81.2595-77.8959 100.31-58.8801 100.31-35.2606C100.31-11.6412 81.2942 7.37462 57.6748 7.37462ZM68.9661-5.74166C70.4684-5.74166 71.8808-6.7662 71.8808-8.60768C71.8808-9.35533 71.6938-9.97838 71.32-10.7607L65.664-22.2666C65.0963-23.4091 64.5009-24.2743 64.0024-24.9874L60.548-29.9371L60.8042-30.671C61.8357-33.6893 62.2789-35.6208 62.4658-38.5698L63.0265-46.4892C63.2757-50.5946 60.9635-53.8347 56.498-53.8347C53.445-53.8347 50.987-52.3117 48.0517-49.5494L43.4414-45.2227C41.9184-43.7827 41.5099-42.5712 41.3507-40.7298L40.7899-34.1671C40.6307-32.2563 41.7315-31.0032 43.4553-30.8786C45.0199-30.7817 46.2107-31.7509 46.3976-33.7933L46.986-40.875L49.4712-42.9934C50.2189-43.6165 51.1118-43.2356 51.0219-42.1558L50.5581-36.2022C50.2812-32.907 51.7835-30.5671 53.3757-28.601L58.9901-21.526C59.5162-20.8752 59.6132-20.5984 59.8971-20.0929L66.0239-7.68009C66.6746-6.31637 67.7337-5.74166 68.9661-5.74166ZM42.8044-5.68634C43.7389-5.68634 44.5835-6.06017 45.1166-6.71786L53.8742-17.1576C54.8434-18.3138 54.9403-18.3761 55.1896-19.4353L55.7363-21.7816L50.9526-27.8185L49.4919-20.806L41.3367-11.1485C40.6583-10.3455 40.056-9.59085 40.056-8.46937C40.056-6.78016 41.2121-5.68634 42.8044-5.68634ZM70.3994-37.0119L77.0319-37.0119C79.0119-37.0119 80.1957-38.1127 80.1957-39.8365C80.1957-41.5258 79.0119-42.6889 77.0319-42.6889L70.0186-42.6889L65.339-47.8115L64.8059-40.397L66.931-38.258C67.9279-37.2611 68.7725-37.0119 70.3994-37.0119ZM60.0496-56.0156C63.518-56.0156 66.301-58.8333 66.301-62.1771C66.301-65.6454 63.518-68.4285 60.0496-68.4285C56.6089-68.4285 53.8605-65.6454 53.8605-62.1771C53.8605-58.8333 56.6089-56.0156 60.0496-56.0156Z"/>
  </g>
  <g id="Thin-M" transform="matrix(1 0 0 1 799.828 1126)">
   <path d="M56.5885 12.6052C82.8578 12.6052 104.466-8.9913 104.466-35.2606C104.466-61.53 82.8458-83.1265 56.5765-83.1265C30.2689-83.1265 8.72266-61.53 8.72266-35.2606C8.72266-8.9913 30.2809 12.6052 56.5885 12.6052ZM56.5885 8.86824C32.2117 8.86824 12.4333-10.8718 12.4333-35.2606C12.4333-59.6495 32.1996-79.3895 56.5765-79.3895C80.9653-79.3895 100.717-59.6495 100.717-35.2606C100.717-10.8718 80.9773 8.86824 56.5885 8.86824ZM67.5857-6.05849C69.0427-6.05849 70.3871-7.10566 70.3871-8.92451C70.3871-9.67216 70.2002-10.2952 69.8264-11.0549L64.2835-22.2893C63.7611-23.2959 63.1883-24.2064 62.6899-24.9421L59.2128-29.9145L59.4238-30.5353C60.4326-33.5762 60.8305-35.5076 61.0174-38.5245L61.5782-46.6023C61.8274-50.5493 59.5604-53.5857 55.3664-53.5857C52.3135-53.5857 50.2401-52.0401 47.3501-49.4136L42.5361-45.0643C40.9905-43.6695 40.6047-42.4355 40.4681-40.6166L39.9073-33.986C39.7707-32.1432 40.8036-30.9354 42.4596-30.8107C43.9789-30.7364 45.1244-31.683 45.3113-33.6122L45.9224-40.8298L48.4528-42.9481C49.2005-43.5712 50.1613-43.2356 50.0487-42.0879L49.5623-36.1569C49.2628-32.8165 50.7198-30.4992 52.2895-28.5558L57.8586-21.5033C58.4073-20.83 58.4817-20.5305 58.7429-20.0703L64.7339-7.95166C65.4072-6.54267 66.4664-6.05849 67.5857-6.05849ZM41.9897-5.95791C42.9242-5.95791 43.7462-6.33173 44.2567-6.96679L52.7879-17.1803C53.7345-18.3138 53.8088-18.3761 54.058-19.4353L54.6953-22.1211L50.0247-27.9995L48.5414-20.806L40.5446-11.3521C39.821-10.5039 39.2865-9.79453 39.2865-8.67304C39.2865-7.0291 40.42-5.95791 41.9897-5.95791ZM68.8153-37.1703L75.063-37.1703C76.9299-37.1703 78.1137-38.2032 78.1137-39.8592C78.1137-41.5031 76.9299-42.5983 75.063-42.5983L68.4797-42.5983L63.6417-47.8342L63.1313-40.6233L65.4148-38.4164C66.4116-37.4195 67.2336-37.1703 68.8153-37.1703ZM58.7144-55.563C62.1149-55.563 64.83-58.2901 64.83-61.566C64.83-64.9665 62.1149-67.6817 58.7144-67.6817C55.3642-67.6817 52.6611-64.9665 52.6611-61.566C52.6611-58.2901 55.3642-55.563 58.7144-55.563Z"/>
  </g>
  <g id="Ultralight-M" transform="matrix(1 0 0 1 503.679 1126)">
   <path d="M56.0321 12.0488C82.0233 12.0488 103.342-9.26949 103.342-35.2606C103.342-61.2518 82.0228-82.5701 56.0317-82.5701C29.9791-82.5701 8.72266-61.2518 8.72266-35.2606C8.72266-9.26949 29.9795 12.0488 56.0321 12.0488ZM56.0321 9.63326C31.2496 9.63326 11.0772-10.4777 11.0772-35.2606C11.0772-60.0436 31.2492-80.1545 56.0317-80.1545C80.8147-80.1545 100.926-60.0436 100.926-35.2606C100.926-10.4777 80.8151 9.63326 56.0321 9.63326ZM66.8786-6.22077C68.3125-6.22077 69.6221-7.27953 69.6221-9.08678C69.6221-9.83444 69.4352-10.4575 69.0614-11.2056L63.5765-22.3008C63.0772-23.2379 62.516-24.1717 62.0176-24.9189L58.5289-29.9029L58.7167-30.4657C59.714-33.5182 60.0887-35.4497 60.2756-38.5013L60.8363-46.6603C61.0855-50.5261 58.8417-53.4582 54.7869-53.4582C51.7339-53.4582 49.8576-51.901 46.9908-49.344L42.0725-44.9831C40.5153-43.6116 40.1411-42.3659 40.016-40.5586L39.4553-33.8933C39.3302-32.0852 40.3284-30.9006 41.9496-30.776C43.4457-30.7132 44.5681-31.6482 44.755-33.5195L45.3776-40.8066L47.9312-42.925C48.6789-43.548 49.6745-43.2356 49.5503-42.0531L49.0523-36.1338C48.7412-32.7701 50.1751-30.4644 51.7331-28.5326L57.279-21.4917C57.8394-20.8068 57.9021-20.4957 58.1517-20.0587L64.0732-8.09075C64.7581-6.65858 65.8173-6.22077 66.8786-6.22077ZM41.5724-6.097C42.5069-6.097 43.3173-6.47083 43.8162-7.0943L52.2315-17.1919C53.1665-18.3138 53.2292-18.3761 53.4785-19.4353L54.1621-22.295L49.5495-28.0922L48.0546-20.806L40.1389-11.4565C39.3921-10.585 38.8924-9.89885 38.8924-8.77736C38.8924-7.1566 40.0143-6.097 41.5724-6.097ZM68.0039-37.2514L74.0546-37.2514C75.8635-37.2514 77.0473-38.2496 77.0473-39.8708C77.0473-41.4915 75.8635-42.552 74.0546-42.552L67.6915-42.552L62.7724-47.8458L62.2735-40.7392L64.6382-38.4975C65.635-37.5007 66.4454-37.2514 68.0039-37.2514ZM58.0305-55.3312C61.3962-55.3312 64.0766-58.012 64.0766-61.2531C64.0766-64.6188 61.3962-67.2991 58.0305-67.2991C54.7267-67.2991 52.0467-64.6188 52.0467-61.2531C52.0467-58.012 54.7267-55.3312 58.0305-55.3312Z"/>
  </g>
  <g id="Black-S" transform="matrix(1 0 0 1 2884.57 696)">
   <path d="M48.8281 6.78711C71.9727 6.78711 90.8203-12.0605 90.8203-35.2051C90.8203-58.3496 71.9727-77.1973 48.8281-77.1973C25.6836-77.1973 6.83594-58.3496 6.83594-35.2051C6.83594-12.0605 25.6836 6.78711 48.8281 6.78711ZM48.8281-7.37305C33.4473-7.37305 20.9961-19.8242 20.9961-35.2051C20.9961-50.5859 33.4473-63.0371 48.8281-63.0371C64.209-63.0371 76.6602-50.5859 76.6602-35.2051C76.6602-19.8242 64.209-7.37305 48.8281-7.37305ZM56.4941-15.7227C57.959-15.7227 59.0332-16.748 59.0332-18.0664C59.0332-18.6523 59.0332-19.1406 58.5938-19.9219L54.9316-26.6113C54.3945-27.5879 54.1016-28.1738 53.418-29.1504L51.5137-31.9824L51.709-32.4219C52.5879-34.375 52.6367-35.6445 52.7832-37.6465L53.1738-42.4805C53.4668-45.8496 51.3672-48.2422 48.0957-48.2422C45.8984-48.2422 43.9453-46.9727 41.8457-45.2148L38.0859-42.0898C36.9629-41.1621 36.6699-40.2344 36.5234-38.7207L36.1328-34.2773C35.9863-32.7637 36.9141-31.6406 38.3789-31.543C39.7949-31.4453 40.8203-32.373 40.9668-34.0332L41.3574-38.5742L43.2617-39.7949C43.6035-39.9902 43.7988-39.8926 43.75-39.5508L43.4082-36.0352C43.1641-33.6914 44.4336-31.9824 45.5566-30.6152L49.2676-26.0254C49.707-25.4883 50-25 50.293-24.4141L54.0527-17.2852C54.541-16.3086 55.4199-15.7227 56.4941-15.7227ZM38.8184-15.7227C39.6484-15.7227 40.2344-16.0645 40.7227-16.5527L46.4844-22.6562C47.2168-23.4375 47.4609-23.9258 47.5586-24.6094L47.6074-25.0488L43.6523-30.127L42.6758-25.6348L37.5488-20.2148C37.1094-19.7266 36.5234-18.9941 36.5234-18.0664C36.5234-16.6992 37.5977-15.7227 38.8184-15.7227ZM58.0078-35.5469L62.4512-35.5469C64.0625-35.5469 65.0879-36.5234 65.0879-37.9883C65.0879-39.4531 64.0625-40.4297 62.4512-40.4297L57.9102-40.4297L54.9805-43.75L54.4922-37.2559L55.2734-36.5234C56.0059-35.791 56.6895-35.5469 58.0078-35.5469ZM50.6348-49.6094C53.2715-49.6094 55.4688-51.7578 55.4688-54.3457C55.4688-57.0312 53.3203-59.1797 50.6348-59.1797C47.998-59.1797 45.8984-57.0312 45.8984-54.3457C45.8984-51.7578 48.0469-49.6094 50.6348-49.6094Z"/>
  </g>
  <g id="Heavy-S" transform="matrix(1 0 0 1 2588.47 696)">
   <path d="M48.2173 6.16479C70.9816 6.16479 89.6102-12.4524 89.6102-35.2166C89.6102-57.9808 70.97-76.598 48.2058-76.598C25.4531-76.598 6.83594-57.9808 6.83594-35.2166C6.83594-12.4524 25.4646 6.16479 48.2173 6.16479ZM48.2173-6.40499C32.2833-6.40499 19.4288-19.271 19.4288-35.2166C19.4288-51.1622 32.2718-64.0282 48.2058-64.0282C64.1514-64.0282 77.0289-51.1622 77.0289-35.2166C77.0289-19.271 64.1629-6.40499 48.2173-6.40499ZM56.2291-14.8007C57.6363-14.8007 58.7336-15.7685 58.7336-17.1214C58.7336-17.7073 58.699-18.1956 58.2941-18.9423L54.4246-26.2425C53.899-27.2306 53.5599-27.8281 52.9455-28.7009L50.8568-31.775L51.0636-32.2721C51.931-34.3174 52.0605-35.6445 52.207-37.7041L52.6091-42.8262C52.879-46.1953 50.8371-48.6686 47.4503-48.6686C45.207-48.6686 43.1732-47.4221 41.0159-45.5375L37.3368-42.3549C36.2023-41.3695 35.8978-40.4418 35.7513-38.9397L35.3491-34.3465C35.2027-32.8213 36.1304-31.7213 37.5837-31.6236C38.9652-31.526 39.979-32.4191 40.1255-34.0908L40.5277-38.8393L42.432-40.1637C42.8314-40.4282 43.1304-40.2729 43.0816-39.8274L42.7398-36.0352C42.5072-33.6453 43.7652-31.9018 44.9228-30.4885L48.8066-25.6681C49.2345-25.1425 49.4814-24.7234 49.7628-24.172L53.7992-16.3632C54.2875-15.3751 55.1549-14.8007 56.2291-14.8007ZM37.7581-14.8007C38.5651-14.8007 39.1741-15.131 39.6509-15.6308L45.7238-22.2759C46.4677-23.0918 46.6773-23.4763 46.798-24.1945L46.916-24.8875L42.9839-29.9195L41.9728-25.2314L36.5116-19.2583C36.0606-18.747 35.4862-18.0376 35.4862-17.1214C35.4862-15.7542 36.5259-14.8007 37.7581-14.8007ZM57.6967-35.7658L62.4051-35.7658C64.0279-35.7658 65.0303-36.7309 65.0303-38.1842C65.0303-39.626 64.0279-40.6026 62.4051-40.6026L57.5414-40.6026L54.4734-44.0612L53.9966-37.6823L54.9508-36.7424C55.6947-35.9985 56.3783-35.7658 57.6967-35.7658ZM50.0931-50.1625C52.7644-50.1625 54.9732-52.3456 54.9732-54.9565C54.9732-57.6651 52.8017-59.8366 50.0931-59.8366C47.4218-59.8366 45.2992-57.6651 45.2992-54.9565C45.2992-52.3456 47.4591-50.1625 50.0931-50.1625Z"/>
  </g>
  <g id="Bold-S" transform="matrix(1 0 0 1 2292.43 696)">
   <path d="M47.5342 5.46875C69.873 5.46875 88.2568-12.8906 88.2568-35.2295C88.2568-57.5684 69.8486-75.9277 47.5098-75.9277C25.1953-75.9277 6.83594-57.5684 6.83594-35.2295C6.83594-12.8906 25.2197 5.46875 47.5342 5.46875ZM47.5342-5.32227C30.9814-5.32227 17.6758-18.6523 17.6758-35.2295C17.6758-51.8066 30.957-65.1367 47.5098-65.1367C64.0869-65.1367 77.4414-51.8066 77.4414-35.2295C77.4414-18.6523 64.1113-5.32227 47.5342-5.32227ZM55.9326-13.7695C57.2754-13.7695 58.3984-14.6729 58.3984-16.0645C58.3984-16.6504 58.3252-17.1387 57.959-17.8467L53.8574-25.8301C53.3447-26.8311 52.9541-27.4414 52.417-28.1982L50.1221-31.543L50.3418-32.1045C51.1963-34.2529 51.416-35.6445 51.5625-37.7686L51.9775-43.2129C52.2217-46.582 50.2441-49.1455 46.7285-49.1455C44.4336-49.1455 42.3096-47.9248 40.0879-45.8984L36.499-42.6514C35.3516-41.6016 35.0342-40.6738 34.8877-39.1846L34.4727-34.4238C34.3262-32.8857 35.2539-31.8115 36.6943-31.7139C38.0371-31.6162 39.0381-32.4707 39.1846-34.1553L39.5996-39.1357L41.5039-40.5762C41.9678-40.918 42.3828-40.6982 42.334-40.1367L41.9922-36.0352C41.7725-33.5938 43.0176-31.8115 44.2139-30.3467L48.291-25.2686C48.7061-24.7559 48.9014-24.4141 49.1699-23.9014L53.5156-15.332C54.0039-14.3311 54.8584-13.7695 55.9326-13.7695ZM36.5723-13.7695C37.3535-13.7695 37.9883-14.0869 38.4521-14.5996L44.873-21.8506C45.6299-22.7051 45.8008-22.9736 45.9473-23.7305L46.1426-24.707L42.2363-29.6875L41.1865-24.7803L35.3516-18.1885C34.8877-17.6514 34.3262-16.9678 34.3262-16.0645C34.3262-14.6973 35.3271-13.7695 36.5723-13.7695ZM57.3486-36.0107L62.3535-36.0107C63.9893-36.0107 64.9658-36.9629 64.9658-38.4033C64.9658-39.8193 63.9893-40.7959 62.3535-40.7959L57.1289-40.7959L53.9062-44.4092L53.4424-38.1592L54.5898-36.9873C55.3467-36.2305 56.0303-36.0107 57.3486-36.0107ZM49.4873-50.7812C52.1973-50.7812 54.4189-53.0029 54.4189-55.6396C54.4189-58.374 52.2217-60.5713 49.4873-60.5713C46.7773-60.5713 44.6289-58.374 44.6289-55.6396C44.6289-53.0029 46.8018-50.7812 49.4873-50.7812Z"/>
  </g>
  <g id="Semibold-S" transform="matrix(1 0 0 1 1996.19 696)">
   <path d="M47.0632 4.98887C69.1088 4.98887 87.3237-13.1928 87.3237-35.2384C87.3237-57.284 69.0755-75.4656 47.0299-75.4656C25.0176-75.4656 6.83594-57.284 6.83594-35.2384C6.83594-13.1928 25.0509 4.98887 47.0632 4.98887ZM47.0632-4.57578C30.0839-4.57578 16.4672-18.2258 16.4672-35.2384C16.4672-52.251 30.0506-65.901 47.0299-65.901C64.0425-65.901 77.7258-52.251 77.7258-35.2384C77.7258-18.2258 64.0758-4.57578 47.0632-4.57578ZM55.7282-13.0586C57.0266-13.0586 58.1674-13.9175 58.1674-15.3357C58.1674-15.9217 58.0675-16.41 57.7279-17.0913L53.4664-25.5457C52.9626-26.5556 52.5364-27.1748 52.0526-27.8517L49.6155-31.383L49.8441-31.989C50.6897-34.2085 50.9717-35.6445 51.1182-37.813L51.5421-43.4795C51.7685-46.8486 49.8354-49.4743 46.2309-49.4743C43.9004-49.4743 41.7142-48.2714 39.448-46.1473L35.9214-42.8558C34.765-41.7615 34.4388-40.8338 34.2923-39.3534L33.8684-34.4771C33.7219-32.9302 34.6496-31.8737 36.0812-31.7761C37.3973-31.6784 38.3894-32.5063 38.5358-34.1997L38.9598-39.3401L40.8641-40.8605C41.3724-41.2557 41.8674-40.9915 41.8186-40.35L41.4768-36.0352C41.2659-33.5582 42.5021-31.7493 43.7251-30.2489L47.9355-24.9931C48.3417-24.4893 48.5015-24.2008 48.7611-23.7147L53.3201-14.6211C53.8084-13.6112 54.654-13.0586 55.7282-13.0586ZM35.7547-13.0586C36.5182-13.0586 37.1707-13.3671 37.6257-13.8887L44.2865-21.5573C45.0522-22.4385 45.1965-22.6271 45.3607-23.4105L45.6094-24.5826L41.7209-29.5275L40.6444-24.4692L34.5518-17.4509C34.079-16.896 33.5264-16.2302 33.5264-15.3357C33.5264-13.9686 34.5007-13.0586 35.7547-13.0586ZM57.1087-36.1796L62.318-36.1796C63.9626-36.1796 64.9214-37.1229 64.9214-38.5544C64.9214-39.9526 63.9626-40.9292 62.318-40.9292L56.8445-40.9292L53.5152-44.6491L53.0603-38.488L54.341-37.1562C55.1067-36.3904 55.7903-36.1796 57.1087-36.1796ZM49.0696-51.2078C51.8062-51.2078 54.0368-53.4562 54.0368-56.1106C54.0368-58.8628 51.8218-61.0778 49.0696-61.0778C46.333-61.0778 44.1668-58.8628 44.1668-56.1106C44.1668-53.4562 46.3485-51.2078 49.0696-51.2078Z"/>
  </g>
  <g id="Medium-S" transform="matrix(1 0 0 1 1699.83 696)">
   <path d="M46.7061 4.625C68.5293 4.625 86.6162-13.4219 86.6162-35.2451C86.6162-57.0684 68.4893-75.1152 46.666-75.1152C24.8828-75.1152 6.83594-57.0684 6.83594-35.2451C6.83594-13.4219 24.9229 4.625 46.7061 4.625ZM46.7061-4.00977C29.4033-4.00977 15.5508-17.9023 15.5508-35.2451C15.5508-52.5879 29.3633-66.4805 46.666-66.4805C64.0088-66.4805 77.9414-52.5879 77.9414-35.2451C77.9414-17.9023 64.0488-4.00977 46.7061-4.00977ZM55.5732-12.5195C56.8379-12.5195 57.9922-13.3447 57.9922-14.7832C57.9922-15.3691 57.8721-15.8574 57.5527-16.5186L53.1699-25.3301C52.6729-26.3467 52.2197-26.9727 51.7764-27.5889L49.2314-31.2617L49.4668-31.9014C50.3057-34.1748 50.6348-35.6445 50.7812-37.8467L51.2119-43.6816C51.4248-47.0508 49.5254-49.7236 45.8535-49.7236C43.4961-49.7236 41.2627-48.5342 38.9629-46.3359L35.4834-43.0107C34.3203-41.8828 33.9873-40.9551 33.8408-39.4814L33.4102-34.5176C33.2637-32.9639 34.1914-31.9209 35.6162-31.8232C36.9121-31.7256 37.8975-32.5332 38.0439-34.2334L38.4746-39.4951L40.3789-41.0762C40.9209-41.5117 41.4766-41.2139 41.4277-40.5117L41.0859-36.0352C40.8818-33.5312 42.1113-31.7021 43.3545-30.1748L47.666-24.7842C48.0654-24.2871 48.1982-24.0391 48.4512-23.5732L53.1719-14.082C53.6602-13.0654 54.499-12.5195 55.5732-12.5195ZM35.1348-12.5195C35.8848-12.5195 36.5508-12.8213 36.999-13.3496L43.8418-21.335C44.6143-22.2363 44.7383-22.3643 44.916-23.168L45.2051-24.4883L41.3301-29.4062L40.2334-24.2334L33.9453-16.8916C33.4658-16.3232 32.9199-15.6709 32.9199-14.7832C32.9199-13.416 33.874-12.5195 35.1348-12.5195ZM56.9268-36.3076L62.291-36.3076C63.9424-36.3076 64.8877-37.2441 64.8877-38.6689C64.8877-40.0537 63.9424-41.0303 62.291-41.0303L56.6289-41.0303L53.2188-44.8311L52.7705-38.7373L54.1523-37.2842C54.9248-36.5117 55.6084-36.3076 56.9268-36.3076ZM48.7529-51.5312C51.5098-51.5312 53.7471-53.7998 53.7471-56.4678C53.7471-59.2334 51.5186-61.4619 48.7529-61.4619C45.9961-61.4619 43.8164-59.2334 43.8164-56.4678C43.8164-53.7998 46.0049-51.5312 48.7529-51.5312Z"/>
  </g>
  <g id="Regular-S" transform="matrix(1 0 0 1 1403.58 696)">
   <path d="M46.2402 4.15039C67.7734 4.15039 85.6934-13.7207 85.6934-35.2539C85.6934-56.7871 67.7246-74.6582 46.1914-74.6582C24.707-74.6582 6.83594-56.7871 6.83594-35.2539C6.83594-13.7207 24.7559 4.15039 46.2402 4.15039ZM46.2402-3.27148C28.5156-3.27148 14.3555-17.4805 14.3555-35.2539C14.3555-53.0273 28.4668-67.2363 46.1914-67.2363C63.9648-67.2363 78.2227-53.0273 78.2227-35.2539C78.2227-17.4805 64.0137-3.27148 46.2402-3.27148ZM55.3711-11.8164C56.5918-11.8164 57.7637-12.5977 57.7637-14.0625C57.7637-14.6484 57.6172-15.1367 57.3242-15.7715L52.7832-25.0488C52.2949-26.0742 51.8066-26.709 51.416-27.2461L48.7305-31.1035L48.9746-31.7871C49.8047-34.1309 50.1953-35.6445 50.3418-37.8906L50.7812-43.9453C50.9766-47.3145 49.1211-50.0488 45.3613-50.0488C42.9688-50.0488 40.6738-48.877 38.3301-46.582L34.9121-43.2129C33.7402-42.041 33.3984-41.1133 33.252-39.6484L32.8125-34.5703C32.666-33.0078 33.5938-31.9824 35.0098-31.8848C36.2793-31.7871 37.2559-32.5684 37.4023-34.2773L37.8418-39.6973L39.7461-41.3574C40.332-41.8457 40.9668-41.5039 40.918-40.7227L40.5762-36.0352C40.3809-33.4961 41.6016-31.6406 42.8711-30.0781L47.3145-24.5117C47.7051-24.0234 47.8027-23.8281 48.0469-23.3887L52.9785-13.3789C53.4668-12.3535 54.2969-11.8164 55.3711-11.8164ZM34.3262-11.8164C35.0586-11.8164 35.7422-12.1094 36.1816-12.6465L43.2617-21.0449C44.043-21.9727 44.1406-22.0215 44.3359-22.8516L44.6777-24.3652L40.8203-29.248L39.6973-23.9258L33.1543-16.1621C32.666-15.5762 32.1289-14.9414 32.1289-14.0625C32.1289-12.6953 33.0566-11.8164 34.3262-11.8164ZM56.6895-36.4746L62.2559-36.4746C63.916-36.4746 64.8438-37.4023 64.8438-38.8184C64.8438-40.1855 63.916-41.1621 62.2559-41.1621L56.3477-41.1621L52.832-45.0684L52.3926-39.0625L53.9062-37.4512C54.6875-36.6699 55.3711-36.4746 56.6895-36.4746ZM48.3398-51.9531C51.123-51.9531 53.3691-54.248 53.3691-56.9336C53.3691-59.7168 51.123-61.9629 48.3398-61.9629C45.5566-61.9629 43.3594-59.7168 43.3594-56.9336C43.3594-54.248 45.5566-51.9531 48.3398-51.9531Z"/>
  </g>
  <g id="Light-S" transform="matrix(1 0 0 1 1107.6 696)">
   <path d="M45.5137 3.42383C66.6836 3.42383 84.2251-14.084 84.2251-35.2539C84.2251-56.4238 66.6499-73.9316 45.48-73.9316C24.3286-73.9316 6.83594-56.4238 6.83594-35.2539C6.83594-14.084 24.3623 3.42383 45.5137 3.42383ZM45.5137-2.27247C27.2593-2.27247 12.5845-16.9658 12.5845-35.2539C12.5845-53.542 27.2256-68.2353 45.48-68.2353C63.7681-68.2353 78.4951-53.542 78.4951-35.2539C78.4951-16.9658 63.8018-2.27247 45.5137-2.27247ZM54.4478-12.0283C55.6382-12.0283 56.7647-12.8247 56.7647-14.2744C56.7647-14.8603 56.6182-15.3486 56.3252-15.9683L51.8599-25.064C51.4019-25.9985 50.9287-26.6636 50.5381-27.2158L47.8374-31.0884L48.0513-31.6963C48.8662-34.0552 49.2266-35.5688 49.3731-37.8604L49.8125-44.021C50.0078-47.2842 48.1826-49.8823 44.6045-49.8823C42.2119-49.8823 40.1743-48.6953 37.8608-46.4912L34.3066-43.1069C33.1196-41.9653 32.793-41.0225 32.6616-39.5728L32.2222-34.4492C32.0908-32.9321 32.9731-31.937 34.3438-31.8394C35.583-31.7568 36.5293-32.5229 36.6758-34.1563L37.1304-39.667L39.0649-41.3271C39.6509-41.8154 40.3311-41.5039 40.2671-40.6772L39.9102-36.0049C39.6997-33.4355 40.8901-31.5952 42.1445-30.0479L46.5576-24.4966C46.9634-23.9932 47.0459-23.7827 47.2749-23.3735L52.1157-13.5605C52.6191-12.5049 53.4492-12.0283 54.4478-12.0283ZM33.7813-11.998C34.5137-11.998 35.1821-12.291 35.6064-12.813L42.5352-21.0601C43.3013-21.9727 43.3838-22.0215 43.5791-22.8516L43.9815-24.5923L40.1997-29.3691L39.0615-23.9258L32.6245-16.2983C32.106-15.6821 31.6143-15.0776 31.6143-14.1987C31.6143-12.8618 32.5269-11.998 33.7813-11.998ZM55.6299-36.5806L60.939-36.5806C62.5234-36.5806 63.4512-37.4629 63.4512-38.8335C63.4512-40.1704 62.5234-41.1016 60.939-41.1016L55.3184-41.1016L51.6968-45.0835L51.2725-39.2139L52.8921-37.5571C53.6733-36.7759 54.3418-36.5806 55.6299-36.5806ZM47.4468-51.6504C50.1846-51.6504 52.3853-53.8848 52.3853-56.5249C52.3853-59.2627 50.1846-61.4634 47.4468-61.4634C44.7241-61.4634 42.5571-59.2627 42.5571-56.5249C42.5571-53.8848 44.7241-51.6504 47.4468-51.6504Z"/>
  </g>
  <g id="Thin-S" transform="matrix(1 0 0 1 811.863 696)">
   <path d="M44.5527 2.4629C65.2422 2.4629 82.2832-14.5644 82.2832-35.2539C82.2832-55.9434 65.2285-72.9707 44.5391-72.9707C23.8281-72.9707 6.83594-55.9434 6.83594-35.2539C6.83594-14.5644 23.8418 2.4629 44.5527 2.4629ZM44.5527-0.95119C25.5977-0.95119 10.2422-16.2852 10.2422-35.2539C10.2422-54.2226 25.584-69.5566 44.5391-69.5566C63.5078-69.5566 78.8555-54.2226 78.8555-35.2539C78.8555-16.2852 63.5215-0.95119 44.5527-0.95119ZM53.2266-12.3086C54.377-12.3086 55.4434-13.125 55.4434-14.5547C55.4434-15.1406 55.2969-15.6289 55.0039-16.2285L50.6387-25.084C50.2207-25.8984 49.7676-26.6035 49.377-27.1758L46.6563-31.0684L46.8301-31.5762C47.625-33.9551 47.9453-35.4688 48.0918-37.8203L48.5313-44.1211C48.7266-47.2441 46.9414-49.6621 43.6035-49.6621C41.211-49.6621 39.5137-48.4551 37.2402-46.3711L33.5059-42.9668C32.2988-41.8652 31.9922-40.9023 31.8809-39.4727L31.4414-34.2891C31.3301-32.832 32.1524-31.877 33.4629-31.7793C34.6621-31.7168 35.5684-32.4629 35.7149-33.9961L36.1895-39.627L38.1641-41.2871C38.75-41.7754 39.4902-41.5039 39.4063-40.6172L39.0293-35.9648C38.7988-33.3555 39.9492-31.5352 41.1836-30.0078L45.5567-24.4766C45.9824-23.9531 46.0449-23.7227 46.2539-23.3535L50.9746-13.8008C51.4981-12.7051 52.3281-12.3086 53.2266-12.3086ZM33.0606-12.2383C33.793-12.2383 34.4414-12.5312 34.8457-13.0332L41.5742-21.0801C42.3203-21.9727 42.3828-22.0215 42.5781-22.8516L43.0606-24.8926L39.3789-29.5293L38.2207-23.9258L31.9238-16.4785C31.3652-15.8223 30.9336-15.2578 30.9336-14.3789C30.9336-13.082 31.8262-12.2383 33.0606-12.2383ZM54.2285-36.7207L59.1973-36.7207C60.6817-36.7207 61.6094-37.543 61.6094-38.8535C61.6094-40.1504 60.6817-41.0215 59.1973-41.0215L53.9571-41.0215L50.1953-45.1035L49.791-39.4141L51.5508-37.6973C52.332-36.916 52.9805-36.7207 54.2285-36.7207ZM46.2656-51.25C48.9434-51.25 51.084-53.4043 51.084-55.9844C51.084-58.6621 48.9434-60.8027 46.2656-60.8027C43.6231-60.8027 41.4961-58.6621 41.4961-55.9844C41.4961-53.4043 43.6231-51.25 46.2656-51.25Z"/>
  </g>
  <g id="Ultralight-S" transform="matrix(1 0 0 1 515.649 696)">
   <path d="M44.0606 1.97072C64.5039 1.97072 81.2886-14.8105 81.2886-35.2539C81.2886-55.6973 64.5005-72.4785 44.0571-72.4785C23.5718-72.4785 6.83594-55.6973 6.83594-35.2539C6.83594-14.8105 23.5752 1.97072 44.0606 1.97072ZM44.0606-0.274438C24.7466-0.274438 9.04252-15.9365 9.04252-35.2539C9.04252-54.5713 24.7432-70.2334 44.0571-70.2334C63.3745-70.2334 79.04-54.5713 79.04-35.2539C79.04-15.9365 63.3779-0.274438 44.0606-0.274438ZM52.6011-12.4521C53.731-12.4521 54.7666-13.2788 54.7666-14.6982C54.7666-15.2842 54.6201-15.7725 54.3272-16.3618L50.0132-25.0942C49.6157-25.8472 49.1729-26.5728 48.7822-27.1553L46.0513-31.0581L46.2046-31.5147C46.9893-33.9038 47.2891-35.4175 47.4356-37.7998L47.875-44.1724C48.0703-47.2236 46.3057-49.5493 43.0908-49.5493C40.6983-49.5493 39.1753-48.332 36.9224-46.3096L33.0957-42.895C31.8784-41.814 31.582-40.8408 31.481-39.4214L31.0415-34.207C30.9404-32.7808 31.7319-31.8462 33.0117-31.7485C34.1904-31.6963 35.0762-32.4321 35.2227-33.9141L35.7075-39.6064L37.7027-41.2666C38.2886-41.7549 39.0596-41.5039 38.9653-40.5864L38.5781-35.9443C38.3374-33.3145 39.4673-31.5044 40.6914-29.9873L45.044-24.4663C45.48-23.9326 45.5322-23.6919 45.731-23.3433L50.3902-13.9238C50.9238-12.8076 51.7539-12.4521 52.6011-12.4521ZM32.6914-12.3613C33.4238-12.3613 34.062-12.6543 34.4561-13.146L41.082-21.0903C41.8179-21.9727 41.8701-22.0215 42.0654-22.8516L42.5889-25.0464L38.9585-29.6113L37.7901-23.9258L31.565-16.5708C30.9859-15.894 30.585-15.3501 30.585-14.4712C30.585-13.1948 31.4673-12.3613 32.6914-12.3613ZM53.5108-36.7925L58.3052-36.7925C59.7383-36.7925 60.666-37.584 60.666-38.8638C60.666-40.1401 59.7383-40.9805 58.3052-40.9805L53.2598-40.9805L49.4263-45.1138L49.0323-39.5166L50.8638-37.769C51.645-36.9878 52.2832-36.7925 53.5108-36.7925ZM45.6607-51.0449C48.3076-51.0449 50.4175-53.1582 50.4175-55.7075C50.4175-58.3545 48.3076-60.4644 45.6607-60.4644C43.0591-60.4644 40.9527-58.3545 40.9527-55.7075C40.9527-53.1582 43.0591-51.0449 45.6607-51.0449Z"/>
  </g>
 </g>
</svg>
